SplineFontDB: 3.2
FontName: notosanskannada
FullName: notosanskannada
FamilyName: notosanskannada
Weight: Regular
Copyright: Copyright 2022 The Noto Project Authors (https://github.com/notofonts/kannada)
Version: 2.005
ItalicAngle: 0
UnderlinePosition: -125
UnderlineWidth: 50
Ascent: 800
Descent: 200
InvalidEm: 0
sfntRevision: 0x00020148
LayerCount: 2
Layer: 0 1 "Back" 1
Layer: 1 1 "Fore" 0
XUID: [1021 238 -758118090 13602585]
StyleMap: 0x0040
FSType: 0
OS2Version: 4
OS2_WeightWidthSlopeOnly: 0
OS2_UseTypoMetrics: 1
CreationTime: 1528877849
ModificationTime: 1738532958
PfmFamily: 81
TTFWeight: 400
TTFWidth: 5
LineGap: 0
VLineGap: 0
Panose: 0 0 0 0 0 0 0 0 0 0
OS2TypoAscent: 809
OS2TypoAOffset: 0
OS2TypoDescent: -540
OS2TypoDOffset: 0
OS2TypoLinegap: 0
OS2WinAscent: 1105
OS2WinAOffset: 0
OS2WinDescent: 540
OS2WinDOffset: 0
HheadAscent: 809
HheadAOffset: 0
HheadDescent: -540
HheadDOffset: 0
OS2SubXSize: 650
OS2SubYSize: 600
OS2SubXOff: 0
OS2SubYOff: 75
OS2SupXSize: 650
OS2SupYSize: 600
OS2SupXOff: 0
OS2SupYOff: 350
OS2StrikeYSize: 50
OS2StrikeYPos: 331
OS2CapHeight: 690
OS2XHeight: 551
OS2Vendor: 'GOOG'
OS2CodePages: 00000093.00000000
OS2UnicodeRanges: 80408003.00002042.00000000.00000000
Lookup: 1 0 0 "'aalt' Access All Alternates lookup 0" { "'aalt' Access All Alternates lookup 0 subtable"  } ['aalt' ('DFLT' <'dflt' > 'cyrl' <'dflt' > 'dev2' <'dflt' > 'grek' <'dflt' > 'knd2' <'dflt' > 'latn' <'APPH' 'CAT ' 'IPPH' 'MAH ' 'MOL ' 'NAV ' 'ROM ' 'dflt' > ) ]
Lookup: 3 0 0 "'aalt' Access All Alternates lookup 1" { "'aalt' Access All Alternates lookup 1 subtable"  } ['aalt' ('DFLT' <'dflt' > 'cyrl' <'dflt' > 'dev2' <'dflt' > 'grek' <'dflt' > 'knd2' <'dflt' > 'latn' <'APPH' 'CAT ' 'IPPH' 'MAH ' 'MOL ' 'NAV ' 'ROM ' 'dflt' > ) ]
Lookup: 2 0 0 "Multiple Substitution lookup 2" { "Multiple Substitution lookup 2 subtable"  } []
Lookup: 1 0 0 "Single Substitution lookup 3" { "Single Substitution lookup 3 subtable"  } []

StartChar: .notdef
Encoding: 65536 -1 0
Width: 599
Flags: W
LayerCount: 2
Fore
SplineSet
94 714 m 1,0,-1
 505 714 l 1,1,-1
 505 0 l 1,2,-1
 94 0 l 1,3,-1
 94 714 l 1,0,-1
454 51 m 1,4,-1
 454 663 l 1,5,-1
 145 663 l 1,6,-1
 145 51 l 1,7,-1
 454 51 l 1,4,-1
EndSplineSet
EndChar

StartChar: uni0C80
Encoding: 3200 3200 4
Width: 556
GlyphClass: 2
Flags: W
AnchorPoint: "Anchor-0" 278 -40 basechar 0
LayerCount: 2
Fore
SplineSet
278 41 m 0,0,1
 199 41 199 41 145.5 66.5 c 128,-1,2
 92 92 92 92 64.5 139 c 128,-1,3
 37 186 37 186 37 252 c 0,4,5
 37 281 37 281 40 305.5 c 128,-1,6
 43 330 43 330 48 346 c 1,7,-1
 127 331 l 1,8,9
 123 315 123 315 121 296 c 128,-1,10
 119 277 119 277 119 258 c 0,11,12
 119 206 119 206 139.5 174.5 c 128,-1,13
 160 143 160 143 196 129.5 c 128,-1,14
 232 116 232 116 278 116 c 0,15,16
 325 116 325 116 361 129.5 c 128,-1,17
 397 143 397 143 417 174.5 c 128,-1,18
 437 206 437 206 437 258 c 0,19,20
 437 277 437 277 435 296 c 128,-1,21
 433 315 433 315 429 331 c 1,22,-1
 508 346 l 1,23,24
 513 330 513 330 516 306 c 128,-1,25
 519 282 519 282 519 255 c 0,26,27
 519 191 519 191 492 142.5 c 128,-1,28
 465 94 465 94 411.5 67.5 c 128,-1,29
 358 41 358 41 278 41 c 0,0,1
278 198 m 256,30,31
 251 198 251 198 233 216 c 128,-1,32
 215 234 215 234 215 260 c 0,33,34
 215 288 215 288 232.5 306 c 128,-1,35
 250 324 250 324 278 324 c 0,36,37
 305 324 305 324 322.5 306 c 128,-1,38
 340 288 340 288 340 260 c 0,39,40
 340 234 340 234 322.5 216 c 128,-1,41
 305 198 305 198 278 198 c 256,30,31
EndSplineSet
EndChar

StartChar: candrabinduknda
Encoding: 3201 3201 5
Width: 0
GlyphClass: 4
Flags: W
AnchorPoint: "Anchor-1" -278 -259 mark 0
AnchorPoint: "Anchor-0" -278 -259 mark 0
LayerCount: 2
Fore
SplineSet
-278 598 m 0,0,1
 -334 598 -334 598 -373 616 c 128,-1,2
 -412 634 -412 634 -432 669 c 128,-1,3
 -452 704 -452 704 -452 753 c 0,4,5
 -452 767 -452 767 -450 781.5 c 128,-1,6
 -448 796 -448 796 -444 808 c 1,7,-1
 -376 794 l 1,8,9
 -379 784 -379 784 -380 773.5 c 128,-1,10
 -381 763 -381 763 -381 755 c 0,11,12
 -381 719 -381 719 -366.5 699 c 128,-1,13
 -352 679 -352 679 -328 671 c 128,-1,14
 -304 663 -304 663 -278 663 c 0,15,16
 -237 663 -237 663 -206 684 c 128,-1,17
 -175 705 -175 705 -175 757 c 0,18,19
 -175 765 -175 765 -176 774.5 c 128,-1,20
 -177 784 -177 784 -180 794 c 1,21,-1
 -111 808 l 1,22,23
 -108 796 -108 796 -106 781 c 128,-1,24
 -104 766 -104 766 -104 753 c 0,25,26
 -104 705 -104 705 -125 670 c 128,-1,27
 -146 635 -146 635 -185 616.5 c 128,-1,28
 -224 598 -224 598 -278 598 c 0,0,1
-279 705 m 256,29,30
 -301 705 -301 705 -315 719 c 128,-1,31
 -329 733 -329 733 -329 756 c 0,32,33
 -329 777 -329 777 -315 791.5 c 128,-1,34
 -301 806 -301 806 -279 806 c 256,35,36
 -257 806 -257 806 -242.5 791.5 c 128,-1,37
 -228 777 -228 777 -228 756 c 0,38,39
 -228 733 -228 733 -242.5 719 c 128,-1,40
 -257 705 -257 705 -279 705 c 256,29,30
EndSplineSet
Substitution2: "Single Substitution lookup 150 subtable" kasubscriptknda
Substitution2: "Single Substitution lookup 149 subtable" khasubscriptknda
Substitution2: "Single Substitution lookup 148 subtable" gasubscriptknda
Substitution2: "Single Substitution lookup 147 subtable" ghasubscriptknda
Substitution2: "Single Substitution lookup 146 subtable" ngasubscriptknda
Substitution2: "Single Substitution lookup 145 subtable" casubscriptknda
Substitution2: "Single Substitution lookup 144 subtable" chasubscriptknda
Substitution2: "Single Substitution lookup 143 subtable" jasubscriptknda
Substitution2: "Single Substitution lookup 142 subtable" jhasubscriptknda
Substitution2: "Single Substitution lookup 141 subtable" nyasubscriptknda
Substitution2: "Single Substitution lookup 140 subtable" ttasubscriptknda
Substitution2: "Single Substitution lookup 139 subtable" tthasubscriptknda
Substitution2: "Single Substitution lookup 138 subtable" ddasubscriptknda
Substitution2: "Single Substitution lookup 137 subtable" ddhasubscriptknda
Substitution2: "Single Substitution lookup 136 subtable" nnasubscriptknda
Substitution2: "Single Substitution lookup 135 subtable" tasubscriptknda
Substitution2: "Single Substitution lookup 134 subtable" thasubscriptknda
Substitution2: "Single Substitution lookup 133 subtable" dasubscriptknda
Substitution2: "Single Substitution lookup 132 subtable" dhasubscriptknda
Substitution2: "Single Substitution lookup 131 subtable" nasubscriptknda
Substitution2: "Single Substitution lookup 130 subtable" pasubscriptknda
Substitution2: "Single Substitution lookup 129 subtable" phasubscriptknda
Substitution2: "Single Substitution lookup 128 subtable" basubscriptknda
Substitution2: "Single Substitution lookup 127 subtable" bhasubscriptknda
Substitution2: "Single Substitution lookup 126 subtable" masubscriptknda
Substitution2: "Single Substitution lookup 125 subtable" yasubscriptknda
Substitution2: "Single Substitution lookup 124 subtable" rasubscriptknda
Substitution2: "Single Substitution lookup 123 subtable" rrasubscriptknda
Substitution2: "Single Substitution lookup 122 subtable" lasubscriptknda
Substitution2: "Single Substitution lookup 121 subtable" llasubscriptknda
Substitution2: "Single Substitution lookup 120 subtable" vasubscriptknda
Substitution2: "Single Substitution lookup 119 subtable" shasubscriptknda
Substitution2: "Single Substitution lookup 118 subtable" ssasubscriptknda
Substitution2: "Single Substitution lookup 117 subtable" sasubscriptknda
Substitution2: "Single Substitution lookup 116 subtable" hasubscriptknda
Substitution2: "Single Substitution lookup 115 subtable" fasubscriptknda
Substitution2: "Single Substitution lookup 114 subtable" karasubscriptknda
Substitution2: "Single Substitution lookup 113 subtable" garasubscriptknda
Substitution2: "Single Substitution lookup 112 subtable" ttarasubscriptknda
Substitution2: "Single Substitution lookup 111 subtable" ddarasubscriptknda
Substitution2: "Single Substitution lookup 110 subtable" tarasubscriptknda
Substitution2: "Single Substitution lookup 109 subtable" darasubscriptknda
Substitution2: "Single Substitution lookup 108 subtable" parasubscriptknda
Substitution2: "Single Substitution lookup 107 subtable" bharasubscriptknda
Substitution2: "Single Substitution lookup 106 subtable" tayasubscriptknda
Substitution2: "Single Substitution lookup 105 subtable" mayasubscriptknda
Substitution2: "Single Substitution lookup 104 subtable" kasubscriptaltknda
Substitution2: "Single Substitution lookup 103 subtable" khasubscriptaltknda
Substitution2: "Single Substitution lookup 102 subtable" gasubscriptaltknda
Substitution2: "Single Substitution lookup 101 subtable" ghasubscriptaltknda
Substitution2: "Single Substitution lookup 100 subtable" ngasubscriptaltknda
Substitution2: "Single Substitution lookup 99 subtable" casubscriptaltknda
Substitution2: "Single Substitution lookup 98 subtable" chasubscriptaltknda
Substitution2: "Single Substitution lookup 97 subtable" jasubscriptaltknda
Substitution2: "Single Substitution lookup 96 subtable" jhasubscriptaltknda
Substitution2: "Single Substitution lookup 95 subtable" nyasubscriptaltknda
Substitution2: "Single Substitution lookup 94 subtable" ttasubscriptaltknda
Substitution2: "Single Substitution lookup 93 subtable" tthasubscriptaltknda
Substitution2: "Single Substitution lookup 92 subtable" ddasubscriptaltknda
Substitution2: "Single Substitution lookup 91 subtable" ddhasubscriptaltknda
Substitution2: "Single Substitution lookup 90 subtable" nnasubscriptaltknda
Substitution2: "Single Substitution lookup 89 subtable" tasubscriptaltknda
Substitution2: "Single Substitution lookup 88 subtable" thasubscriptaltknda
Substitution2: "Single Substitution lookup 87 subtable" dasubscriptaltknda
Substitution2: "Single Substitution lookup 86 subtable" dhasubscriptaltknda
Substitution2: "Single Substitution lookup 85 subtable" nasubscriptaltknda
Substitution2: "Single Substitution lookup 84 subtable" pasubscriptaltknda
Substitution2: "Single Substitution lookup 83 subtable" phasubscriptaltknda
Substitution2: "Single Substitution lookup 82 subtable" basubscriptaltknda
Substitution2: "Single Substitution lookup 81 subtable" bhasubscriptaltknda
Substitution2: "Single Substitution lookup 80 subtable" masubscriptaltknda
Substitution2: "Single Substitution lookup 79 subtable" yasubscriptaltknda
Substitution2: "Single Substitution lookup 78 subtable" rasubscriptaltknda
Substitution2: "Single Substitution lookup 77 subtable" rrasubscriptaltknda
Substitution2: "Single Substitution lookup 76 subtable" lasubscriptaltknda
Substitution2: "Single Substitution lookup 75 subtable" llasubscriptaltknda
Substitution2: "Single Substitution lookup 74 subtable" vasubscriptaltknda
Substitution2: "Single Substitution lookup 73 subtable" shasubscriptaltknda
Substitution2: "Single Substitution lookup 72 subtable" ssasubscriptaltknda
Substitution2: "Single Substitution lookup 71 subtable" sasubscriptaltknda
Substitution2: "Single Substitution lookup 70 subtable" hasubscriptaltknda
Substitution2: "Single Substitution lookup 69 subtable" fasubscriptaltknda
Substitution2: "Single Substitution lookup 68 subtable" karasubscriptaltknda
Substitution2: "Single Substitution lookup 67 subtable" garasubscriptaltknda
Substitution2: "Single Substitution lookup 66 subtable" ttarasubscriptaltknda
Substitution2: "Single Substitution lookup 65 subtable" ddarasubscriptaltknda
Substitution2: "Single Substitution lookup 64 subtable" tarasubscriptaltknda
Substitution2: "Single Substitution lookup 63 subtable" darasubscriptaltknda
Substitution2: "Single Substitution lookup 62 subtable" parasubscriptaltknda
Substitution2: "Single Substitution lookup 61 subtable" bharasubscriptaltknda
Substitution2: "Single Substitution lookup 60 subtable" tayasubscriptaltknda
Substitution2: "Single Substitution lookup 59 subtable" mayasubscriptaltknda
Substitution2: "Single Substitution lookup 58 subtable" rvocalicvowelsignknda
Substitution2: "Single Substitution lookup 57 subtable" rrvocalicvowelsignknda
Substitution2: "Single Substitution lookup 56 subtable" viramaknda
Substitution2: "Single Substitution lookup 55 subtable" lengthmarkknda
Substitution2: "Single Substitution lookup 54 subtable" ailengthmarkknda
Substitution2: "Single Substitution lookup 53 subtable" lvocalicvowelsignknda
Substitution2: "Single Substitution lookup 52 subtable" llvocalicvowelsignknda
Substitution2: "Single Substitution lookup 51 subtable" tasubscriptrvocalicknda
Substitution2: "Single Substitution lookup 50 subtable" masubscriptrvocalicknda
Substitution2: "Single Substitution lookup 49 subtable" tasubscriptlengthmarkknda
Substitution2: "Single Substitution lookup 48 subtable" masubscriptlengthmarkknda
Substitution2: "Single Substitution lookup 47 subtable" rasubscriptlengthmarkknda
Substitution2: "Single Substitution lookup 46 subtable" rvocalicvowelsignaltknda
Substitution2: "Single Substitution lookup 45 subtable" rrvocalicvowelsignaltknda
Substitution2: "Single Substitution lookup 44 subtable" ailengthmarkaltknda
Substitution2: "Single Substitution lookup 43 subtable" lvocalicvowelsignaltknda
Substitution2: "Single Substitution lookup 42 subtable" llvocalicvowelsignaltknda
Substitution2: "Single Substitution lookup 41 subtable" tasubscriptrvocalicaltknda
Substitution2: "Single Substitution lookup 40 subtable" masubscriptrvocalicaltknda
Substitution2: "Single Substitution lookup 39 subtable" tasubscriptlengthmarkaltknda
Substitution2: "Single Substitution lookup 38 subtable" masubscriptlengthmarkaltknda
Substitution2: "Single Substitution lookup 37 subtable" rasubscriptlengthmarkaltknda
Substitution2: "Single Substitution lookup 36 subtable" rephknda
Substitution2: "Single Substitution lookup 35 subtable" anusvaraknda
Substitution2: "Single Substitution lookup 34 subtable" visargaknda
Substitution2: "Single Substitution lookup 23 subtable" uni1CF2
AlternateSubs2: "'aalt' Access All Alternates lookup 1 subtable" anusvaraknda visargaknda rvocalicvowelsignknda rrvocalicvowelsignknda viramaknda lengthmarkknda ailengthmarkknda lvocalicvowelsignknda llvocalicvowelsignknda rephknda kasubscriptknda khasubscriptknda gasubscriptknda ghasubscriptknda ngasubscriptknda casubscriptknda chasubscriptknda jasubscriptknda jhasubscriptknda nyasubscriptknda ttasubscriptknda tthasubscriptknda ddasubscriptknda ddhasubscriptknda nnasubscriptknda tasubscriptknda thasubscriptknda dasubscriptknda dhasubscriptknda nasubscriptknda pasubscriptknda phasubscriptknda basubscriptknda bhasubscriptknda masubscriptknda yasubscriptknda rasubscriptknda rrasubscriptknda lasubscriptknda llasubscriptknda vasubscriptknda shasubscriptknda ssasubscriptknda sasubscriptknda hasubscriptknda fasubscriptknda karasubscriptknda garasubscriptknda ttarasubscriptknda ddarasubscriptknda tarasubscriptknda darasubscriptknda parasubscriptknda bharasubscriptknda tayasubscriptknda mayasubscriptknda tasubscriptrvocalicknda masubscriptrvocalicknda tasubscriptlengthmarkknda masubscriptlengthmarkknda rasubscriptlengthmarkknda kasubscriptaltknda khasubscriptaltknda gasubscriptaltknda ghasubscriptaltknda ngasubscriptaltknda casubscriptaltknda chasubscriptaltknda jasubscriptaltknda jhasubscriptaltknda nyasubscriptaltknda ttasubscriptaltknda tthasubscriptaltknda ddasubscriptaltknda ddhasubscriptaltknda nnasubscriptaltknda tasubscriptaltknda thasubscriptaltknda dasubscriptaltknda dhasubscriptaltknda nasubscriptaltknda pasubscriptaltknda phasubscriptaltknda basubscriptaltknda bhasubscriptaltknda masubscriptaltknda yasubscriptaltknda rasubscriptaltknda rrasubscriptaltknda lasubscriptaltknda llasubscriptaltknda vasubscriptaltknda shasubscriptaltknda ssasubscriptaltknda sasubscriptaltknda hasubscriptaltknda fasubscriptaltknda rvocalicvowelsignaltknda rrvocalicvowelsignaltknda ailengthmarkaltknda lvocalicvowelsignaltknda llvocalicvowelsignaltknda karasubscriptaltknda garasubscriptaltknda ttarasubscriptaltknda ddarasubscriptaltknda tarasubscriptaltknda darasubscriptaltknda parasubscriptaltknda bharasubscriptaltknda tayasubscriptaltknda mayasubscriptaltknda tasubscriptrvocalicaltknda masubscriptrvocalicaltknda tasubscriptlengthmarkaltknda masubscriptlengthmarkaltknda rasubscriptlengthmarkaltknda uni1CF2
Position2: "Single Positioning lookup 1 subtable" dx=0 dy=235 dh=0 dv=0
EndChar

StartChar: anusvaraknda
Encoding: 3202 3202 6
Width: 550
Flags: W
LayerCount: 2
Fore
SplineSet
271 -12 m 0,0,1
 200 -12 200 -12 147.5 18 c 128,-1,2
 95 48 95 48 66 105 c 128,-1,3
 37 162 37 162 37 243 c 0,4,5
 37 319 37 319 65.5 377 c 128,-1,6
 94 435 94 435 147.5 467.5 c 128,-1,7
 201 500 201 500 276 500 c 0,8,9
 358 500 358 500 410 466 c 128,-1,10
 462 432 462 432 487.5 374.5 c 128,-1,11
 513 317 513 317 513 244 c 0,12,13
 513 170 513 170 485 112 c 128,-1,14
 457 54 457 54 403.5 21 c 128,-1,15
 350 -12 350 -12 271 -12 c 0,0,1
273 63 m 0,16,17
 356 63 356 63 393.5 114 c 128,-1,18
 431 165 431 165 431 243 c 0,19,20
 431 327 431 327 391 376 c 128,-1,21
 351 425 351 425 277 425 c 0,22,23
 221 425 221 425 186 401.5 c 128,-1,24
 151 378 151 378 135 337.5 c 128,-1,25
 119 297 119 297 119 246 c 0,26,27
 119 161 119 161 159.5 112 c 128,-1,28
 200 63 200 63 273 63 c 0,16,17
EndSplineSet
Substitution2: "Single Substitution lookup 33 subtable" candrabinduknda
Substitution2: "Single Substitution lookup 32 subtable" uni0951
Substitution2: "Single Substitution lookup 31 subtable" uni0952
Substitution2: "Single Substitution lookup 30 subtable" uni1CDA
Substitution2: "Single Substitution lookup 29 subtable" candrabindu_0951knda
Substitution2: "Single Substitution lookup 28 subtable" candrabindu_0952knda
Substitution2: "Single Substitution lookup 27 subtable" candrabindu_1CDAknda
Substitution2: "Single Substitution lookup 26 subtable" uni1CD0
Substitution2: "Single Substitution lookup 25 subtable" uni1CD2
Substitution2: "Single Substitution lookup 24 subtable" uni1CF4
Substitution2: "Single Substitution lookup 14 subtable" rephknda
AlternateSubs2: "'aalt' Access All Alternates lookup 1 subtable" candrabinduknda rephknda uni0951 uni0952 uni1CD0 uni1CD2 uni1CDA uni1CF4 candrabindu_0951knda candrabindu_0952knda candrabindu_1CDAknda
EndChar

StartChar: visargaknda
Encoding: 3203 3203 7
Width: 305
GlyphClass: 4
Flags: W
LayerCount: 2
Fore
SplineSet
33 383 m 0,0,1
 33 433 33 433 66 466.5 c 128,-1,2
 99 500 99 500 152 500 c 0,3,4
 207 500 207 500 239.5 466.5 c 128,-1,5
 272 433 272 433 272 383 c 0,6,7
 272 334 272 334 240 300.5 c 128,-1,8
 208 267 208 267 152 267 c 0,9,10
 98 267 98 267 65.5 300.5 c 128,-1,11
 33 334 33 334 33 383 c 0,0,1
97 384 m 256,12,13
 97 361 97 361 111 345 c 128,-1,14
 125 329 125 329 152 329 c 0,15,16
 180 329 180 329 194 345 c 128,-1,17
 208 361 208 361 208 384 c 256,18,19
 208 407 208 407 193.5 422.5 c 128,-1,20
 179 438 179 438 152 438 c 0,21,22
 126 438 126 438 111.5 422.5 c 128,-1,23
 97 407 97 407 97 384 c 256,12,13
33 105 m 0,24,25
 33 155 33 155 66 188.5 c 128,-1,26
 99 222 99 222 152 222 c 0,27,28
 207 222 207 222 239.5 188.5 c 128,-1,29
 272 155 272 155 272 105 c 256,30,31
 272 55 272 55 240 21.5 c 128,-1,32
 208 -12 208 -12 152 -12 c 0,33,34
 98 -12 98 -12 65.5 22 c 128,-1,35
 33 56 33 56 33 105 c 0,24,25
97 105 m 256,36,37
 97 82 97 82 111 66 c 128,-1,38
 125 50 125 50 152 50 c 0,39,40
 180 50 180 50 194 66 c 128,-1,41
 208 82 208 82 208 105 c 256,42,43
 208 128 208 128 193.5 144 c 128,-1,44
 179 160 179 160 152 160 c 0,45,46
 126 160 126 160 111.5 144 c 128,-1,47
 97 128 97 128 97 105 c 256,36,37
EndSplineSet
Substitution2: "Single Substitution lookup 33 subtable" candrabinduknda
Substitution2: "Single Substitution lookup 32 subtable" uni0951
Substitution2: "Single Substitution lookup 31 subtable" uni0952
Substitution2: "Single Substitution lookup 30 subtable" uni1CDA
Substitution2: "Single Substitution lookup 29 subtable" candrabindu_0951knda
Substitution2: "Single Substitution lookup 28 subtable" candrabindu_0952knda
Substitution2: "Single Substitution lookup 27 subtable" candrabindu_1CDAknda
Substitution2: "Single Substitution lookup 26 subtable" uni1CD0
Substitution2: "Single Substitution lookup 25 subtable" uni1CD2
Substitution2: "Single Substitution lookup 24 subtable" uni1CF4
Substitution2: "Single Substitution lookup 14 subtable" rephknda
AlternateSubs2: "'aalt' Access All Alternates lookup 1 subtable" candrabinduknda rephknda uni0951 uni0952 uni1CD0 uni1CD2 uni1CDA uni1CF4 candrabindu_0951knda candrabindu_0952knda candrabindu_1CDAknda
EndChar

StartChar: uni0C84
Encoding: 3204 3204 8
Width: 1044
Flags: W
LayerCount: 2
Fore
SplineSet
140 539 m 1,0,1
 131 497 131 497 127.5 457.5 c 128,-1,2
 124 418 124 418 124 374 c 0,3,4
 124 227 124 227 172 123 c 128,-1,5
 220 19 220 19 311 -35.5 c 128,-1,6
 402 -90 402 -90 532 -90 c 0,7,8
 655 -90 655 -90 741 -44.5 c 128,-1,9
 827 1 827 1 872 88 c 128,-1,10
 917 175 917 175 917 298 c 0,11,12
 917 410 917 410 880 491.5 c 128,-1,13
 843 573 843 573 774 617 c 128,-1,14
 705 661 705 661 609 661 c 0,15,16
 533 661 533 661 470 632 c 128,-1,17
 407 603 407 603 369 541.5 c 128,-1,18
 331 480 331 480 331 383 c 0,19,20
 331 275 331 275 385 216 c 128,-1,21
 439 157 439 157 532 157 c 0,22,23
 623 157 623 157 670.5 198.5 c 128,-1,24
 718 240 718 240 718 318 c 0,25,26
 718 383 718 383 688 419.5 c 128,-1,27
 658 456 658 456 601 456 c 0,28,29
 559 456 559 456 535.5 437.5 c 128,-1,30
 512 419 512 419 512 384 c 0,31,32
 512 356 512 356 526 340.5 c 128,-1,33
 540 325 540 325 565 325 c 0,34,35
 586 325 586 325 598.5 329.5 c 128,-1,36
 611 334 611 334 624 344 c 1,37,-1
 661 285 l 1,38,39
 648 273 648 273 622 263.5 c 128,-1,40
 596 254 596 254 562 254 c 0,41,42
 524 254 524 254 495 270.5 c 128,-1,43
 466 287 466 287 450 316 c 128,-1,44
 434 345 434 345 434 384 c 0,45,46
 434 420 434 420 453.5 452 c 128,-1,47
 473 484 473 484 511 504 c 128,-1,48
 549 524 549 524 604 524 c 0,49,50
 661 524 661 524 705 497.5 c 128,-1,51
 749 471 749 471 773.5 424.5 c 128,-1,52
 798 378 798 378 798 318 c 0,53,54
 798 245 798 245 765.5 193.5 c 128,-1,55
 733 142 733 142 673 115 c 128,-1,56
 613 88 613 88 532 88 c 0,57,58
 446 88 446 88 383 124 c 128,-1,59
 320 160 320 160 285.5 226.5 c 128,-1,60
 251 293 251 293 251 384 c 0,61,62
 251 488 251 488 296 566.5 c 128,-1,63
 341 645 341 645 422 688.5 c 128,-1,64
 503 732 503 732 609 732 c 0,65,66
 689 732 689 732 759.5 705 c 128,-1,67
 830 678 830 678 884 624 c 128,-1,68
 938 570 938 570 969 488.5 c 128,-1,69
 1000 407 1000 407 1000 298 c 0,70,71
 1000 142 1000 142 939 39.5 c 128,-1,72
 878 -63 878 -63 772 -113.5 c 128,-1,73
 666 -164 666 -164 530 -164 c 0,74,75
 417 -164 417 -164 327 -128 c 128,-1,76
 237 -92 237 -92 174 -23 c 128,-1,77
 111 46 111 46 77.5 145 c 128,-1,78
 44 244 44 244 44 369 c 0,79,80
 44 411 44 411 48.5 454.5 c 128,-1,81
 53 498 53 498 61 543 c 1,82,-1
 140 539 l 1,0,1
EndSplineSet
EndChar

StartChar: aknda
Encoding: 3205 3205 9
Width: 863
GlyphClass: 2
Flags: W
AnchorPoint: "Anchor-0" 431 -24 basechar 0
LayerCount: 2
Fore
SplineSet
421 69 m 0,0,1
 530 69 530 69 601.5 96 c 128,-1,2
 673 123 673 123 708.5 180.5 c 128,-1,3
 744 238 744 238 744 328 c 0,4,5
 744 373 744 373 732 409.5 c 128,-1,6
 720 446 720 446 696 467.5 c 128,-1,7
 672 489 672 489 635 489 c 0,8,9
 612 489 612 489 591.5 472.5 c 128,-1,10
 571 456 571 456 571 419 c 0,11,12
 571 394 571 394 585 373.5 c 128,-1,13
 599 353 599 353 623.5 337.5 c 128,-1,14
 648 322 648 322 679 312 c 1,15,-1
 679 241 l 1,16,-1
 373 241 l 1,17,-1
 373 317 l 1,18,-1
 552 317 l 1,19,20
 534 332 534 332 521 350 c 128,-1,21
 508 368 508 368 500.5 389.5 c 128,-1,22
 493 411 493 411 493 438 c 0,23,24
 493 469 493 469 508.5 497.5 c 128,-1,25
 524 526 524 526 555.5 544.5 c 128,-1,26
 587 563 587 563 634 563 c 0,27,28
 695 563 695 563 738 533 c 128,-1,29
 781 503 781 503 803.5 450.5 c 128,-1,30
 826 398 826 398 826 330 c 0,31,32
 826 210 826 210 778 134.5 c 128,-1,33
 730 59 730 59 639.5 23.5 c 128,-1,34
 549 -12 549 -12 423 -12 c 0,35,36
 295 -12 295 -12 209 29.5 c 128,-1,37
 123 71 123 71 80 144 c 128,-1,38
 37 217 37 217 37 311 c 0,39,40
 37 392 37 392 64 448 c 128,-1,41
 91 504 91 504 137.5 533.5 c 128,-1,42
 184 563 184 563 242 563 c 0,43,44
 286 563 286 563 318 547 c 128,-1,45
 350 531 350 531 367.5 501 c 128,-1,46
 385 471 385 471 385 429 c 0,47,48
 385 386 385 386 365.5 352 c 128,-1,49
 346 318 346 318 307.5 298 c 128,-1,50
 269 278 269 278 212 278 c 0,51,52
 176 278 176 278 147 289 c 128,-1,53
 118 300 118 300 97.5 316 c 128,-1,54
 77 332 77 332 63 348 c 1,55,-1
 87 414 l 1,56,57
 96 402 96 402 112 386.5 c 128,-1,58
 128 371 128 371 151.5 359.5 c 128,-1,59
 175 348 175 348 206 348 c 0,60,61
 259 348 259 348 283 370 c 128,-1,62
 307 392 307 392 307 426 c 0,63,64
 307 458 307 458 289 475.5 c 128,-1,65
 271 493 271 493 242 493 c 0,66,67
 183 493 183 493 150 446.5 c 128,-1,68
 117 400 117 400 117 315 c 2,69,-1
 117 311 l 2,70,71
 117 265 117 265 134 221.5 c 128,-1,72
 151 178 151 178 187 143.5 c 128,-1,73
 223 109 223 109 281 89 c 128,-1,74
 339 69 339 69 421 69 c 0,0,1
EndSplineSet
EndChar

StartChar: aaknda
Encoding: 3206 3206 10
Width: 841
GlyphClass: 2
Flags: W
AnchorPoint: "Anchor-0" 419 -24 basechar 0
LayerCount: 2
Fore
SplineSet
435 -12 m 0,0,1
 302 -12 302 -12 213.5 29.5 c 128,-1,2
 125 71 125 71 81 144 c 128,-1,3
 37 217 37 217 37 311 c 0,4,5
 37 392 37 392 64 448 c 128,-1,6
 91 504 91 504 137.5 533.5 c 128,-1,7
 184 563 184 563 242 563 c 0,8,9
 286 563 286 563 318 547 c 128,-1,10
 350 531 350 531 367.5 501 c 128,-1,11
 385 471 385 471 385 429 c 0,12,13
 385 386 385 386 365.5 352 c 128,-1,14
 346 318 346 318 307.5 298 c 128,-1,15
 269 278 269 278 212 278 c 0,16,17
 176 278 176 278 147 289 c 128,-1,18
 118 300 118 300 97.5 316 c 128,-1,19
 77 332 77 332 63 348 c 1,20,-1
 87 414 l 1,21,22
 96 402 96 402 112 386.5 c 128,-1,23
 128 371 128 371 151.5 359.5 c 128,-1,24
 175 348 175 348 206 348 c 0,25,26
 259 348 259 348 283 370 c 128,-1,27
 307 392 307 392 307 426 c 0,28,29
 307 458 307 458 289 475.5 c 128,-1,30
 271 493 271 493 242 493 c 0,31,32
 183 493 183 493 150 446.5 c 128,-1,33
 117 400 117 400 117 315 c 2,34,-1
 117 311 l 2,35,36
 117 265 117 265 134 221.5 c 128,-1,37
 151 178 151 178 189 143.5 c 128,-1,38
 227 109 227 109 289 89 c 128,-1,39
 351 69 351 69 441 69 c 0,40,41
 535 69 535 69 593.5 87 c 128,-1,42
 652 105 652 105 679.5 135.5 c 128,-1,43
 707 166 707 166 707 203 c 0,44,45
 707 232 707 232 692 248.5 c 128,-1,46
 677 265 677 265 649 275 c 0,47,48
 645 277 645 277 640 284 c 128,-1,49
 635 291 635 291 630 292 c 0,50,51
 569 316 569 316 531 349.5 c 128,-1,52
 493 383 493 383 493 441 c 256,53,54
 493 499 493 499 536.5 531 c 128,-1,55
 580 563 580 563 647 563 c 0,56,57
 705 563 705 563 741 542.5 c 128,-1,58
 777 522 777 522 794 490 c 128,-1,59
 811 458 811 458 811 421 c 0,60,61
 811 375 811 375 786.5 340.5 c 128,-1,62
 762 306 762 306 727 283 c 0,63,64
 695 261 695 261 656 251 c 128,-1,65
 617 241 617 241 551 241 c 2,66,-1
 349 241 l 1,67,-1
 349 317 l 1,68,-1
 626 317 l 1,69,70
 651 321 651 321 674.5 335 c 128,-1,71
 698 349 698 349 714 371.5 c 128,-1,72
 730 394 730 394 730 421 c 0,73,74
 730 451 730 451 709 472.5 c 128,-1,75
 688 494 688 494 646 494 c 0,76,77
 611 494 611 494 591.5 476.5 c 128,-1,78
 572 459 572 459 572 432 c 0,79,80
 572 400 572 400 597.5 378.5 c 128,-1,81
 623 357 623 357 669 337 c 0,82,83
 683 331 683 331 700 324.5 c 128,-1,84
 717 318 717 318 730 308 c 0,85,86
 756 290 756 290 772 262.5 c 128,-1,87
 788 235 788 235 788 196 c 256,88,89
 788 157 788 157 771.5 120 c 128,-1,90
 755 83 755 83 715 53 c 128,-1,91
 675 23 675 23 607 5.5 c 128,-1,92
 539 -12 539 -12 435 -12 c 0,0,1
EndSplineSet
EndChar

StartChar: iknda
Encoding: 3207 3207 11
Width: 711
GlyphClass: 2
Flags: W
AnchorPoint: "Anchor-0" 354 -24 basechar 0
LayerCount: 2
Fore
SplineSet
321 -12 m 0,0,1
 255 -12 255 -12 212.5 7.5 c 128,-1,2
 170 27 170 27 149.5 61.5 c 128,-1,3
 129 96 129 96 129 140 c 0,4,5
 129 205 129 205 177.5 243.5 c 128,-1,6
 226 282 226 282 315 282 c 0,7,8
 373 282 373 282 420 265.5 c 128,-1,9
 467 249 467 249 505.5 218.5 c 128,-1,10
 544 188 544 188 574 145 c 0,11,12
 605 104 605 104 624 57.5 c 128,-1,13
 643 11 643 11 653 -39 c 1,14,-1
 570 -55 l 1,15,16
 556 20 556 20 523.5 80 c 128,-1,17
 491 140 491 140 439.5 174.5 c 128,-1,18
 388 209 388 209 315 209 c 0,19,20
 264 209 264 209 237 191 c 128,-1,21
 210 173 210 173 210 141 c 0,22,23
 210 105 210 105 237.5 84 c 128,-1,24
 265 63 265 63 326 63 c 0,25,26
 400 63 400 63 450.5 84 c 128,-1,27
 501 105 501 105 532.5 141.5 c 128,-1,28
 564 178 564 178 578 225 c 128,-1,29
 592 272 592 272 592 324 c 0,30,31
 592 408 592 408 562 446 c 128,-1,32
 532 484 532 484 480 484 c 0,33,34
 436 484 436 484 408 452.5 c 128,-1,35
 380 421 380 421 373 368 c 1,36,-1
 294 368 l 1,37,38
 287 425 287 425 257.5 454.5 c 128,-1,39
 228 484 228 484 186 484 c 0,40,41
 146 484 146 484 127 464.5 c 128,-1,42
 108 445 108 445 108 413 c 0,43,44
 108 394 108 394 113.5 374.5 c 128,-1,45
 119 355 119 355 125 343 c 1,46,-1
 49 319 l 1,47,48
 40 338 40 338 33 362.5 c 128,-1,49
 26 387 26 387 26 419 c 0,50,51
 26 463 26 463 47 495.5 c 128,-1,52
 68 528 68 528 103 545.5 c 128,-1,53
 138 563 138 563 180 563 c 0,54,55
 220 563 220 563 250 551.5 c 128,-1,56
 280 540 280 540 304 514 c 128,-1,57
 328 488 328 488 349 446 c 1,58,-1
 318 441 l 1,59,60
 340 492 340 492 368 518 c 128,-1,61
 396 544 396 544 427 553.5 c 128,-1,62
 458 563 458 563 488 563 c 0,63,64
 555 563 555 563 596 528 c 128,-1,65
 637 493 637 493 655.5 438 c 128,-1,66
 674 383 674 383 674 324 c 0,67,68
 674 286 674 286 665 243.5 c 128,-1,69
 656 201 656 201 635.5 160 c 128,-1,70
 615 119 615 119 580 84 c 1,71,-1
 559 69 l 2,72,73
 518 35 518 35 459.5 11.5 c 128,-1,74
 401 -12 401 -12 321 -12 c 0,0,1
EndSplineSet
EndChar

StartChar: iiknda
Encoding: 3208 3208 12
Width: 1010
GlyphClass: 2
Flags: W
AnchorPoint: "Anchor-0" 355 -24 basechar 0
LayerCount: 2
Fore
SplineSet
356 -12 m 0,0,1
 275 -12 275 -12 210.5 19 c 128,-1,2
 146 50 146 50 108.5 110 c 128,-1,3
 71 170 71 170 71 255 c 0,4,5
 71 311 71 311 86.5 355.5 c 128,-1,6
 102 400 102 400 130 433 c 128,-1,7
 158 466 158 466 197 488 c 1,8,-1
 215 474 l 1,9,-1
 71 474 l 1,10,-1
 71 551 l 1,11,-1
 427 551 l 2,12,13
 481 551 481 551 503 556 c 128,-1,14
 525 561 525 561 536 569 c 0,15,16
 549 579 549 579 553.5 591.5 c 128,-1,17
 558 604 558 604 558 618 c 0,18,19
 558 651 558 651 542 682.5 c 128,-1,20
 526 714 526 714 493 747 c 1,21,-1
 558 790 l 1,22,23
 605 738 605 738 622 696.5 c 128,-1,24
 639 655 639 655 639 612 c 0,25,26
 639 593 639 593 631 565 c 128,-1,27
 623 537 623 537 598 516 c 0,28,29
 585 504 585 504 567 494.5 c 128,-1,30
 549 485 549 485 525 480 c 1,31,-1
 520 488 l 1,32,33
 558 464 558 464 584.5 431.5 c 128,-1,34
 611 399 611 399 625 356 c 128,-1,35
 639 313 639 313 639 255 c 0,36,37
 639 178 639 178 605 117.5 c 128,-1,38
 571 57 571 57 508 22.5 c 128,-1,39
 445 -12 445 -12 356 -12 c 0,0,1
356 67 m 0,40,41
 425 67 425 67 470 94.5 c 128,-1,42
 515 122 515 122 537 168 c 128,-1,43
 559 214 559 214 559 270 c 0,44,45
 559 278 559 278 558.5 287.5 c 128,-1,46
 558 297 558 297 557 304 c 0,47,48
 549 359 549 359 521.5 397.5 c 128,-1,49
 494 436 494 436 452 456 c 128,-1,50
 410 476 410 476 357 476 c 0,51,52
 300 476 300 476 256.5 455 c 128,-1,53
 213 434 213 434 186.5 395 c 128,-1,54
 160 356 160 356 153 302 c 0,55,56
 152 295 152 295 151.5 286.5 c 128,-1,57
 151 278 151 278 151 270 c 0,58,59
 151 173 151 173 207 120 c 128,-1,60
 263 67 263 67 356 67 c 0,40,41
802 78 m 1,61,62
 846 80 846 80 865.5 95.5 c 128,-1,63
 885 111 885 111 885 133 c 0,64,65
 885 162 885 162 869 186 c 128,-1,66
 853 210 853 210 812 250 c 2,67,-1
 779 283 l 2,68,69
 755 309 755 309 736 341 c 128,-1,70
 717 373 717 373 717 409 c 0,71,72
 717 438 717 438 731 464.5 c 128,-1,73
 745 491 745 491 775 507.5 c 128,-1,74
 805 524 805 524 853 524 c 0,75,76
 920 524 920 524 955.5 487 c 128,-1,77
 991 450 991 450 991 397 c 0,78,79
 991 348 991 348 970.5 317.5 c 128,-1,80
 950 287 950 287 915.5 270.5 c 128,-1,81
 881 254 881 254 836.5 248 c 128,-1,82
 792 242 792 242 744 242 c 2,83,-1
 20 242 l 1,84,-1
 20 312 l 1,85,-1
 769 312 l 2,86,87
 805 312 805 312 839 317.5 c 128,-1,88
 873 323 873 323 894.5 341 c 128,-1,89
 916 359 916 359 916 394 c 0,90,91
 916 424 916 424 898.5 440 c 128,-1,92
 881 456 881 456 853 456 c 256,93,94
 825 456 825 456 808 441 c 128,-1,95
 791 426 791 426 791 400 c 0,96,97
 791 371 791 371 811 346 c 128,-1,98
 831 321 831 321 853 301 c 2,99,-1
 867 289 l 1,100,101
 919 237 919 237 941.5 199.5 c 128,-1,102
 964 162 964 162 964 118 c 0,103,104
 964 88 964 88 949.5 62.5 c 128,-1,105
 935 37 935 37 901 20.5 c 128,-1,106
 867 4 867 4 810 0 c 1,107,-1
 802 78 l 1,61,62
EndSplineSet
EndChar

StartChar: uknda
Encoding: 3209 3209 13
Width: 1222
GlyphClass: 2
Flags: W
AnchorPoint: "Anchor-0" 611 -24 basechar 0
LayerCount: 2
Fore
SplineSet
966 -12 m 0,0,1
 914 -12 914 -12 871 3 c 128,-1,2
 828 18 828 18 801 47 c 0,3,4
 781 69 781 69 768 95.5 c 128,-1,5
 755 122 755 122 748.5 161.5 c 128,-1,6
 742 201 742 201 742 261 c 2,7,-1
 742 336 l 2,8,9
 742 384 742 384 735 414 c 128,-1,10
 728 444 728 444 713 460 c 0,11,12
 702 473 702 473 685.5 479.5 c 128,-1,13
 669 486 669 486 647 486 c 0,14,15
 611 486 611 486 589.5 472 c 128,-1,16
 568 458 568 458 558.5 432 c 128,-1,17
 549 406 549 406 549 371 c 0,18,19
 549 335 549 335 551.5 310.5 c 128,-1,20
 554 286 554 286 556.5 263 c 128,-1,21
 559 240 559 240 559 209 c 0,22,23
 559 138 559 138 529 88.5 c 128,-1,24
 499 39 499 39 444.5 13.5 c 128,-1,25
 390 -12 390 -12 316 -12 c 0,26,27
 228 -12 228 -12 165.5 29 c 128,-1,28
 103 70 103 70 70 142.5 c 128,-1,29
 37 215 37 215 37 311 c 0,30,31
 37 391 37 391 64 447.5 c 128,-1,32
 91 504 91 504 137.5 533.5 c 128,-1,33
 184 563 184 563 242 563 c 0,34,35
 286 563 286 563 318 547 c 128,-1,36
 350 531 350 531 367.5 501 c 128,-1,37
 385 471 385 471 385 429 c 0,38,39
 385 386 385 386 365.5 352 c 128,-1,40
 346 318 346 318 307.5 298 c 128,-1,41
 269 278 269 278 212 278 c 0,42,43
 176 278 176 278 147 289 c 128,-1,44
 118 300 118 300 97.5 316 c 128,-1,45
 77 332 77 332 63 348 c 1,46,-1
 87 414 l 1,47,48
 96 402 96 402 112 386.5 c 128,-1,49
 128 371 128 371 151.5 359.5 c 128,-1,50
 175 348 175 348 206 348 c 0,51,52
 259 348 259 348 283 370 c 128,-1,53
 307 392 307 392 307 426 c 0,54,55
 307 458 307 458 289 475.5 c 128,-1,56
 271 493 271 493 242 493 c 0,57,58
 183 493 183 493 149 446 c 128,-1,59
 115 399 115 399 115 315 c 2,60,-1
 115 311 l 2,61,62
 115 261 115 261 126.5 217 c 128,-1,63
 138 173 138 173 162 139 c 128,-1,64
 186 105 186 105 225 86 c 128,-1,65
 264 67 264 67 318 67 c 0,66,67
 381 67 381 67 415.5 88 c 128,-1,68
 450 109 450 109 463.5 143 c 128,-1,69
 477 177 477 177 477 216 c 0,70,71
 477 247 477 247 474.5 273 c 128,-1,72
 472 299 472 299 469.5 324 c 128,-1,73
 467 349 467 349 467 375 c 0,74,75
 467 435 467 435 489 477 c 128,-1,76
 511 519 511 519 552 541 c 128,-1,77
 593 563 593 563 650 563 c 0,78,79
 687 563 687 563 715 553.5 c 128,-1,80
 743 544 743 544 765 524 c 0,81,82
 785 507 785 507 797.5 483 c 128,-1,83
 810 459 810 459 816.5 423.5 c 128,-1,84
 823 388 823 388 823 336 c 2,85,-1
 823 254 l 2,86,87
 823 192 823 192 834 157 c 128,-1,88
 845 122 845 122 867 100 c 0,89,90
 884 84 884 84 908.5 75.5 c 128,-1,91
 933 67 933 67 966 67 c 0,92,93
 1009 67 1009 67 1039.5 83.5 c 128,-1,94
 1070 100 1070 100 1086.5 134.5 c 128,-1,95
 1103 169 1103 169 1103 222 c 0,96,97
 1103 279 1103 279 1085.5 327.5 c 128,-1,98
 1068 376 1068 376 1032.5 418.5 c 128,-1,99
 997 461 997 461 944 498 c 1,100,-1
 1001 565 l 1,101,102
 1065 516 1065 516 1105.5 462.5 c 128,-1,103
 1146 409 1146 409 1165.5 349.5 c 128,-1,104
 1185 290 1185 290 1185 221 c 0,105,106
 1185 149 1185 149 1159 96.5 c 128,-1,107
 1133 44 1133 44 1084 16 c 128,-1,108
 1035 -12 1035 -12 966 -12 c 0,0,1
EndSplineSet
EndChar

StartChar: uuknda
Encoding: 3210 3210 14
Width: 1597
GlyphClass: 2
Flags: W
AnchorPoint: "Anchor-0" 798 -24 basechar 0
LayerCount: 2
Fore
SplineSet
924 -12 m 0,0,1
 884 -12 884 -12 851.5 -0.5 c 128,-1,2
 819 11 819 11 793 39 c 0,3,4
 770 64 770 64 756 101.5 c 128,-1,5
 742 139 742 139 742 204 c 2,6,-1
 742 336 l 2,7,8
 742 384 742 384 735 414 c 128,-1,9
 728 444 728 444 713 460 c 0,10,11
 702 473 702 473 685.5 479.5 c 128,-1,12
 669 486 669 486 647 486 c 0,13,14
 611 486 611 486 589.5 472 c 128,-1,15
 568 458 568 458 558.5 432 c 128,-1,16
 549 406 549 406 549 371 c 0,17,18
 549 335 549 335 551.5 310.5 c 128,-1,19
 554 286 554 286 556.5 263 c 128,-1,20
 559 240 559 240 559 209 c 0,21,22
 559 138 559 138 529 88.5 c 128,-1,23
 499 39 499 39 444.5 13.5 c 128,-1,24
 390 -12 390 -12 316 -12 c 0,25,26
 228 -12 228 -12 165.5 29 c 128,-1,27
 103 70 103 70 70 142.5 c 128,-1,28
 37 215 37 215 37 311 c 0,29,30
 37 391 37 391 64 447.5 c 128,-1,31
 91 504 91 504 137.5 533.5 c 128,-1,32
 184 563 184 563 242 563 c 0,33,34
 286 563 286 563 318 547 c 128,-1,35
 350 531 350 531 367.5 501 c 128,-1,36
 385 471 385 471 385 429 c 0,37,38
 385 386 385 386 365.5 352 c 128,-1,39
 346 318 346 318 307.5 298 c 128,-1,40
 269 278 269 278 212 278 c 0,41,42
 176 278 176 278 147 289 c 128,-1,43
 118 300 118 300 97.5 316 c 128,-1,44
 77 332 77 332 63 348 c 1,45,-1
 87 414 l 1,46,47
 96 402 96 402 112 386.5 c 128,-1,48
 128 371 128 371 151.5 359.5 c 128,-1,49
 175 348 175 348 206 348 c 0,50,51
 259 348 259 348 283 370 c 128,-1,52
 307 392 307 392 307 426 c 0,53,54
 307 458 307 458 289 475.5 c 128,-1,55
 271 493 271 493 242 493 c 0,56,57
 183 493 183 493 149 446 c 128,-1,58
 115 399 115 399 115 315 c 2,59,-1
 115 311 l 2,60,61
 115 261 115 261 126.5 217 c 128,-1,62
 138 173 138 173 162 139 c 128,-1,63
 186 105 186 105 225 86 c 128,-1,64
 264 67 264 67 318 67 c 0,65,66
 381 67 381 67 415.5 88 c 128,-1,67
 450 109 450 109 463.5 143 c 128,-1,68
 477 177 477 177 477 216 c 0,69,70
 477 247 477 247 474.5 273 c 128,-1,71
 472 299 472 299 469.5 324 c 128,-1,72
 467 349 467 349 467 375 c 0,73,74
 467 435 467 435 489 477 c 128,-1,75
 511 519 511 519 552 541 c 128,-1,76
 593 563 593 563 650 563 c 0,77,78
 687 563 687 563 715 553.5 c 128,-1,79
 743 544 743 544 765 524 c 0,80,81
 785 507 785 507 797.5 483 c 128,-1,82
 810 459 810 459 816.5 423.5 c 128,-1,83
 823 388 823 388 823 336 c 2,84,-1
 823 220 l 2,85,86
 823 153 823 153 834 125.5 c 128,-1,87
 845 98 845 98 862 84 c 0,88,89
 874 74 874 74 890.5 69.5 c 128,-1,90
 907 65 907 65 927 65 c 0,91,92
 974 65 974 65 999 94 c 128,-1,93
 1024 123 1024 123 1024 190 c 0,94,95
 1024 212 1024 212 1022.5 236 c 128,-1,96
 1021 260 1021 260 1019 283.5 c 128,-1,97
 1017 307 1017 307 1017 324 c 0,98,99
 1017 399 1017 399 1049.5 452.5 c 128,-1,100
 1082 506 1082 506 1139 534.5 c 128,-1,101
 1196 563 1196 563 1269 563 c 0,102,103
 1343 563 1343 563 1397.5 537.5 c 128,-1,104
 1452 512 1452 512 1487.5 467.5 c 128,-1,105
 1523 423 1523 423 1541 364 c 128,-1,106
 1559 305 1559 305 1559 238 c 0,107,108
 1559 162 1559 162 1534.5 105.5 c 128,-1,109
 1510 49 1510 49 1463 18.5 c 128,-1,110
 1416 -12 1416 -12 1348 -12 c 0,111,112
 1292 -12 1292 -12 1253.5 9.5 c 128,-1,113
 1215 31 1215 31 1195.5 67.5 c 128,-1,114
 1176 104 1176 104 1176 148 c 256,115,116
 1176 192 1176 192 1191 221 c 128,-1,117
 1206 250 1206 250 1231.5 264.5 c 128,-1,118
 1257 279 1257 279 1287 279 c 0,119,120
 1324 279 1324 279 1343.5 260.5 c 128,-1,121
 1363 242 1363 242 1363 212 c 0,122,123
 1363 184 1363 184 1347.5 167 c 128,-1,124
 1332 150 1332 150 1308 150 c 0,125,126
 1281 150 1281 150 1266.5 165 c 128,-1,127
 1252 180 1252 180 1252 210 c 1,128,-1
 1260 212 l 1,129,130
 1253 197 1253 197 1250.5 184 c 128,-1,131
 1248 171 1248 171 1248 155 c 0,132,133
 1248 119 1248 119 1270.5 90.5 c 128,-1,134
 1293 62 1293 62 1348 62 c 0,135,136
 1388 62 1388 62 1417 82.5 c 128,-1,137
 1446 103 1446 103 1461.5 142 c 128,-1,138
 1477 181 1477 181 1477 236 c 0,139,140
 1477 302 1477 302 1455 358.5 c 128,-1,141
 1433 415 1433 415 1387.5 450 c 128,-1,142
 1342 485 1342 485 1270 485 c 0,143,144
 1217 485 1217 485 1178.5 465 c 128,-1,145
 1140 445 1140 445 1119.5 407 c 128,-1,146
 1099 369 1099 369 1099 314 c 0,147,148
 1099 290 1099 290 1101 268.5 c 128,-1,149
 1103 247 1103 247 1104.5 226 c 128,-1,150
 1106 205 1106 205 1106 180 c 0,151,152
 1106 92 1106 92 1061 40 c 128,-1,153
 1016 -12 1016 -12 924 -12 c 0,0,1
EndSplineSet
EndChar

StartChar: rvocalicknda
Encoding: 3211 3211 15
Width: 1191
GlyphClass: 2
Flags: W
AnchorPoint: "Anchor-0" 596 -24 basechar 0
LayerCount: 2
Fore
SplineSet
187 -12 m 0,0,1
 114 -12 114 -12 72.5 26.5 c 128,-1,2
 31 65 31 65 31 120 c 0,3,4
 31 162 31 162 50.5 190.5 c 128,-1,5
 70 219 70 219 102.5 234 c 128,-1,6
 135 249 135 249 174 249 c 0,7,8
 232 249 232 249 266.5 215.5 c 128,-1,9
 301 182 301 182 301 126 c 0,10,11
 301 99 301 99 292 74 c 128,-1,12
 283 49 283 49 269 28 c 1,13,-1
 205 39 l 1,14,15
 220 58 220 58 229 77.5 c 128,-1,16
 238 97 238 97 238 117 c 0,17,18
 238 151 238 151 219.5 165.5 c 128,-1,19
 201 180 201 180 175 180 c 0,20,21
 139 180 139 180 123 163.5 c 128,-1,22
 107 147 107 147 107 119 c 0,23,24
 107 92 107 92 126.5 74 c 128,-1,25
 146 56 146 56 183 56 c 0,26,27
 203 56 203 56 219.5 58.5 c 128,-1,28
 236 61 236 61 250 65 c 0,29,30
 254 67 254 67 257.5 66 c 128,-1,31
 261 65 261 65 264 66 c 0,32,33
 299 80 299 80 319 111.5 c 128,-1,34
 339 143 339 143 347.5 185 c 128,-1,35
 356 227 356 227 356 272 c 0,36,37
 356 303 356 303 350.5 332.5 c 128,-1,38
 345 362 345 362 334 389 c 128,-1,39
 323 416 323 416 307 437.5 c 128,-1,40
 291 459 291 459 270 474 c 0,41,42
 266 477 266 477 261.5 477 c 128,-1,43
 257 477 257 477 252 479 c 0,44,45
 236 487 236 487 218 491.5 c 128,-1,46
 200 496 200 496 179 496 c 0,47,48
 142 496 142 496 122.5 478 c 128,-1,49
 103 460 103 460 103 433 c 0,50,51
 103 405 103 405 119 388.5 c 128,-1,52
 135 372 135 372 166 372 c 0,53,54
 196 372 196 372 215 386.5 c 128,-1,55
 234 401 234 401 234 435 c 0,56,57
 234 459 234 459 224.5 479.5 c 128,-1,58
 215 500 215 500 201 513 c 1,59,-1
 265 524 l 1,60,61
 279 504 279 504 288 478.5 c 128,-1,62
 297 453 297 453 297 425 c 0,63,64
 297 370 297 370 261 336.5 c 128,-1,65
 225 303 225 303 164 303 c 0,66,67
 128 303 128 303 97 318 c 128,-1,68
 66 333 66 333 46.5 362 c 128,-1,69
 27 391 27 391 27 432 c 0,70,71
 27 469 27 469 46 498.5 c 128,-1,72
 65 528 65 528 100 545.5 c 128,-1,73
 135 563 135 563 183 563 c 0,74,75
 251 563 251 563 299 535 c 128,-1,76
 347 507 347 507 377.5 463.5 c 128,-1,77
 408 420 408 420 422.5 370.5 c 128,-1,78
 437 321 437 321 437 277 c 0,79,80
 437 224 437 224 425 172.5 c 128,-1,81
 413 121 413 121 384.5 79.5 c 128,-1,82
 356 38 356 38 307.5 13 c 128,-1,83
 259 -12 259 -12 187 -12 c 0,0,1
577 -12 m 0,84,85
 500 -12 500 -12 443.5 26.5 c 128,-1,86
 387 65 387 65 341 123 c 1,87,-1
 393 177 l 1,88,89
 435 124 435 124 478.5 95.5 c 128,-1,90
 522 67 522 67 578 67 c 0,91,92
 640 67 640 67 673 106 c 128,-1,93
 706 145 706 145 706 210 c 0,94,95
 706 276 706 276 680.5 329.5 c 128,-1,96
 655 383 655 383 608.5 421 c 128,-1,97
 562 459 562 459 500 477 c 1,98,-1
 638 481 l 1,99,100
 685 451 685 451 718.5 412.5 c 128,-1,101
 752 374 752 374 770 325 c 128,-1,102
 788 276 788 276 788 215 c 0,103,104
 788 175 788 175 777.5 134.5 c 128,-1,105
 767 94 767 94 742.5 61 c 128,-1,106
 718 28 718 28 677.5 8 c 128,-1,107
 637 -12 637 -12 577 -12 c 0,84,85
455 474 m 1,108,-1
 455 551 l 1,109,-1
 567 551 l 2,110,111
 621 551 621 551 643 556 c 128,-1,112
 665 561 665 561 676 569 c 0,113,114
 689 579 689 579 693.5 591.5 c 128,-1,115
 698 604 698 604 698 618 c 0,116,117
 698 651 698 651 682 682.5 c 128,-1,118
 666 714 666 714 633 747 c 1,119,-1
 698 790 l 1,120,121
 745 738 745 738 762 696.5 c 128,-1,122
 779 655 779 655 779 612 c 0,123,124
 779 593 779 593 771 565.5 c 128,-1,125
 763 538 763 538 738 516 c 0,126,127
 712 494 712 494 677.5 484 c 128,-1,128
 643 474 643 474 585 474 c 2,129,-1
 455 474 l 1,108,-1
943 -12 m 0,130,131
 867 -12 867 -12 810.5 26.5 c 128,-1,132
 754 65 754 65 708 123 c 1,133,-1
 760 177 l 1,134,135
 802 124 802 124 845.5 95.5 c 128,-1,136
 889 67 889 67 947 67 c 0,137,138
 1006 67 1006 67 1039 106 c 128,-1,139
 1072 145 1072 145 1072 210 c 0,140,141
 1072 280 1072 280 1047.5 333 c 128,-1,142
 1023 386 1023 386 979 424.5 c 128,-1,143
 935 463 935 463 876 488 c 1,144,-1
 919 565 l 1,145,146
 987 532 987 532 1040 482 c 128,-1,147
 1093 432 1093 432 1123.5 365 c 128,-1,148
 1154 298 1154 298 1154 215 c 0,149,150
 1154 150 1154 150 1131 98.5 c 128,-1,151
 1108 47 1108 47 1061.5 17.5 c 128,-1,152
 1015 -12 1015 -12 943 -12 c 0,130,131
EndSplineSet
EndChar

StartChar: lvocalicknda
Encoding: 3212 3212 16
Width: 706
GlyphClass: 2
Flags: W
AnchorPoint: "Anchor-0" 353 -24 basechar 0
LayerCount: 2
Fore
SplineSet
695 37 m 1,0,1
 659 13 659 13 617 -1.5 c 128,-1,2
 575 -16 575 -16 523 -16 c 0,3,4
 476 -16 476 -16 436.5 -2 c 128,-1,5
 397 12 397 12 374 43 c 128,-1,6
 351 74 351 74 351 125 c 0,7,8
 351 160 351 160 366.5 187.5 c 128,-1,9
 382 215 382 215 410.5 239.5 c 128,-1,10
 439 264 439 264 479 291 c 0,11,12
 514 315 514 315 534 332.5 c 128,-1,13
 554 350 554 350 563 368 c 128,-1,14
 572 386 572 386 572 411 c 0,15,16
 572 444 572 444 550 464 c 128,-1,17
 528 484 528 484 490 484 c 0,18,19
 441 484 441 484 410.5 452 c 128,-1,20
 380 420 380 420 373 368 c 1,21,-1
 294 368 l 1,22,23
 287 425 287 425 257.5 454.5 c 128,-1,24
 228 484 228 484 186 484 c 0,25,26
 146 484 146 484 127 464.5 c 128,-1,27
 108 445 108 445 108 413 c 0,28,29
 108 394 108 394 113.5 374.5 c 128,-1,30
 119 355 119 355 125 343 c 1,31,-1
 49 319 l 1,32,33
 40 338 40 338 33 362.5 c 128,-1,34
 26 387 26 387 26 419 c 0,35,36
 26 463 26 463 47 495.5 c 128,-1,37
 68 528 68 528 103 545.5 c 128,-1,38
 138 563 138 563 180 563 c 0,39,40
 220 563 220 563 250 551.5 c 128,-1,41
 280 540 280 540 304 514 c 128,-1,42
 328 488 328 488 349 446 c 1,43,-1
 318 441 l 1,44,45
 341 489 341 489 369 515.5 c 128,-1,46
 397 542 397 542 429.5 552.5 c 128,-1,47
 462 563 462 563 496 563 c 0,48,49
 546 563 546 563 581 542 c 128,-1,50
 616 521 616 521 635 486 c 128,-1,51
 654 451 654 451 654 410 c 0,52,53
 654 370 654 370 638.5 339 c 128,-1,54
 623 308 623 308 594 282 c 128,-1,55
 565 256 565 256 526 230 c 0,56,57
 496 210 496 210 475.5 194 c 128,-1,58
 455 178 455 178 444 162 c 128,-1,59
 433 146 433 146 433 126 c 0,60,61
 433 99 433 99 446 85.5 c 128,-1,62
 459 72 459 72 479 67.5 c 128,-1,63
 499 63 499 63 520 63 c 0,64,65
 558 63 558 63 592 75.5 c 128,-1,66
 626 88 626 88 654 107 c 1,67,-1
 695 37 l 1,0,1
EndSplineSet
EndChar

StartChar: eknda
Encoding: 3214 3214 17
Width: 787
GlyphClass: 2
Flags: W
AnchorPoint: "Anchor-0" 394 -24 basechar 0
LayerCount: 2
Fore
SplineSet
575 -12 m 0,0,1
 524 -12 524 -12 492 1 c 128,-1,2
 460 14 460 14 438 39.5 c 128,-1,3
 416 65 416 65 394 101 c 1,4,-1
 425 105 l 1,5,6
 399 57 399 57 369.5 32 c 128,-1,7
 340 7 340 7 304.5 -2.5 c 128,-1,8
 269 -12 269 -12 224 -12 c 0,9,10
 168 -12 168 -12 123.5 10 c 128,-1,11
 79 32 79 32 54 72 c 128,-1,12
 29 112 29 112 29 167 c 0,13,14
 29 211 29 211 47 246.5 c 128,-1,15
 65 282 65 282 99 303 c 128,-1,16
 133 324 133 324 181 324 c 0,17,18
 234 324 234 324 266 299 c 128,-1,19
 298 274 298 274 298 231 c 0,20,21
 298 215 298 215 295 199 c 128,-1,22
 292 183 292 183 285 172 c 1,23,-1
 217 178 l 1,24,25
 219 186 219 186 221 194.5 c 128,-1,26
 223 203 223 203 223 210 c 0,27,28
 223 232 223 232 211 243 c 128,-1,29
 199 254 199 254 178 254 c 0,30,31
 147 254 147 254 126.5 232.5 c 128,-1,32
 106 211 106 211 106 170 c 0,33,34
 106 125 106 125 137 96 c 128,-1,35
 168 67 168 67 232 67 c 0,36,37
 301 67 301 67 333 102 c 128,-1,38
 365 137 365 137 370 195 c 1,39,-1
 446 195 l 1,40,41
 451 128 451 128 485.5 97.5 c 128,-1,42
 520 67 520 67 568 67 c 0,43,44
 622 67 622 67 645 105.5 c 128,-1,45
 668 144 668 144 668 206 c 0,46,47
 668 279 668 279 635 334 c 128,-1,48
 602 389 602 389 542.5 426 c 128,-1,49
 483 463 483 463 404.5 481.5 c 128,-1,50
 326 500 326 500 234 500 c 1,51,-1
 244 583 l 1,52,53
 347 581 347 581 428.5 561.5 c 128,-1,54
 510 542 510 542 570.5 507 c 128,-1,55
 631 472 631 472 671 425.5 c 128,-1,56
 711 379 711 379 730.5 323.5 c 128,-1,57
 750 268 750 268 750 207 c 0,58,59
 750 130 750 130 725.5 81.5 c 128,-1,60
 701 33 701 33 661 10.5 c 128,-1,61
 621 -12 621 -12 575 -12 c 0,0,1
EndSplineSet
EndChar

StartChar: eeknda
Encoding: 3215 3215 18
Width: 787
GlyphClass: 2
Flags: W
AnchorPoint: "Anchor-0" 394 -24 basechar 0
LayerCount: 2
Fore
SplineSet
575 -12 m 0,0,1
 524 -12 524 -12 492 1 c 128,-1,2
 460 14 460 14 438 39.5 c 128,-1,3
 416 65 416 65 394 101 c 1,4,-1
 425 105 l 1,5,6
 399 57 399 57 369.5 32 c 128,-1,7
 340 7 340 7 304.5 -2.5 c 128,-1,8
 269 -12 269 -12 224 -12 c 0,9,10
 168 -12 168 -12 123.5 10 c 128,-1,11
 79 32 79 32 54 72 c 128,-1,12
 29 112 29 112 29 167 c 0,13,14
 29 211 29 211 47 246.5 c 128,-1,15
 65 282 65 282 99 303 c 128,-1,16
 133 324 133 324 181 324 c 0,17,18
 234 324 234 324 266 299 c 128,-1,19
 298 274 298 274 298 231 c 0,20,21
 298 215 298 215 295 199 c 128,-1,22
 292 183 292 183 285 172 c 1,23,-1
 217 178 l 1,24,25
 219 186 219 186 221 194.5 c 128,-1,26
 223 203 223 203 223 210 c 0,27,28
 223 232 223 232 211 243 c 128,-1,29
 199 254 199 254 178 254 c 0,30,31
 147 254 147 254 126.5 232.5 c 128,-1,32
 106 211 106 211 106 170 c 0,33,34
 106 125 106 125 137 96 c 128,-1,35
 168 67 168 67 232 67 c 0,36,37
 301 67 301 67 333 102 c 128,-1,38
 365 137 365 137 370 195 c 1,39,-1
 446 195 l 1,40,41
 451 128 451 128 485.5 97.5 c 128,-1,42
 520 67 520 67 568 67 c 0,43,44
 622 67 622 67 645 105.5 c 128,-1,45
 668 144 668 144 668 206 c 0,46,47
 668 273 668 273 646.5 321 c 128,-1,48
 625 369 625 369 589.5 402 c 128,-1,49
 554 435 554 435 510 456.5 c 128,-1,50
 466 478 466 478 420 491 c 1,51,-1
 431 493 l 1,52,53
 405 434 405 434 362 408.5 c 128,-1,54
 319 383 319 383 267 383 c 0,55,56
 239 383 239 383 210 391.5 c 128,-1,57
 181 400 181 400 155.5 421.5 c 128,-1,58
 130 443 130 443 114.5 480.5 c 128,-1,59
 99 518 99 518 98 575 c 1,60,-1
 175 583 l 1,61,62
 180 510 180 510 203.5 484 c 128,-1,63
 227 458 227 458 267 458 c 0,64,65
 309 458 309 458 336 486.5 c 128,-1,66
 363 515 363 515 373 583 c 1,67,68
 480 566 480 566 552 528.5 c 128,-1,69
 624 491 624 491 668 439.5 c 128,-1,70
 712 388 712 388 731 328.5 c 128,-1,71
 750 269 750 269 750 207 c 0,72,73
 750 130 750 130 725.5 81.5 c 128,-1,74
 701 33 701 33 661 10.5 c 128,-1,75
 621 -12 621 -12 575 -12 c 0,0,1
EndSplineSet
EndChar

StartChar: aiknda
Encoding: 3216 3216 19
Width: 807
GlyphClass: 2
Flags: W
AnchorPoint: "Anchor-0" 403 -24 basechar 0
LayerCount: 2
Fore
SplineSet
574 -12 m 0,0,1
 527 -12 527 -12 495.5 1.5 c 128,-1,2
 464 15 464 15 442 40.5 c 128,-1,3
 420 66 420 66 398 102 c 1,4,-1
 430 105 l 1,5,6
 404 57 404 57 374.5 32 c 128,-1,7
 345 7 345 7 309.5 -2.5 c 128,-1,8
 274 -12 274 -12 229 -12 c 0,9,10
 173 -12 173 -12 128.5 10 c 128,-1,11
 84 32 84 32 59 72 c 128,-1,12
 34 112 34 112 34 167 c 0,13,14
 34 211 34 211 52 246.5 c 128,-1,15
 70 282 70 282 104 303 c 128,-1,16
 138 324 138 324 186 324 c 0,17,18
 239 324 239 324 271 299 c 128,-1,19
 303 274 303 274 303 231 c 0,20,21
 303 215 303 215 300 199 c 128,-1,22
 297 183 297 183 290 172 c 1,23,-1
 222 178 l 1,24,25
 224 184 224 184 226 193.5 c 128,-1,26
 228 203 228 203 228 210 c 0,27,28
 228 232 228 232 216 243 c 128,-1,29
 204 254 204 254 183 254 c 0,30,31
 152 254 152 254 131.5 232.5 c 128,-1,32
 111 211 111 211 111 170 c 0,33,34
 111 125 111 125 142 96 c 128,-1,35
 173 67 173 67 237 67 c 0,36,37
 306 67 306 67 338 102 c 128,-1,38
 370 137 370 137 375 195 c 1,39,-1
 451 195 l 1,40,41
 456 128 456 128 491 97.5 c 128,-1,42
 526 67 526 67 566 67 c 0,43,44
 630 67 630 67 656.5 114.5 c 128,-1,45
 683 162 683 162 683 251 c 0,46,47
 683 321 683 321 666.5 373.5 c 128,-1,48
 650 426 650 426 617.5 455 c 128,-1,49
 585 484 585 484 537 484 c 0,50,51
 502 484 502 484 477 468.5 c 128,-1,52
 452 453 452 453 437.5 428 c 128,-1,53
 423 403 423 403 417 372 c 1,54,-1
 339 372 l 1,55,56
 329 424 329 424 296.5 454 c 128,-1,57
 264 484 264 484 211 484 c 0,58,59
 166 484 166 484 148.5 466 c 128,-1,60
 131 448 131 448 131 421 c 0,61,62
 131 408 131 408 133 396.5 c 128,-1,63
 135 385 135 385 139 375 c 1,64,-1
 61 356 l 1,65,66
 56 370 56 370 52.5 387.5 c 128,-1,67
 49 405 49 405 49 425 c 0,68,69
 49 486 49 486 91.5 524.5 c 128,-1,70
 134 563 134 563 210 563 c 0,71,72
 248 563 248 563 279.5 552.5 c 128,-1,73
 311 542 311 542 337.5 520 c 128,-1,74
 364 498 364 498 385 464 c 1,75,-1
 376 463 l 1,76,77
 409 517 409 517 453 540 c 128,-1,78
 497 563 497 563 543 563 c 0,79,80
 607 563 607 563 657 527.5 c 128,-1,81
 707 492 707 492 736 423 c 128,-1,82
 765 354 765 354 765 252 c 0,83,84
 765 156 765 156 739 98 c 128,-1,85
 713 40 713 40 669.5 14 c 128,-1,86
 626 -12 626 -12 574 -12 c 0,0,1
EndSplineSet
EndChar

StartChar: oknda
Encoding: 3218 3218 20
Width: 775
GlyphClass: 2
Flags: W
AnchorPoint: "Anchor-0" 387 -24 basechar 0
LayerCount: 2
Fore
SplineSet
561 -12 m 0,0,1
 500 -12 500 -12 457.5 14.5 c 128,-1,2
 415 41 415 41 380 104 c 1,3,-1
 411 104 l 1,4,5
 388 59 388 59 360.5 34 c 128,-1,6
 333 9 333 9 298.5 -1.5 c 128,-1,7
 264 -12 264 -12 218 -12 c 0,8,9
 162 -12 162 -12 124 9.5 c 128,-1,10
 86 31 86 31 67.5 65 c 128,-1,11
 49 99 49 99 49 136 c 0,12,13
 49 179 49 179 65.5 210 c 128,-1,14
 82 241 82 241 113 267.5 c 128,-1,15
 144 294 144 294 187 321 c 0,16,17
 225 346 225 346 248 368 c 128,-1,18
 271 390 271 390 271 422 c 0,19,20
 271 443 271 443 263 458.5 c 128,-1,21
 255 474 255 474 237.5 482 c 128,-1,22
 220 490 220 490 190 490 c 0,23,24
 147 490 147 490 127 471.5 c 128,-1,25
 107 453 107 453 107 422 c 0,26,27
 107 406 107 406 112 391.5 c 128,-1,28
 117 377 117 377 127 363 c 1,29,-1
 57 332 l 1,30,31
 41 357 41 357 33.5 381.5 c 128,-1,32
 26 406 26 406 26 431 c 0,33,34
 26 466 26 466 44 496 c 128,-1,35
 62 526 62 526 98.5 544.5 c 128,-1,36
 135 563 135 563 191 563 c 0,37,38
 253 563 253 563 288 541.5 c 128,-1,39
 323 520 323 520 337.5 488 c 128,-1,40
 352 456 352 456 352 423 c 0,41,42
 352 387 352 387 336.5 358.5 c 128,-1,43
 321 330 321 330 292.5 305 c 128,-1,44
 264 280 264 280 224 254 c 0,45,46
 178 224 178 224 154.5 201 c 128,-1,47
 131 178 131 178 131 141 c 0,48,49
 131 102 131 102 157 84.5 c 128,-1,50
 183 67 183 67 223 67 c 0,51,52
 290 67 290 67 322 102 c 128,-1,53
 354 137 354 137 358 195 c 1,54,-1
 434 195 l 1,55,56
 439 128 439 128 475.5 97.5 c 128,-1,57
 512 67 512 67 561 67 c 0,58,59
 616 67 616 67 639.5 94.5 c 128,-1,60
 663 122 663 122 663 158 c 0,61,62
 663 189 663 189 651.5 216.5 c 128,-1,63
 640 244 640 244 620 267 c 1,64,-1
 691 313 l 1,65,66
 717 280 717 280 731 243 c 128,-1,67
 745 206 745 206 745 160 c 0,68,69
 745 109 745 109 725.5 70.5 c 128,-1,70
 706 32 706 32 665.5 10 c 128,-1,71
 625 -12 625 -12 561 -12 c 0,0,1
EndSplineSet
EndChar

StartChar: ooknda
Encoding: 3219 3219 21
Width: 775
GlyphClass: 2
Flags: W
AnchorPoint: "Anchor-0" 387 -24 basechar 0
LayerCount: 2
Fore
SplineSet
145 531 m 1,0,1
 109 558 109 558 87.5 589.5 c 128,-1,2
 66 621 66 621 66 658 c 0,3,4
 66 692 66 692 81.5 720 c 128,-1,5
 97 748 97 748 133 765.5 c 128,-1,6
 169 783 169 783 229 785 c 1,7,-1
 237 707 l 1,8,9
 188 706 188 706 166.5 691.5 c 128,-1,10
 145 677 145 677 145 649 c 0,11,12
 145 622 145 622 164.5 600 c 128,-1,13
 184 578 184 578 217 558 c 1,14,-1
 145 531 l 1,0,1
561 -12 m 0,15,16
 500 -12 500 -12 457.5 14.5 c 128,-1,17
 415 41 415 41 380 104 c 1,18,-1
 411 104 l 1,19,20
 388 59 388 59 360.5 34 c 128,-1,21
 333 9 333 9 298.5 -1.5 c 128,-1,22
 264 -12 264 -12 218 -12 c 0,23,24
 162 -12 162 -12 124 9.5 c 128,-1,25
 86 31 86 31 67.5 65 c 128,-1,26
 49 99 49 99 49 136 c 0,27,28
 49 179 49 179 65.5 210 c 128,-1,29
 82 241 82 241 113 267.5 c 128,-1,30
 144 294 144 294 187 321 c 0,31,32
 225 346 225 346 248 368 c 128,-1,33
 271 390 271 390 271 422 c 0,34,35
 271 443 271 443 263 458.5 c 128,-1,36
 255 474 255 474 237.5 482 c 128,-1,37
 220 490 220 490 190 490 c 0,38,39
 147 490 147 490 127 471.5 c 128,-1,40
 107 453 107 453 107 422 c 0,41,42
 107 406 107 406 112 391.5 c 128,-1,43
 117 377 117 377 127 363 c 1,44,-1
 57 332 l 1,45,46
 41 357 41 357 33.5 381.5 c 128,-1,47
 26 406 26 406 26 431 c 0,48,49
 26 466 26 466 44 496 c 128,-1,50
 62 526 62 526 98.5 544.5 c 128,-1,51
 135 563 135 563 191 563 c 0,52,53
 253 563 253 563 288 541.5 c 128,-1,54
 323 520 323 520 337.5 488 c 128,-1,55
 352 456 352 456 352 423 c 0,56,57
 352 387 352 387 336.5 358.5 c 128,-1,58
 321 330 321 330 292.5 305 c 128,-1,59
 264 280 264 280 224 254 c 0,60,61
 178 224 178 224 154.5 201 c 128,-1,62
 131 178 131 178 131 141 c 0,63,64
 131 102 131 102 157 84.5 c 128,-1,65
 183 67 183 67 223 67 c 0,66,67
 290 67 290 67 322 102 c 128,-1,68
 354 137 354 137 358 195 c 1,69,-1
 434 195 l 1,70,71
 439 128 439 128 475.5 97.5 c 128,-1,72
 512 67 512 67 561 67 c 0,73,74
 616 67 616 67 639.5 94.5 c 128,-1,75
 663 122 663 122 663 158 c 0,76,77
 663 189 663 189 651.5 216.5 c 128,-1,78
 640 244 640 244 620 267 c 1,79,-1
 691 313 l 1,80,81
 717 280 717 280 731 243 c 128,-1,82
 745 206 745 206 745 160 c 0,83,84
 745 109 745 109 725.5 70.5 c 128,-1,85
 706 32 706 32 665.5 10 c 128,-1,86
 625 -12 625 -12 561 -12 c 0,15,16
EndSplineSet
EndChar

StartChar: auknda
Encoding: 3220 3220 22
Width: 778
GlyphClass: 2
Flags: W
AnchorPoint: "Anchor-0" 386 -24 basechar 0
LayerCount: 2
Fore
SplineSet
561 -12 m 0,0,1
 500 -12 500 -12 457.5 14.5 c 128,-1,2
 415 41 415 41 380 104 c 1,3,-1
 411 104 l 1,4,5
 388 59 388 59 360.5 34 c 128,-1,6
 333 9 333 9 298.5 -1.5 c 128,-1,7
 264 -12 264 -12 218 -12 c 0,8,9
 162 -12 162 -12 124 9.5 c 128,-1,10
 86 31 86 31 67.5 65 c 128,-1,11
 49 99 49 99 49 136 c 0,12,13
 49 179 49 179 65.5 210 c 128,-1,14
 82 241 82 241 113 267.5 c 128,-1,15
 144 294 144 294 187 321 c 0,16,17
 225 346 225 346 248 368 c 128,-1,18
 271 390 271 390 271 422 c 0,19,20
 271 443 271 443 263 458.5 c 128,-1,21
 255 474 255 474 237.5 482 c 128,-1,22
 220 490 220 490 190 490 c 0,23,24
 147 490 147 490 127 471.5 c 128,-1,25
 107 453 107 453 107 422 c 0,26,27
 107 406 107 406 112 391.5 c 128,-1,28
 117 377 117 377 127 363 c 1,29,-1
 57 332 l 1,30,31
 41 357 41 357 33.5 381.5 c 128,-1,32
 26 406 26 406 26 431 c 0,33,34
 26 466 26 466 44 496 c 128,-1,35
 62 526 62 526 99 544.5 c 128,-1,36
 136 563 136 563 191 563 c 0,37,38
 251 563 251 563 286.5 541.5 c 128,-1,39
 322 520 322 520 337 488 c 128,-1,40
 352 456 352 456 352 423 c 0,41,42
 352 387 352 387 336.5 358.5 c 128,-1,43
 321 330 321 330 292.5 305 c 128,-1,44
 264 280 264 280 224 254 c 0,45,46
 178 224 178 224 154.5 201 c 128,-1,47
 131 178 131 178 131 141 c 0,48,49
 131 102 131 102 157 84.5 c 128,-1,50
 183 67 183 67 223 67 c 0,51,52
 290 67 290 67 322 102 c 128,-1,53
 354 137 354 137 358 195 c 1,54,-1
 434 195 l 1,55,56
 439 128 439 128 476 97.5 c 128,-1,57
 513 67 513 67 561 67 c 0,58,59
 616 67 616 67 639.5 94.5 c 128,-1,60
 663 122 663 122 663 158 c 0,61,62
 663 189 663 189 651.5 216.5 c 128,-1,63
 640 244 640 244 620 267 c 1,64,-1
 691 313 l 1,65,66
 717 280 717 280 731 243 c 128,-1,67
 745 206 745 206 745 160 c 0,68,69
 745 109 745 109 725.5 70.5 c 128,-1,70
 706 32 706 32 665.5 10 c 128,-1,71
 625 -12 625 -12 561 -12 c 0,0,1
72 498 m 1,72,-1
 72 563 l 1,73,-1
 166 563 l 2,74,75
 207 563 207 563 225.5 567.5 c 128,-1,76
 244 572 244 572 255 579 c 0,77,78
 268 588 268 588 272 600 c 128,-1,79
 276 612 276 612 276 625 c 0,80,81
 276 647 276 647 267 667.5 c 128,-1,82
 258 688 258 688 239 709 c 1,83,-1
 323 716 l 1,84,85
 337 698 337 698 347 675 c 128,-1,86
 357 652 357 652 357 621 c 0,87,88
 357 587 357 587 341 561 c 128,-1,89
 325 535 325 535 285 516 c 0,90,91
 265 506 265 506 237 502 c 128,-1,92
 209 498 209 498 168 498 c 2,93,-1
 72 498 l 1,72,-1
547 326 m 0,94,95
 498 326 498 326 464 346 c 128,-1,96
 430 366 430 366 411.5 400.5 c 128,-1,97
 393 435 393 435 393 476 c 0,98,99
 393 538 393 538 424 569 c 128,-1,100
 455 600 455 600 499 600 c 0,101,102
 535 600 535 600 554.5 582.5 c 128,-1,103
 574 565 574 565 574 535 c 0,104,105
 574 508 574 508 559.5 491.5 c 128,-1,106
 545 475 545 475 522 475 c 0,107,108
 494 475 494 475 480 489.5 c 128,-1,109
 466 504 466 504 466 530 c 1,110,-1
 474 540 l 1,111,112
 467 522 467 522 464 509.5 c 128,-1,113
 461 497 461 497 461 483 c 0,114,115
 461 460 461 460 469.5 440 c 128,-1,116
 478 420 478 420 496.5 408 c 128,-1,117
 515 396 515 396 546 396 c 0,118,119
 597 396 597 396 627 429 c 128,-1,120
 657 462 657 462 657 531 c 0,121,122
 657 572 657 572 644.5 603 c 128,-1,123
 632 634 632 634 608 656 c 0,124,125
 591 672 591 672 568.5 683 c 128,-1,126
 546 694 546 694 512 699.5 c 128,-1,127
 478 705 478 705 424 705 c 2,128,-1
 41 705 l 1,129,-1
 41 782 l 1,130,-1
 436 782 l 2,131,132
 497 782 497 782 541.5 773.5 c 128,-1,133
 586 765 586 765 618.5 749 c 128,-1,134
 651 733 651 733 675 708 c 0,135,136
 705 678 705 678 721.5 633.5 c 128,-1,137
 738 589 738 589 738 531 c 0,138,139
 738 467 738 467 714.5 421 c 128,-1,140
 691 375 691 375 648 350.5 c 128,-1,141
 605 326 605 326 547 326 c 0,94,95
EndSplineSet
EndChar

StartChar: kaknda
Encoding: 3221 3221 23
Width: 574
GlyphClass: 2
Flags: W
AnchorPoint: "Anchor-0" 287 -24 basechar 0
LayerCount: 2
Fore
SplineSet
283 -12 m 0,0,1
 213 -12 213 -12 162.5 11 c 128,-1,2
 112 34 112 34 85 75.5 c 128,-1,3
 58 117 58 117 58 172 c 0,4,5
 58 204 58 204 68.5 232 c 128,-1,6
 79 260 79 260 100 282.5 c 128,-1,7
 121 305 121 305 152 321 c 1,8,-1
 166 307 l 1,9,-1
 36 306 l 1,10,-1
 36 375 l 1,11,-1
 244 375 l 1,12,13
 255 383 255 383 262.5 395.5 c 128,-1,14
 270 408 270 408 270 424 c 0,15,16
 270 438 270 438 265.5 451 c 128,-1,17
 261 464 261 464 253 475 c 1,18,-1
 298 487 l 1,19,-1
 333 475 l 1,20,21
 341 462 341 462 345 448 c 128,-1,22
 349 434 349 434 349 423 c 0,23,24
 349 407 349 407 345.5 395.5 c 128,-1,25
 342 384 342 384 336 375 c 1,26,-1
 539 375 l 1,27,-1
 539 306 l 1,28,-1
 405 308 l 1,29,-1
 420 318 l 1,30,31
 449 307 449 307 470.5 286 c 128,-1,32
 492 265 492 265 504 236.5 c 128,-1,33
 516 208 516 208 516 174 c 0,34,35
 516 119 516 119 490 77 c 128,-1,36
 464 35 464 35 412.5 11.5 c 128,-1,37
 361 -12 361 -12 283 -12 c 0,0,1
287 66 m 0,38,39
 367 66 367 66 401.5 100.5 c 128,-1,40
 436 135 436 135 436 184 c 0,41,42
 436 221 436 221 419 248.5 c 128,-1,43
 402 276 402 276 369 291 c 128,-1,44
 336 306 336 306 287 306 c 0,45,46
 237 306 237 306 203.5 290.5 c 128,-1,47
 170 275 170 275 154 247.5 c 128,-1,48
 138 220 138 220 138 184 c 0,49,50
 138 131 138 131 175 98.5 c 128,-1,51
 212 66 212 66 287 66 c 0,38,39
36 474 m 1,52,-1
 36 551 l 1,53,-1
 334 551 l 2,54,55
 388 551 388 551 410 556 c 128,-1,56
 432 561 432 561 442 569 c 0,57,58
 455 579 455 579 459.5 591.5 c 128,-1,59
 464 604 464 604 464 618 c 0,60,61
 464 651 464 651 448 682.5 c 128,-1,62
 432 714 432 714 399 747 c 1,63,-1
 464 790 l 1,64,65
 511 738 511 738 528 696.5 c 128,-1,66
 545 655 545 655 545 612 c 0,67,68
 545 593 545 593 537.5 565.5 c 128,-1,69
 530 538 530 538 504 516 c 0,70,71
 479 494 479 494 444.5 484 c 128,-1,72
 410 474 410 474 352 474 c 2,73,-1
 36 474 l 1,52,-1
EndSplineSet
Substitution2: "Single Substitution lookup 20 subtable" kanocrestknda
Substitution2: "Single Substitution lookup 5 subtable" kasubscriptknda
AlternateSubs2: "'aalt' Access All Alternates lookup 1 subtable" kasubscriptknda kanocrestknda
EndChar

StartChar: khaknda
Encoding: 3222 3222 24
Width: 849
GlyphClass: 2
Flags: W
AnchorPoint: "Anchor-0" 424 -24 basechar 0
LayerCount: 2
Fore
SplineSet
594 -12 m 0,0,1
 548 -12 548 -12 508 4 c 128,-1,2
 468 20 468 20 434 43.5 c 128,-1,3
 400 67 400 67 371 91 c 0,4,5
 367 95 367 95 363 98 c 128,-1,6
 359 101 359 101 355 104 c 0,7,8
 315 136 315 136 274 161.5 c 128,-1,9
 233 187 233 187 180 187 c 0,10,11
 139 187 139 187 121.5 169 c 128,-1,12
 104 151 104 151 104 128 c 0,13,14
 104 104 104 104 122.5 83.5 c 128,-1,15
 141 63 141 63 190 63 c 0,16,17
 244 63 244 63 281.5 81.5 c 128,-1,18
 319 100 319 100 342 132.5 c 128,-1,19
 365 165 365 165 375.5 208 c 128,-1,20
 386 251 386 251 386 300 c 0,21,22
 386 360 386 360 369 402.5 c 128,-1,23
 352 445 352 445 321 468 c 128,-1,24
 290 491 290 491 248 491 c 0,25,26
 211 491 211 491 184.5 473.5 c 128,-1,27
 158 456 158 456 158 415 c 0,28,29
 158 404 158 404 162.5 388 c 128,-1,30
 167 372 167 372 182 364 c 1,31,-1
 160 354 l 1,32,33
 160 390 160 390 174.5 407 c 128,-1,34
 189 424 189 424 216 424 c 0,35,36
 239 424 239 424 254 408.5 c 128,-1,37
 269 393 269 393 269 365 c 256,38,39
 269 337 269 337 250 318.5 c 128,-1,40
 231 300 231 300 194 300 c 0,41,42
 150 300 150 300 118 329.5 c 128,-1,43
 86 359 86 359 86 416 c 0,44,45
 86 463 86 463 108 496 c 128,-1,46
 130 529 130 529 166.5 546 c 128,-1,47
 203 563 203 563 247 563 c 0,48,49
 321 563 321 563 370 528.5 c 128,-1,50
 419 494 419 494 443.5 435.5 c 128,-1,51
 468 377 468 377 468 305 c 0,52,53
 468 246 468 246 455 197 c 128,-1,54
 442 148 442 148 416 110 c 0,55,56
 376 47 376 47 317.5 17.5 c 128,-1,57
 259 -12 259 -12 189 -12 c 0,58,59
 114 -12 114 -12 69 24.5 c 128,-1,60
 24 61 24 61 24 130 c 0,61,62
 24 162 24 162 40.5 191 c 128,-1,63
 57 220 57 220 91.5 238.5 c 128,-1,64
 126 257 126 257 180 257 c 0,65,66
 223 257 223 257 258 246.5 c 128,-1,67
 293 236 293 236 323.5 218.5 c 128,-1,68
 354 201 354 201 381 180 c 2,69,-1
 400 166 l 2,70,71
 442 133 442 133 473.5 111 c 128,-1,72
 505 89 505 89 534 78 c 128,-1,73
 563 67 563 67 596 67 c 0,74,75
 662 67 662 67 696 112 c 128,-1,76
 730 157 730 157 730 234 c 256,77,78
 730 311 730 311 697 371.5 c 128,-1,79
 664 432 664 432 605.5 477 c 128,-1,80
 547 522 547 522 470 551 c 1,81,-1
 513 629 l 1,82,83
 600 593 600 593 667.5 537 c 128,-1,84
 735 481 735 481 773.5 405.5 c 128,-1,85
 812 330 812 330 812 235 c 0,86,87
 812 165 812 165 788.5 109 c 128,-1,88
 765 53 765 53 717 20.5 c 128,-1,89
 669 -12 669 -12 594 -12 c 0,0,1
EndSplineSet
Substitution2: "Single Substitution lookup 20 subtable" khanocrestknda
Substitution2: "Single Substitution lookup 5 subtable" khasubscriptknda
AlternateSubs2: "'aalt' Access All Alternates lookup 1 subtable" khasubscriptknda khanocrestknda
EndChar

StartChar: gaknda
Encoding: 3223 3223 25
Width: 648
GlyphClass: 2
Flags: W
AnchorPoint: "Anchor-0" 324 -24 basechar 0
LayerCount: 2
Fore
SplineSet
326 476 m 0,0,1
 282 476 282 476 251 455.5 c 128,-1,2
 220 435 220 435 199 401 c 128,-1,3
 178 367 178 367 164 324 c 0,4,5
 156 299 156 299 151 268 c 128,-1,6
 146 237 146 237 143.5 198 c 128,-1,7
 141 159 141 159 141 110 c 2,8,-1
 141 0 l 1,9,-1
 50 0 l 1,10,-1
 50 127 l 2,11,12
 50 206 50 206 62.5 276 c 128,-1,13
 75 346 75 346 107 401 c 128,-1,14
 139 456 139 456 198 489 c 1,15,-1
 215 474 l 1,16,-1
 47 474 l 1,17,-1
 47 551 l 1,18,-1
 386 551 l 2,19,20
 440 551 440 551 462 556 c 128,-1,21
 484 561 484 561 495 569 c 0,22,23
 508 579 508 579 512.5 591.5 c 128,-1,24
 517 604 517 604 517 618 c 0,25,26
 517 651 517 651 501 682.5 c 128,-1,27
 485 714 485 714 452 747 c 1,28,-1
 517 790 l 1,29,30
 564 738 564 738 581 696.5 c 128,-1,31
 598 655 598 655 598 612 c 0,32,33
 598 573 598 573 580 544 c 128,-1,34
 562 515 562 515 531.5 498 c 128,-1,35
 501 481 501 481 461 477 c 1,36,-1
 467 481 l 1,37,38
 524 439 524 439 552 383.5 c 128,-1,39
 580 328 580 328 589 263.5 c 128,-1,40
 598 199 598 199 598 130 c 2,41,-1
 598 0 l 1,42,-1
 507 0 l 1,43,-1
 507 110 l 2,44,45
 507 160 507 160 504 201.5 c 128,-1,46
 501 243 501 243 495.5 277 c 128,-1,47
 490 311 490 311 480 336 c 0,48,49
 456 401 456 401 420.5 438.5 c 128,-1,50
 385 476 385 476 326 476 c 0,0,1
EndSplineSet
Substitution2: "Single Substitution lookup 20 subtable" ganocrestknda
Substitution2: "'aalt' Access All Alternates lookup 0 subtable" ganocrestknda
EndChar

StartChar: ghaknda
Encoding: 3224 3224 26
Width: 996
GlyphClass: 2
Flags: W
AnchorPoint: "Anchor-0" 410 -24 basechar 0
LayerCount: 2
Fore
SplineSet
226 -12 m 0,0,1
 170 -12 170 -12 125.5 10 c 128,-1,2
 81 32 81 32 56 72 c 128,-1,3
 31 112 31 112 31 167 c 0,4,5
 31 211 31 211 49 246.5 c 128,-1,6
 67 282 67 282 101 303 c 128,-1,7
 135 324 135 324 183 324 c 0,8,9
 236 324 236 324 268 299 c 128,-1,10
 300 274 300 274 300 231 c 0,11,12
 300 215 300 215 297 199 c 128,-1,13
 294 183 294 183 287 172 c 1,14,-1
 219 178 l 1,15,16
 221 186 221 186 223 194.5 c 128,-1,17
 225 203 225 203 225 210 c 0,18,19
 225 232 225 232 213 243 c 128,-1,20
 201 254 201 254 180 254 c 0,21,22
 149 254 149 254 128.5 232.5 c 128,-1,23
 108 211 108 211 108 170 c 0,24,25
 108 125 108 125 139 96 c 128,-1,26
 170 67 170 67 234 67 c 0,27,28
 303 67 303 67 335 102 c 128,-1,29
 367 137 367 137 372 195 c 1,30,-1
 448 195 l 1,31,32
 453 128 453 128 487.5 97.5 c 128,-1,33
 522 67 522 67 570 67 c 0,34,35
 606 67 606 67 628 82 c 128,-1,36
 650 97 650 97 660 120.5 c 128,-1,37
 670 144 670 144 670 167 c 0,38,39
 670 213 670 213 651.5 252.5 c 128,-1,40
 633 292 633 292 591 334 c 1,41,-1
 661 381 l 1,42,-1
 653 327 l 1,43,44
 684 299 684 299 705.5 274.5 c 128,-1,45
 727 250 727 250 739 225 c 128,-1,46
 751 200 751 200 751 170 c 0,47,48
 751 112 751 112 726.5 71 c 128,-1,49
 702 30 702 30 662.5 9 c 128,-1,50
 623 -12 623 -12 577 -12 c 0,51,52
 526 -12 526 -12 494 1 c 128,-1,53
 462 14 462 14 440 39.5 c 128,-1,54
 418 65 418 65 396 101 c 1,55,-1
 427 105 l 1,56,57
 401 57 401 57 371.5 32 c 128,-1,58
 342 7 342 7 306.5 -2.5 c 128,-1,59
 271 -12 271 -12 226 -12 c 0,0,1
364 -144 m 1,60,-1
 372 15 l 1,61,-1
 449 15 l 1,62,-1
 457 -144 l 1,63,-1
 364 -144 l 1,60,-1
401 297 m 0,64,65
 377 297 377 297 360.5 314 c 128,-1,66
 344 331 344 331 344 355 c 0,67,68
 344 381 344 381 360.5 398 c 128,-1,69
 377 415 377 415 401 415 c 0,70,71
 426 415 426 415 443 398 c 128,-1,72
 460 381 460 381 460 355 c 0,73,74
 460 331 460 331 443 314 c 128,-1,75
 426 297 426 297 401 297 c 0,64,65
31 474 m 1,76,-1
 31 551 l 1,77,-1
 565 551 l 2,78,79
 619 551 619 551 641 556 c 128,-1,80
 663 561 663 561 674 569 c 0,81,82
 687 579 687 579 691.5 591.5 c 128,-1,83
 696 604 696 604 696 618 c 0,84,85
 696 651 696 651 680 682.5 c 128,-1,86
 664 714 664 714 631 747 c 1,87,-1
 696 790 l 1,88,89
 743 738 743 738 760 696.5 c 128,-1,90
 777 655 777 655 777 612 c 0,91,92
 777 593 777 593 769 565.5 c 128,-1,93
 761 538 761 538 736 516 c 0,94,95
 710 494 710 494 675.5 484 c 128,-1,96
 641 474 641 474 583 474 c 2,97,-1
 31 474 l 1,76,-1
817 206 m 0,98,99
 784 206 784 206 757.5 216.5 c 128,-1,100
 731 227 731 227 705 251 c 128,-1,101
 679 275 679 275 646 315 c 1,102,-1
 661 381 l 1,103,104
 687 346 687 346 708.5 322.5 c 128,-1,105
 730 299 730 299 753.5 287.5 c 128,-1,106
 777 276 777 276 809 276 c 0,107,108
 852 276 852 276 870 299 c 128,-1,109
 888 322 888 322 888 353 c 0,110,111
 888 398 888 398 864 435.5 c 128,-1,112
 840 473 840 473 799 501 c 1,113,-1
 853 564 l 1,114,115
 903 527 903 527 936 474 c 128,-1,116
 969 421 969 421 969 354 c 0,117,118
 969 302 969 302 947.5 269.5 c 128,-1,119
 926 237 926 237 891.5 221.5 c 128,-1,120
 857 206 857 206 817 206 c 0,98,99
EndSplineSet
Substitution2: "Single Substitution lookup 20 subtable" ghanocrestknda
Substitution2: "'aalt' Access All Alternates lookup 0 subtable" ghanocrestknda
EndChar

StartChar: ngaknda
Encoding: 3225 3225 27
Width: 775
GlyphClass: 2
Flags: W
AnchorPoint: "Anchor-0" 395 -24 basechar 0
LayerCount: 2
Fore
SplineSet
561 -12 m 0,0,1
 500 -12 500 -12 457.5 14.5 c 128,-1,2
 415 41 415 41 380 104 c 1,3,-1
 410 104 l 1,4,5
 387 59 387 59 360 34 c 128,-1,6
 333 9 333 9 298.5 -1.5 c 128,-1,7
 264 -12 264 -12 218 -12 c 0,8,9
 162 -12 162 -12 124 9.5 c 128,-1,10
 86 31 86 31 67.5 65 c 128,-1,11
 49 99 49 99 49 136 c 0,12,13
 49 179 49 179 65.5 210 c 128,-1,14
 82 241 82 241 113 267.5 c 128,-1,15
 144 294 144 294 187 321 c 0,16,17
 225 346 225 346 248 368 c 128,-1,18
 271 390 271 390 271 422 c 0,19,20
 271 443 271 443 263 458.5 c 128,-1,21
 255 474 255 474 237.5 482 c 128,-1,22
 220 490 220 490 190 490 c 0,23,24
 147 490 147 490 127 471.5 c 128,-1,25
 107 453 107 453 107 422 c 0,26,27
 107 406 107 406 112 391.5 c 128,-1,28
 117 377 117 377 127 363 c 1,29,-1
 57 332 l 1,30,31
 41 357 41 357 33.5 381.5 c 128,-1,32
 26 406 26 406 26 431 c 0,33,34
 26 466 26 466 44 496 c 128,-1,35
 62 526 62 526 98.5 544.5 c 128,-1,36
 135 563 135 563 191 563 c 0,37,38
 253 563 253 563 288 542 c 128,-1,39
 323 521 323 521 337 489 c 128,-1,40
 351 457 351 457 351 423 c 0,41,42
 351 387 351 387 336 358.5 c 128,-1,43
 321 330 321 330 292.5 305 c 128,-1,44
 264 280 264 280 224 254 c 0,45,46
 178 224 178 224 154.5 201 c 128,-1,47
 131 178 131 178 131 141 c 0,48,49
 131 102 131 102 157 84.5 c 128,-1,50
 183 67 183 67 223 67 c 0,51,52
 290 67 290 67 322 102 c 128,-1,53
 354 137 354 137 358 195 c 1,54,-1
 434 195 l 1,55,56
 439 128 439 128 475.5 97.5 c 128,-1,57
 512 67 512 67 561 67 c 0,58,59
 617 67 617 67 640 93.5 c 128,-1,60
 663 120 663 120 663 155 c 0,61,62
 663 184 663 184 651.5 209.5 c 128,-1,63
 640 235 640 235 620 257 c 1,64,-1
 691 303 l 1,65,66
 715 273 715 273 730 234 c 128,-1,67
 745 195 745 195 745 151 c 0,68,69
 745 104 745 104 725.5 67 c 128,-1,70
 706 30 706 30 665.5 9 c 128,-1,71
 625 -12 625 -12 561 -12 c 0,0,1
451 262 m 0,72,73
 426 262 426 262 409.5 279 c 128,-1,74
 393 296 393 296 393 320 c 0,75,76
 393 345 393 345 409.5 362.5 c 128,-1,77
 426 380 426 380 450 380 c 0,78,79
 475 380 475 380 492 362.5 c 128,-1,80
 509 345 509 345 509 320 c 0,81,82
 509 296 509 296 492 279 c 128,-1,83
 475 262 475 262 451 262 c 0,72,73
533 563 m 0,84,85
 589 563 589 563 627 544 c 128,-1,86
 665 525 665 525 684.5 492 c 128,-1,87
 704 459 704 459 704 417 c 0,88,89
 704 396 704 396 700.5 375.5 c 128,-1,90
 697 355 697 355 689 338 c 1,91,-1
 613 360 l 1,92,93
 618 372 618 372 620.5 385 c 128,-1,94
 623 398 623 398 623 411 c 0,95,96
 623 451 623 451 597 470 c 128,-1,97
 571 489 571 489 527 489 c 0,98,99
 473 489 473 489 419 454.5 c 128,-1,100
 365 420 365 420 321 354 c 1,101,-1
 288 392 l 1,102,-1
 298 447 l 1,103,104
 332 479 332 479 366 505 c 128,-1,105
 400 531 400 531 440.5 547 c 128,-1,106
 481 563 481 563 533 563 c 0,84,85
EndSplineSet
EndChar

StartChar: caknda
Encoding: 3226 3226 28
Width: 797
GlyphClass: 2
Flags: W
AnchorPoint: "Anchor-0" 395 -24 basechar 0
LayerCount: 2
Fore
SplineSet
561 -12 m 0,0,1
 520 -12 520 -12 487.5 -0.5 c 128,-1,2
 455 11 455 11 429 36.5 c 128,-1,3
 403 62 403 62 379 104 c 1,4,-1
 410 104 l 1,5,6
 387 59 387 59 360 34 c 128,-1,7
 333 9 333 9 298.5 -1.5 c 128,-1,8
 264 -12 264 -12 218 -12 c 0,9,10
 162 -12 162 -12 124 9.5 c 128,-1,11
 86 31 86 31 67.5 65 c 128,-1,12
 49 99 49 99 49 136 c 0,13,14
 49 179 49 179 65.5 210 c 128,-1,15
 82 241 82 241 113 267.5 c 128,-1,16
 144 294 144 294 187 321 c 0,17,18
 225 346 225 346 248 368 c 128,-1,19
 271 390 271 390 271 422 c 0,20,21
 271 443 271 443 263 458.5 c 128,-1,22
 255 474 255 474 237.5 482 c 128,-1,23
 220 490 220 490 190 490 c 0,24,25
 147 490 147 490 127 471.5 c 128,-1,26
 107 453 107 453 107 422 c 0,27,28
 107 406 107 406 112 391.5 c 128,-1,29
 117 377 117 377 127 363 c 1,30,-1
 57 332 l 1,31,32
 41 357 41 357 33.5 381.5 c 128,-1,33
 26 406 26 406 26 431 c 0,34,35
 26 466 26 466 44 496 c 128,-1,36
 62 526 62 526 98.5 544.5 c 128,-1,37
 135 563 135 563 191 563 c 0,38,39
 253 563 253 563 288 541.5 c 128,-1,40
 323 520 323 520 337.5 488 c 128,-1,41
 352 456 352 456 352 423 c 0,42,43
 352 387 352 387 336.5 358.5 c 128,-1,44
 321 330 321 330 292.5 305 c 128,-1,45
 264 280 264 280 224 254 c 0,46,47
 178 224 178 224 154.5 201 c 128,-1,48
 131 178 131 178 131 141 c 0,49,50
 131 102 131 102 157 84.5 c 128,-1,51
 183 67 183 67 223 67 c 0,52,53
 290 67 290 67 322 102 c 128,-1,54
 354 137 354 137 358 195 c 1,55,-1
 434 195 l 1,56,57
 439 128 439 128 475.5 97.5 c 128,-1,58
 512 67 512 67 561 67 c 0,59,60
 617 67 617 67 640 94 c 128,-1,61
 663 121 663 121 663 158 c 0,62,63
 663 192 663 192 649.5 221.5 c 128,-1,64
 636 251 636 251 610.5 275 c 128,-1,65
 585 299 585 299 548 314 c 1,66,-1
 603 352 l 1,67,68
 647 327 647 327 679 299 c 128,-1,69
 711 271 711 271 728 237.5 c 128,-1,70
 745 204 745 204 745 160 c 0,71,72
 745 109 745 109 725.5 70.5 c 128,-1,73
 706 32 706 32 665.5 10 c 128,-1,74
 625 -12 625 -12 561 -12 c 0,0,1
439 305 m 1,75,-1
 439 375 l 1,76,-1
 565 375 l 1,77,78
 577 383 577 383 584 395.5 c 128,-1,79
 591 408 591 408 591 424 c 0,80,81
 591 438 591 438 586 452 c 128,-1,82
 581 466 581 466 572 477 c 1,83,-1
 620 487 l 1,84,-1
 649 482 l 1,85,86
 660 469 660 469 665 452.5 c 128,-1,87
 670 436 670 436 670 423 c 0,88,89
 670 407 670 407 666 395.5 c 128,-1,90
 662 384 662 384 657 375 c 1,91,-1
 763 375 l 1,92,-1
 763 305 l 1,93,-1
 721 305 l 2,94,95
 701 305 701 305 680.5 306.5 c 128,-1,96
 660 308 660 308 640 310 c 1,97,-1
 619 306 l 1,98,-1
 439 305 l 1,75,-1
439 474 m 1,99,-1
 439 551 l 1,100,-1
 556 551 l 2,101,102
 609 551 609 551 631 556 c 128,-1,103
 653 561 653 561 664 569 c 0,104,105
 677 579 677 579 681.5 591.5 c 128,-1,106
 686 604 686 604 686 618 c 0,107,108
 686 651 686 651 670 682.5 c 128,-1,109
 654 714 654 714 621 747 c 1,110,-1
 686 790 l 1,111,112
 733 738 733 738 750 696.5 c 128,-1,113
 767 655 767 655 767 612 c 0,114,115
 767 593 767 593 759 565.5 c 128,-1,116
 751 538 751 538 726 516 c 0,117,118
 700 494 700 494 665.5 484 c 128,-1,119
 631 474 631 474 574 474 c 2,120,-1
 439 474 l 1,99,-1
EndSplineSet
Substitution2: "Single Substitution lookup 20 subtable" canocrestknda
Substitution2: "'aalt' Access All Alternates lookup 0 subtable" canocrestknda
EndChar

StartChar: chaknda
Encoding: 3227 3227 29
Width: 843
GlyphClass: 2
Flags: W
AnchorPoint: "Anchor-0" 434 -24 basechar 0
LayerCount: 2
Fore
SplineSet
252 -12 m 256,0,1
 206 -12 206 -12 167.5 5 c 128,-1,2
 129 22 129 22 101 55.5 c 128,-1,3
 73 89 73 89 57.5 139 c 128,-1,4
 42 189 42 189 42 255 c 0,5,6
 42 354 42 354 71.5 423 c 128,-1,7
 101 492 101 492 151.5 527.5 c 128,-1,8
 202 563 202 563 263 563 c 0,9,10
 329 563 329 563 367 527 c 128,-1,11
 405 491 405 491 405 429 c 0,12,13
 405 386 405 386 385.5 352 c 128,-1,14
 366 318 366 318 327.5 298 c 128,-1,15
 289 278 289 278 232 278 c 0,16,17
 177 278 177 278 139.5 301 c 128,-1,18
 102 324 102 324 82 348 c 1,19,-1
 106 414 l 1,20,21
 116 402 116 402 131.5 386.5 c 128,-1,22
 147 371 147 371 170.5 359.5 c 128,-1,23
 194 348 194 348 226 348 c 0,24,25
 279 348 279 348 303 370 c 128,-1,26
 327 392 327 392 327 426 c 0,27,28
 327 458 327 458 308.5 475.5 c 128,-1,29
 290 493 290 493 261 493 c 0,30,31
 230 493 230 493 198.5 471 c 128,-1,32
 167 449 167 449 145.5 396.5 c 128,-1,33
 124 344 124 344 124 252 c 0,34,35
 124 199 124 199 134.5 163.5 c 128,-1,36
 145 128 145 128 163.5 106.5 c 128,-1,37
 182 85 182 85 204.5 76 c 128,-1,38
 227 67 227 67 251 67 c 0,39,40
 319 67 319 67 354 105 c 128,-1,41
 389 143 389 143 396 195 c 1,42,-1
 472 195 l 1,43,44
 477 128 477 128 513.5 97.5 c 128,-1,45
 550 67 550 67 599 67 c 0,46,47
 654 67 654 67 687 106 c 128,-1,48
 720 145 720 145 720 210 c 0,49,50
 720 276 720 276 694.5 329.5 c 128,-1,51
 669 383 669 383 622.5 421 c 128,-1,52
 576 459 576 459 514 477 c 1,53,-1
 652 481 l 1,54,55
 700 451 700 451 733.5 412.5 c 128,-1,56
 767 374 767 374 784.5 325 c 128,-1,57
 802 276 802 276 802 215 c 0,58,59
 802 147 802 147 777.5 96 c 128,-1,60
 753 45 753 45 707 16.5 c 128,-1,61
 661 -12 661 -12 595 -12 c 0,62,63
 537 -12 537 -12 494.5 14.5 c 128,-1,64
 452 41 452 41 417 105 c 1,65,-1
 450 104 l 1,66,67
 424 59 424 59 396 34 c 128,-1,68
 368 9 368 9 333 -1.5 c 128,-1,69
 298 -12 298 -12 252 -12 c 256,0,1
388 -144 m 1,70,-1
 396 15 l 1,71,-1
 473 15 l 1,72,-1
 481 -144 l 1,73,-1
 388 -144 l 1,70,-1
469 474 m 1,74,-1
 469 551 l 1,75,-1
 582 551 l 2,76,77
 635 551 635 551 657 556 c 128,-1,78
 679 561 679 561 690 569 c 0,79,80
 703 579 703 579 707.5 591.5 c 128,-1,81
 712 604 712 604 712 618 c 0,82,83
 712 651 712 651 696 682.5 c 128,-1,84
 680 714 680 714 647 747 c 1,85,-1
 712 790 l 1,86,87
 759 738 759 738 776 696.5 c 128,-1,88
 793 655 793 655 793 612 c 0,89,90
 793 593 793 593 785 565.5 c 128,-1,91
 777 538 777 538 752 516 c 0,92,93
 726 494 726 494 691.5 484 c 128,-1,94
 657 474 657 474 600 474 c 2,95,-1
 469 474 l 1,74,-1
EndSplineSet
Substitution2: "Single Substitution lookup 20 subtable" chanocrestknda
Substitution2: "'aalt' Access All Alternates lookup 0 subtable" chanocrestknda
EndChar

StartChar: jaknda
Encoding: 3228 3228 30
Width: 775
GlyphClass: 2
Flags: W
AnchorPoint: "Anchor-0" 395 -24 basechar 0
LayerCount: 2
Fore
SplineSet
561 -12 m 0,0,1
 500 -12 500 -12 457.5 14.5 c 128,-1,2
 415 41 415 41 380 104 c 1,3,-1
 411 104 l 1,4,5
 388 59 388 59 360.5 34 c 128,-1,6
 333 9 333 9 298.5 -1.5 c 128,-1,7
 264 -12 264 -12 218 -12 c 0,8,9
 162 -12 162 -12 124 9.5 c 128,-1,10
 86 31 86 31 67.5 65 c 128,-1,11
 49 99 49 99 49 136 c 0,12,13
 49 179 49 179 65.5 210 c 128,-1,14
 82 241 82 241 113 267.5 c 128,-1,15
 144 294 144 294 187 321 c 0,16,17
 225 346 225 346 248 368 c 128,-1,18
 271 390 271 390 271 422 c 0,19,20
 271 443 271 443 263 458.5 c 128,-1,21
 255 474 255 474 237.5 482 c 128,-1,22
 220 490 220 490 190 490 c 0,23,24
 147 490 147 490 127 471.5 c 128,-1,25
 107 453 107 453 107 422 c 0,26,27
 107 406 107 406 112 391.5 c 128,-1,28
 117 377 117 377 127 363 c 1,29,-1
 57 332 l 1,30,31
 41 357 41 357 33.5 381.5 c 128,-1,32
 26 406 26 406 26 431 c 0,33,34
 26 466 26 466 44 496 c 128,-1,35
 62 526 62 526 98.5 544.5 c 128,-1,36
 135 563 135 563 191 563 c 0,37,38
 253 563 253 563 288 542 c 128,-1,39
 323 521 323 521 337 489 c 128,-1,40
 351 457 351 457 351 423 c 0,41,42
 351 387 351 387 336 358.5 c 128,-1,43
 321 330 321 330 292.5 305 c 128,-1,44
 264 280 264 280 224 254 c 0,45,46
 178 224 178 224 154.5 201 c 128,-1,47
 131 178 131 178 131 141 c 0,48,49
 131 102 131 102 157 84.5 c 128,-1,50
 183 67 183 67 223 67 c 0,51,52
 290 67 290 67 322 102 c 128,-1,53
 354 137 354 137 358 195 c 1,54,-1
 434 195 l 1,55,56
 439 128 439 128 475.5 97.5 c 128,-1,57
 512 67 512 67 561 67 c 0,58,59
 617 67 617 67 640 93.5 c 128,-1,60
 663 120 663 120 663 155 c 0,61,62
 663 184 663 184 651.5 209.5 c 128,-1,63
 640 235 640 235 620 257 c 1,64,-1
 691 303 l 1,65,66
 715 273 715 273 730 234 c 128,-1,67
 745 195 745 195 745 151 c 0,68,69
 745 104 745 104 725.5 67 c 128,-1,70
 706 30 706 30 665.5 9 c 128,-1,71
 625 -12 625 -12 561 -12 c 0,0,1
517 311 m 0,72,73
 459 311 459 311 416 330 c 128,-1,74
 373 349 373 349 343.5 378 c 128,-1,75
 314 407 314 407 296 438 c 2,76,-1
 278 469 l 1,77,-1
 316 511 l 1,78,79
 368 438 368 438 417 411.5 c 128,-1,80
 466 385 466 385 510 385 c 256,81,82
 554 385 554 385 579.5 404 c 128,-1,83
 605 423 605 423 605 464 c 0,84,85
 605 486 605 486 599.5 507 c 128,-1,86
 594 528 594 528 587 540 c 1,87,-1
 665 563 l 1,88,89
 674 547 674 547 680.5 520 c 128,-1,90
 687 493 687 493 687 468 c 0,91,92
 687 419 687 419 667 383.5 c 128,-1,93
 647 348 647 348 609.5 329.5 c 128,-1,94
 572 311 572 311 517 311 c 0,72,73
EndSplineSet
Substitution2: "Single Substitution lookup 20 subtable" janocrestknda
Substitution2: "'aalt' Access All Alternates lookup 0 subtable" janocrestknda
EndChar

StartChar: jhaknda
Encoding: 3229 3229 31
Width: 1379
GlyphClass: 2
Flags: W
AnchorPoint: "Anchor-0" 592 -24 basechar 0
LayerCount: 2
Fore
SplineSet
326 -12 m 0,0,1
 245 -12 245 -12 180.5 19 c 128,-1,2
 116 50 116 50 79 109.5 c 128,-1,3
 42 169 42 169 42 255 c 0,4,5
 42 312 42 312 57.5 356 c 128,-1,6
 73 400 73 400 101 433 c 128,-1,7
 129 466 129 466 168 488 c 1,8,-1
 186 474 l 1,9,-1
 42 474 l 1,10,-1
 42 551 l 1,11,-1
 398 551 l 2,12,13
 452 551 452 551 474 556 c 128,-1,14
 496 561 496 561 507 569 c 0,15,16
 520 579 520 579 524.5 591.5 c 128,-1,17
 529 604 529 604 529 618 c 0,18,19
 529 651 529 651 513 682.5 c 128,-1,20
 497 714 497 714 464 747 c 1,21,-1
 529 790 l 1,22,23
 576 738 576 738 593 696.5 c 128,-1,24
 610 655 610 655 610 612 c 0,25,26
 610 593 610 593 602 565.5 c 128,-1,27
 594 538 594 538 569 516 c 0,28,29
 556 504 556 504 538 494.5 c 128,-1,30
 520 485 520 485 496 480 c 1,31,-1
 491 488 l 1,32,33
 529 464 529 464 555.5 431.5 c 128,-1,34
 582 399 582 399 596 356 c 128,-1,35
 610 313 610 313 610 255 c 0,36,37
 610 177 610 177 576 117 c 128,-1,38
 542 57 542 57 478.5 22.5 c 128,-1,39
 415 -12 415 -12 326 -12 c 0,0,1
327 69 m 0,40,41
 395 69 395 69 439.5 96.5 c 128,-1,42
 484 124 484 124 506 170 c 128,-1,43
 528 216 528 216 528 272 c 0,44,45
 528 337 528 337 501.5 382.5 c 128,-1,46
 475 428 475 428 430 452 c 128,-1,47
 385 476 385 476 328 476 c 0,48,49
 266 476 266 476 220 450.5 c 128,-1,50
 174 425 174 425 149 379.5 c 128,-1,51
 124 334 124 334 124 272 c 0,52,53
 124 175 124 175 179.5 122 c 128,-1,54
 235 69 235 69 327 69 c 0,40,41
902 -144 m 1,55,-1
 910 15 l 1,56,-1
 987 15 l 1,57,-1
 995 -144 l 1,58,-1
 902 -144 l 1,55,-1
767 -12 m 0,59,60
 691 -12 691 -12 634.5 26.5 c 128,-1,61
 578 65 578 65 532 123 c 1,62,-1
 583 177 l 1,63,64
 625 124 625 124 669 95.5 c 128,-1,65
 713 67 713 67 771 67 c 0,66,67
 830 67 830 67 863 106 c 128,-1,68
 896 145 896 145 896 210 c 0,69,70
 896 280 896 280 871 333 c 128,-1,71
 846 386 846 386 802 424.5 c 128,-1,72
 758 463 758 463 700 488 c 1,73,-1
 743 565 l 1,74,75
 811 532 811 532 864 482 c 128,-1,76
 917 432 917 432 947.5 365 c 128,-1,77
 978 298 978 298 978 215 c 0,78,79
 978 150 978 150 955 98.5 c 128,-1,80
 932 47 932 47 885.5 17.5 c 128,-1,81
 839 -12 839 -12 767 -12 c 0,59,60
1131 -12 m 0,82,83
 1055 -12 1055 -12 998.5 26.5 c 128,-1,84
 942 65 942 65 896 123 c 1,85,-1
 947 177 l 1,86,87
 989 124 989 124 1033 95.5 c 128,-1,88
 1077 67 1077 67 1134 67 c 0,89,90
 1194 67 1194 67 1227 106 c 128,-1,91
 1260 145 1260 145 1260 210 c 0,92,93
 1260 280 1260 280 1235 333 c 128,-1,94
 1210 386 1210 386 1166 424.5 c 128,-1,95
 1122 463 1122 463 1064 488 c 1,96,-1
 1107 565 l 1,97,98
 1175 532 1175 532 1228 482 c 128,-1,99
 1281 432 1281 432 1311.5 365 c 128,-1,100
 1342 298 1342 298 1342 215 c 0,101,102
 1342 150 1342 150 1319 98.5 c 128,-1,103
 1296 47 1296 47 1249 17.5 c 128,-1,104
 1202 -12 1202 -12 1131 -12 c 0,82,83
EndSplineSet
Substitution2: "Single Substitution lookup 20 subtable" jhanocrestknda
Substitution2: "'aalt' Access All Alternates lookup 0 subtable" jhanocrestknda
EndChar

StartChar: nyaknda
Encoding: 3230 3230 32
Width: 966
GlyphClass: 2
Flags: W
AnchorPoint: "Anchor-0" 434 -24 basechar 0
LayerCount: 2
Fore
SplineSet
321 -12 m 0,0,1
 255 -12 255 -12 212.5 7.5 c 128,-1,2
 170 27 170 27 149.5 61.5 c 128,-1,3
 129 96 129 96 129 140 c 0,4,5
 129 205 129 205 177.5 243.5 c 128,-1,6
 226 282 226 282 315 282 c 0,7,8
 373 282 373 282 420 265.5 c 128,-1,9
 467 249 467 249 505.5 218.5 c 128,-1,10
 544 188 544 188 574 145 c 0,11,12
 605 104 605 104 624 57.5 c 128,-1,13
 643 11 643 11 653 -39 c 1,14,-1
 570 -55 l 1,15,16
 556 20 556 20 523.5 80 c 128,-1,17
 491 140 491 140 439.5 174.5 c 128,-1,18
 388 209 388 209 315 209 c 0,19,20
 264 209 264 209 237 191 c 128,-1,21
 210 173 210 173 210 141 c 0,22,23
 210 105 210 105 237.5 84 c 128,-1,24
 265 63 265 63 326 63 c 0,25,26
 400 63 400 63 450.5 84 c 128,-1,27
 501 105 501 105 532.5 141.5 c 128,-1,28
 564 178 564 178 578 225 c 128,-1,29
 592 272 592 272 592 324 c 0,30,31
 592 408 592 408 562 446 c 128,-1,32
 532 484 532 484 480 484 c 0,33,34
 436 484 436 484 408 452.5 c 128,-1,35
 380 421 380 421 373 368 c 1,36,-1
 294 368 l 1,37,38
 287 425 287 425 257.5 454.5 c 128,-1,39
 228 484 228 484 186 484 c 0,40,41
 146 484 146 484 127 464.5 c 128,-1,42
 108 445 108 445 108 413 c 0,43,44
 108 394 108 394 113.5 374.5 c 128,-1,45
 119 355 119 355 125 343 c 1,46,-1
 49 319 l 1,47,48
 40 338 40 338 33 362.5 c 128,-1,49
 26 387 26 387 26 419 c 0,50,51
 26 463 26 463 47 495.5 c 128,-1,52
 68 528 68 528 103 545.5 c 128,-1,53
 138 563 138 563 180 563 c 0,54,55
 220 563 220 563 250 551.5 c 128,-1,56
 280 540 280 540 304 514 c 128,-1,57
 328 488 328 488 349 446 c 1,58,-1
 318 441 l 1,59,60
 340 492 340 492 368 518 c 128,-1,61
 396 544 396 544 427 553.5 c 128,-1,62
 458 563 458 563 488 563 c 0,63,64
 541 563 541 563 582 536.5 c 128,-1,65
 623 510 623 510 645 456 c 0,66,67
 647 452 647 452 650.5 447.5 c 128,-1,68
 654 443 654 443 655 438 c 0,69,70
 664 413 664 413 669 383.5 c 128,-1,71
 674 354 674 354 674 324 c 0,72,73
 674 286 674 286 665 243.5 c 128,-1,74
 656 201 656 201 635.5 160 c 128,-1,75
 615 119 615 119 580 84 c 1,76,-1
 559 69 l 2,77,78
 518 35 518 35 459.5 11.5 c 128,-1,79
 401 -12 401 -12 321 -12 c 0,0,1
786 563 m 0,80,81
 829 563 829 563 863.5 545.5 c 128,-1,82
 898 528 898 528 918.5 495.5 c 128,-1,83
 939 463 939 463 939 419 c 0,84,85
 939 387 939 387 932 362.5 c 128,-1,86
 925 338 925 338 916 319 c 1,87,-1
 840 343 l 1,88,89
 846 355 846 355 851.5 374.5 c 128,-1,90
 857 394 857 394 857 413 c 0,91,92
 857 445 857 445 838.5 464.5 c 128,-1,93
 820 484 820 484 780 484 c 0,94,95
 752 484 752 484 727.5 469.5 c 128,-1,96
 703 455 703 455 688 426.5 c 128,-1,97
 673 398 673 398 672 356 c 1,98,-1
 632 472 l 1,99,100
 652 505 652 505 674 525 c 128,-1,101
 696 545 696 545 723.5 554 c 128,-1,102
 751 563 751 563 786 563 c 0,80,81
EndSplineSet
EndChar

StartChar: ttaknda
Encoding: 3231 3231 33
Width: 815
GlyphClass: 2
Flags: W
AnchorPoint: "Anchor-0" 432 -24 basechar 0
LayerCount: 2
Fore
SplineSet
243 -12 m 0,0,1
 198 -12 198 -12 161 2.5 c 128,-1,2
 124 17 124 17 96.5 46 c 128,-1,3
 69 75 69 75 54.5 117.5 c 128,-1,4
 40 160 40 160 40 216 c 0,5,6
 40 288 40 288 65 344 c 128,-1,7
 90 400 90 400 135.5 432 c 128,-1,8
 181 464 181 464 243 464 c 0,9,10
 284 464 284 464 314.5 449 c 128,-1,11
 345 434 345 434 362 407 c 128,-1,12
 379 380 379 380 379 342 c 0,13,14
 379 303 379 303 360.5 273 c 128,-1,15
 342 243 342 243 305.5 226 c 128,-1,16
 269 209 269 209 215 209 c 0,17,18
 163 209 163 209 128 230 c 128,-1,19
 93 251 93 251 74 274 c 1,20,-1
 94 340 l 1,21,22
 107 322 107 322 135 300.5 c 128,-1,23
 163 279 163 279 208 279 c 0,24,25
 257 279 257 279 279 295 c 128,-1,26
 301 311 301 311 301 338 c 256,27,28
 301 365 301 365 284 379.5 c 128,-1,29
 267 394 267 394 241 394 c 0,30,31
 199 394 199 394 172 369 c 128,-1,32
 145 344 145 344 132.5 303 c 128,-1,33
 120 262 120 262 120 215 c 2,34,-1
 120 205 l 2,35,36
 120 165 120 165 130.5 138.5 c 128,-1,37
 141 112 141 112 159 96.5 c 128,-1,38
 177 81 177 81 201.5 74 c 128,-1,39
 226 67 226 67 253 67 c 0,40,41
 320 67 320 67 352.5 103.5 c 128,-1,42
 385 140 385 140 394 195 c 1,43,-1
 471 195 l 1,44,45
 477 128 477 128 513 97.5 c 128,-1,46
 549 67 549 67 597 67 c 0,47,48
 652 67 652 67 675.5 95 c 128,-1,49
 699 123 699 123 699 162 c 256,50,51
 699 201 699 201 680.5 231 c 128,-1,52
 662 261 662 261 632 280.5 c 128,-1,53
 602 300 602 300 566 307 c 1,54,-1
 634 352 l 1,55,56
 684 332 684 332 716.5 303 c 128,-1,57
 749 274 749 274 765 237 c 128,-1,58
 781 200 781 200 781 156 c 0,59,60
 781 83 781 83 737.5 35.5 c 128,-1,61
 694 -12 694 -12 602 -12 c 0,62,63
 559 -12 559 -12 526 0 c 128,-1,64
 493 12 493 12 466.5 37.5 c 128,-1,65
 440 63 440 63 417 102 c 1,66,-1
 450 103 l 1,67,68
 420 60 420 60 390.5 34.5 c 128,-1,69
 361 9 361 9 325.5 -1.5 c 128,-1,70
 290 -12 290 -12 243 -12 c 0,0,1
189 412 m 1,71,72
 135 429 135 429 110 465 c 128,-1,73
 85 501 85 501 85 536 c 0,74,75
 85 567 85 567 100.5 592.5 c 128,-1,76
 116 618 116 618 152 634.5 c 128,-1,77
 188 651 188 651 248 653 c 1,78,-1
 256 575 l 1,79,80
 207 574 207 574 185.5 561.5 c 128,-1,81
 164 549 164 549 164 525 c 0,82,83
 164 502 164 502 184.5 485 c 128,-1,84
 205 468 205 468 246 458 c 1,85,-1
 189 412 l 1,71,72
498 306 m 1,86,-1
 498 381 l 1,87,-1
 555 381 l 2,88,89
 598 381 598 381 622 387 c 128,-1,90
 646 393 646 393 659 406 c 0,91,92
 670 417 670 417 675 430.5 c 128,-1,93
 680 444 680 444 680 460 c 0,94,95
 680 493 680 493 658.5 520 c 128,-1,96
 637 547 637 547 570 560 c 1,97,-1
 598 636 l 1,98,99
 681 618 681 618 721.5 573 c 128,-1,100
 762 528 762 528 762 469 c 0,101,102
 762 425 762 425 737 383 c 128,-1,103
 712 341 712 341 653 320 c 0,104,105
 640 316 640 316 630 312.5 c 128,-1,106
 620 309 620 309 608.5 307.5 c 128,-1,107
 597 306 597 306 577 306 c 2,108,-1
 498 306 l 1,86,-1
EndSplineSet
Substitution2: "Single Substitution lookup 20 subtable" ttanocrestknda
Substitution2: "'aalt' Access All Alternates lookup 0 subtable" ttanocrestknda
EndChar

StartChar: tthaknda
Encoding: 3232 3232 34
Width: 651
GlyphClass: 2
Flags: W
AnchorPoint: "Anchor-0" 326 -24 basechar 0
LayerCount: 2
Fore
SplineSet
326 -12 m 0,0,1
 245 -12 245 -12 180.5 19 c 128,-1,2
 116 50 116 50 79 109.5 c 128,-1,3
 42 169 42 169 42 255 c 0,4,5
 42 312 42 312 57.5 356 c 128,-1,6
 73 400 73 400 101 433 c 128,-1,7
 129 466 129 466 168 488 c 1,8,-1
 186 474 l 1,9,-1
 42 474 l 1,10,-1
 42 551 l 1,11,-1
 398 551 l 2,12,13
 452 551 452 551 474 556 c 128,-1,14
 496 561 496 561 507 569 c 0,15,16
 520 579 520 579 524.5 591.5 c 128,-1,17
 529 604 529 604 529 618 c 0,18,19
 529 651 529 651 513 682.5 c 128,-1,20
 497 714 497 714 464 747 c 1,21,-1
 529 790 l 1,22,23
 576 738 576 738 593 696.5 c 128,-1,24
 610 655 610 655 610 612 c 0,25,26
 610 593 610 593 602 565.5 c 128,-1,27
 594 538 594 538 569 516 c 0,28,29
 556 504 556 504 538 494.5 c 128,-1,30
 520 485 520 485 496 480 c 1,31,-1
 491 488 l 1,32,33
 529 464 529 464 555.5 431.5 c 128,-1,34
 582 399 582 399 596 356 c 128,-1,35
 610 313 610 313 610 255 c 0,36,37
 610 177 610 177 576 117 c 128,-1,38
 542 57 542 57 478.5 22.5 c 128,-1,39
 415 -12 415 -12 326 -12 c 0,0,1
327 69 m 0,40,41
 395 69 395 69 439.5 96 c 128,-1,42
 484 123 484 123 506 169.5 c 128,-1,43
 528 216 528 216 528 272 c 0,44,45
 528 337 528 337 501.5 382.5 c 128,-1,46
 475 428 475 428 430 452 c 128,-1,47
 385 476 385 476 328 476 c 0,48,49
 266 476 266 476 220 450.5 c 128,-1,50
 174 425 174 425 149 379.5 c 128,-1,51
 124 334 124 334 124 272 c 0,52,53
 124 175 124 175 179.5 122 c 128,-1,54
 235 69 235 69 327 69 c 0,40,41
326 217 m 0,55,56
 302 217 302 217 285 234 c 128,-1,57
 268 251 268 251 268 276 c 256,58,59
 268 301 268 301 285 318 c 128,-1,60
 302 335 302 335 326 335 c 0,61,62
 351 335 351 335 367.5 318 c 128,-1,63
 384 301 384 301 384 276 c 256,64,65
 384 251 384 251 367.5 234 c 128,-1,66
 351 217 351 217 326 217 c 0,55,56
EndSplineSet
Substitution2: "Single Substitution lookup 20 subtable" tthanocrestknda
Substitution2: "'aalt' Access All Alternates lookup 0 subtable" tthanocrestknda
EndChar

StartChar: ddaknda
Encoding: 3233 3233 35
Width: 768
GlyphClass: 2
Flags: W
AnchorPoint: "Anchor-0" 382 -24 basechar 0
LayerCount: 2
Fore
SplineSet
216 -12 m 0,0,1
 138 -12 138 -12 90 46 c 128,-1,2
 42 104 42 104 42 220 c 0,3,4
 42 282 42 282 59.5 334 c 128,-1,5
 77 386 77 386 112 425.5 c 128,-1,6
 147 465 147 465 197 487 c 1,7,-1
 212 474 l 1,8,-1
 42 474 l 1,9,-1
 42 551 l 1,10,-1
 518 551 l 2,11,12
 571 551 571 551 593.5 556 c 128,-1,13
 616 561 616 561 626 569 c 0,14,15
 640 579 640 579 644 591.5 c 128,-1,16
 648 604 648 604 648 618 c 0,17,18
 648 651 648 651 632 682.5 c 128,-1,19
 616 714 616 714 583 747 c 1,20,-1
 648 790 l 1,21,22
 695 738 695 738 712 696.5 c 128,-1,23
 729 655 729 655 729 612 c 0,24,25
 729 593 729 593 721 565.5 c 128,-1,26
 713 538 713 538 688 516 c 0,27,28
 678 507 678 507 663.5 499 c 128,-1,29
 649 491 649 491 631 485.5 c 128,-1,30
 613 480 613 480 589 477 c 1,31,-1
 592 488 l 1,32,33
 627 474 627 474 649 450 c 128,-1,34
 671 426 671 426 681.5 397 c 128,-1,35
 692 368 692 368 692 337 c 0,36,37
 692 319 692 319 689.5 305 c 128,-1,38
 687 291 687 291 679 275 c 0,39,40
 677 271 677 271 672 268 c 128,-1,41
 667 265 667 265 665 261 c 0,42,43
 648 232 648 232 617 213 c 128,-1,44
 586 194 586 194 542 194 c 0,45,46
 509 194 509 194 481.5 205.5 c 128,-1,47
 454 217 454 217 437 241 c 128,-1,48
 420 265 420 265 420 301 c 0,49,50
 420 353 420 353 454.5 377.5 c 128,-1,51
 489 402 489 402 534 402 c 0,52,53
 568 402 568 402 591.5 393.5 c 128,-1,54
 615 385 615 385 633 372 c 0,55,56
 678 347 678 347 703.5 296.5 c 128,-1,57
 729 246 729 246 729 184 c 0,58,59
 729 125 729 125 705.5 81 c 128,-1,60
 682 37 682 37 642 12.5 c 128,-1,61
 602 -12 602 -12 550 -12 c 0,62,63
 482 -12 482 -12 441.5 14.5 c 128,-1,64
 401 41 401 41 366 104 c 1,65,-1
 398 109 l 1,66,67
 375 58 375 58 346.5 32 c 128,-1,68
 318 6 318 6 285 -3 c 128,-1,69
 252 -12 252 -12 216 -12 c 0,0,1
227 67 m 0,70,71
 277 67 277 67 306 100.5 c 128,-1,72
 335 134 335 134 344 184 c 1,73,-1
 420 184 l 1,74,75
 430 123 430 123 463.5 95 c 128,-1,76
 497 67 497 67 542 67 c 0,77,78
 572 67 572 67 597.5 79 c 128,-1,79
 623 91 623 91 638.5 117 c 128,-1,80
 654 143 654 143 654 185 c 0,81,82
 654 223 654 223 642 258.5 c 128,-1,83
 630 294 630 294 605.5 317.5 c 128,-1,84
 581 341 581 341 543 341 c 0,85,86
 522 341 522 341 508.5 330.5 c 128,-1,87
 495 320 495 320 495 301 c 0,88,89
 495 279 495 279 508 268 c 128,-1,90
 521 257 521 257 547 257 c 0,91,92
 563 257 563 257 580.5 264.5 c 128,-1,93
 598 272 598 272 610 289.5 c 128,-1,94
 622 307 622 307 622 337 c 256,95,96
 622 367 622 367 606.5 392.5 c 128,-1,97
 591 418 591 418 562.5 437 c 128,-1,98
 534 456 534 456 495.5 466 c 128,-1,99
 457 476 457 476 411 476 c 2,100,-1
 376 476 l 2,101,102
 314 476 314 476 267 457 c 128,-1,103
 220 438 220 438 188 403.5 c 128,-1,104
 156 369 156 369 140 322 c 128,-1,105
 124 275 124 275 124 220 c 0,106,107
 124 137 124 137 151 102 c 128,-1,108
 178 67 178 67 227 67 c 0,70,71
EndSplineSet
Substitution2: "Single Substitution lookup 20 subtable" ddanocrestknda
Substitution2: "'aalt' Access All Alternates lookup 0 subtable" ddanocrestknda
EndChar

StartChar: ddhaknda
Encoding: 3234 3234 36
Width: 768
GlyphClass: 2
Flags: W
AnchorPoint: "Anchor-0" 382 -24 basechar 0
LayerCount: 2
Fore
SplineSet
216 -12 m 0,0,1
 138 -12 138 -12 90 46 c 128,-1,2
 42 104 42 104 42 220 c 0,3,4
 42 282 42 282 59.5 334 c 128,-1,5
 77 386 77 386 112 425.5 c 128,-1,6
 147 465 147 465 197 487 c 1,7,-1
 212 474 l 1,8,-1
 42 474 l 1,9,-1
 42 551 l 1,10,-1
 518 551 l 2,11,12
 571 551 571 551 593.5 556 c 128,-1,13
 616 561 616 561 626 569 c 0,14,15
 640 579 640 579 644 591.5 c 128,-1,16
 648 604 648 604 648 618 c 0,17,18
 648 651 648 651 632 682.5 c 128,-1,19
 616 714 616 714 583 747 c 1,20,-1
 648 790 l 1,21,22
 695 738 695 738 712 696.5 c 128,-1,23
 729 655 729 655 729 612 c 0,24,25
 729 593 729 593 721 565.5 c 128,-1,26
 713 538 713 538 688 516 c 0,27,28
 678 507 678 507 663.5 499 c 128,-1,29
 649 491 649 491 631 485.5 c 128,-1,30
 613 480 613 480 589 477 c 1,31,-1
 592 488 l 1,32,33
 627 474 627 474 649 450 c 128,-1,34
 671 426 671 426 681.5 397 c 128,-1,35
 692 368 692 368 692 337 c 0,36,37
 692 319 692 319 689.5 305 c 128,-1,38
 687 291 687 291 679 275 c 0,39,40
 677 271 677 271 672 268 c 128,-1,41
 667 265 667 265 665 261 c 0,42,43
 648 232 648 232 617 213 c 128,-1,44
 586 194 586 194 542 194 c 0,45,46
 509 194 509 194 481.5 205.5 c 128,-1,47
 454 217 454 217 437 241 c 128,-1,48
 420 265 420 265 420 301 c 0,49,50
 420 353 420 353 454.5 377.5 c 128,-1,51
 489 402 489 402 534 402 c 0,52,53
 568 402 568 402 591.5 393.5 c 128,-1,54
 615 385 615 385 633 372 c 0,55,56
 678 347 678 347 703.5 296.5 c 128,-1,57
 729 246 729 246 729 184 c 0,58,59
 729 125 729 125 705.5 81 c 128,-1,60
 682 37 682 37 642 12.5 c 128,-1,61
 602 -12 602 -12 550 -12 c 0,62,63
 482 -12 482 -12 441.5 14.5 c 128,-1,64
 401 41 401 41 366 104 c 1,65,-1
 398 109 l 1,66,67
 375 58 375 58 346.5 32 c 128,-1,68
 318 6 318 6 285 -3 c 128,-1,69
 252 -12 252 -12 216 -12 c 0,0,1
227 67 m 0,70,71
 277 67 277 67 306 100.5 c 128,-1,72
 335 134 335 134 344 184 c 1,73,-1
 420 184 l 1,74,75
 430 123 430 123 463.5 95 c 128,-1,76
 497 67 497 67 542 67 c 0,77,78
 572 67 572 67 597.5 79 c 128,-1,79
 623 91 623 91 638.5 117 c 128,-1,80
 654 143 654 143 654 185 c 0,81,82
 654 223 654 223 642 258.5 c 128,-1,83
 630 294 630 294 605.5 317.5 c 128,-1,84
 581 341 581 341 543 341 c 0,85,86
 522 341 522 341 508.5 330.5 c 128,-1,87
 495 320 495 320 495 301 c 0,88,89
 495 279 495 279 508 268 c 128,-1,90
 521 257 521 257 547 257 c 0,91,92
 563 257 563 257 580.5 264.5 c 128,-1,93
 598 272 598 272 610 289.5 c 128,-1,94
 622 307 622 307 622 337 c 256,95,96
 622 367 622 367 606.5 392.5 c 128,-1,97
 591 418 591 418 562.5 437 c 128,-1,98
 534 456 534 456 495.5 466 c 128,-1,99
 457 476 457 476 411 476 c 2,100,-1
 376 476 l 2,101,102
 314 476 314 476 267 457 c 128,-1,103
 220 438 220 438 188 403.5 c 128,-1,104
 156 369 156 369 140 322 c 128,-1,105
 124 275 124 275 124 220 c 0,106,107
 124 137 124 137 151 102 c 128,-1,108
 178 67 178 67 227 67 c 0,70,71
336 -144 m 1,109,-1
 344 15 l 1,110,-1
 421 15 l 1,111,-1
 429 -144 l 1,112,-1
 336 -144 l 1,109,-1
EndSplineSet
Substitution2: "Single Substitution lookup 20 subtable" ddhanocrestknda
Substitution2: "'aalt' Access All Alternates lookup 0 subtable" ddhanocrestknda
EndChar

StartChar: nnaknda
Encoding: 3235 3235 37
Width: 864
GlyphClass: 2
Flags: W
AnchorPoint: "Anchor-0" 432 -24 basechar 0
LayerCount: 2
Fore
SplineSet
602 -12 m 0,0,1
 523 -12 523 -12 474 31 c 128,-1,2
 425 74 425 74 425 148 c 0,3,4
 425 208 425 208 462 250 c 128,-1,5
 499 292 499 292 561 292 c 0,6,7
 614 292 614 292 645.5 267 c 128,-1,8
 677 242 677 242 677 199 c 0,9,10
 677 183 677 183 673.5 166.5 c 128,-1,11
 670 150 670 150 664 140 c 1,12,-1
 595 146 l 1,13,14
 598 153 598 153 600 161.5 c 128,-1,15
 602 170 602 170 602 178 c 0,16,17
 602 200 602 200 590.5 211 c 128,-1,18
 579 222 579 222 559 222 c 0,19,20
 534 222 534 222 517.5 204 c 128,-1,21
 501 186 501 186 501 151 c 0,22,23
 501 113 501 113 525 88 c 128,-1,24
 549 63 549 63 604 63 c 0,25,26
 644 63 644 63 674.5 81.5 c 128,-1,27
 705 100 705 100 722.5 142 c 128,-1,28
 740 184 740 184 740 253 c 2,29,-1
 740 261 l 2,30,31
 740 328 740 328 722 378 c 128,-1,32
 704 428 704 428 669 456 c 128,-1,33
 634 484 634 484 583 484 c 0,34,35
 524 484 524 484 489.5 450.5 c 128,-1,36
 455 417 455 417 447 357 c 1,37,-1
 371 357 l 1,38,39
 363 422 363 422 326.5 453 c 128,-1,40
 290 484 290 484 228 484 c 0,41,42
 173 484 173 484 146 459 c 128,-1,43
 119 434 119 434 119 392 c 0,44,45
 119 374 119 374 125.5 357.5 c 128,-1,46
 132 341 132 341 146 328 c 256,47,48
 160 315 160 315 183.5 306.5 c 128,-1,49
 207 298 207 298 251 298 c 2,50,-1
 267 298 l 1,51,-1
 267 228 l 1,52,-1
 239 228 l 2,53,54
 196 228 196 228 174 222 c 128,-1,55
 152 216 152 216 138 203 c 0,56,57
 125 193 125 193 119 177.5 c 128,-1,58
 113 162 113 162 113 142 c 0,59,60
 113 111 113 111 131.5 87 c 128,-1,61
 150 63 150 63 193 63 c 0,62,63
 223 63 223 63 247.5 73 c 128,-1,64
 272 83 272 83 300 105 c 1,65,-1
 348 44 l 1,66,67
 316 19 316 19 276 3.5 c 128,-1,68
 236 -12 236 -12 190 -12 c 0,69,70
 108 -12 108 -12 69.5 30 c 128,-1,71
 31 72 31 72 31 132 c 0,72,73
 31 166 31 166 43.5 193 c 128,-1,74
 56 220 56 220 81.5 240.5 c 128,-1,75
 107 261 107 261 147 273 c 1,76,-1
 145 249 l 1,77,78
 108 266 108 266 84 288.5 c 128,-1,79
 60 311 60 311 48.5 340 c 128,-1,80
 37 369 37 369 37 402 c 0,81,82
 37 448 37 448 60 484.5 c 128,-1,83
 83 521 83 521 125 542 c 128,-1,84
 167 563 167 563 223 563 c 0,85,86
 294 563 294 563 341.5 536 c 128,-1,87
 389 509 389 509 425 447 c 1,88,-1
 396 448 l 1,89,90
 416 487 416 487 443 512.5 c 128,-1,91
 470 538 470 538 506 550.5 c 128,-1,92
 542 563 542 563 589 563 c 0,93,94
 664 563 664 563 716 524.5 c 128,-1,95
 768 486 768 486 795 417 c 128,-1,96
 822 348 822 348 822 256 c 0,97,98
 822 198 822 198 809 149 c 128,-1,99
 796 100 796 100 769 64 c 128,-1,100
 742 28 742 28 700.5 8 c 128,-1,101
 659 -12 659 -12 602 -12 c 0,0,1
EndSplineSet
Substitution2: "Single Substitution lookup 20 subtable" nnanocrestknda
Substitution2: "'aalt' Access All Alternates lookup 0 subtable" nnanocrestknda
EndChar

StartChar: taknda
Encoding: 3236 3236 38
Width: 622
GlyphClass: 2
Flags: W
AnchorPoint: "Anchor-0" 316 -24 basechar 0
LayerCount: 2
Fore
SplineSet
308 -12 m 0,0,1
 239 -12 239 -12 187 4 c 128,-1,2
 135 20 135 20 101 49.5 c 128,-1,3
 67 79 67 79 50 117.5 c 128,-1,4
 33 156 33 156 33 201 c 0,5,6
 33 215 33 215 34.5 230.5 c 128,-1,7
 36 246 36 246 39 259 c 1,8,-1
 118 248 l 1,9,10
 116 238 116 238 115 229 c 128,-1,11
 114 220 114 220 114 209 c 0,12,13
 114 183 114 183 122.5 158 c 128,-1,14
 131 133 131 133 152.5 112.5 c 128,-1,15
 174 92 174 92 211.5 79.5 c 128,-1,16
 249 67 249 67 307 67 c 0,17,18
 370 67 370 67 410.5 80 c 128,-1,19
 451 93 451 93 473 114 c 128,-1,20
 495 135 495 135 503.5 159 c 128,-1,21
 512 183 512 183 512 205 c 0,22,23
 512 228 512 228 506.5 249 c 128,-1,24
 501 270 501 270 487 287 c 0,25,26
 483 291 483 291 479 293.5 c 128,-1,27
 475 296 475 296 471 300 c 0,28,29
 452 316 452 316 425.5 325.5 c 128,-1,30
 399 335 399 335 362 335 c 0,31,32
 320 335 320 335 302 324.5 c 128,-1,33
 284 314 284 314 284 294 c 0,34,35
 284 275 284 275 300.5 264.5 c 128,-1,36
 317 254 317 254 349 254 c 0,37,38
 383 254 383 254 405.5 267.5 c 128,-1,39
 428 281 428 281 439.5 305 c 128,-1,40
 451 329 451 329 451 360 c 0,41,42
 451 399 451 399 431.5 425.5 c 128,-1,43
 412 452 412 452 385.5 467 c 128,-1,44
 359 482 359 482 338 486 c 1,45,-1
 457 492 l 1,46,47
 489 471 489 471 507 436.5 c 128,-1,48
 525 402 525 402 525 355 c 0,49,50
 525 347 525 347 524.5 340 c 128,-1,51
 524 333 524 333 523 328 c 2,52,-1
 517 300 l 2,53,54
 505 258 505 258 477.5 232 c 128,-1,55
 450 206 450 206 414.5 193.5 c 128,-1,56
 379 181 379 181 342 181 c 0,57,58
 278 181 278 181 241 209.5 c 128,-1,59
 204 238 204 238 204 293 c 0,60,61
 204 324 204 324 219 348.5 c 128,-1,62
 234 373 234 373 266.5 387.5 c 128,-1,63
 299 402 299 402 351 402 c 0,64,65
 388 402 388 402 419.5 395 c 128,-1,66
 451 388 451 388 476 375 c 0,67,68
 479 374 479 374 482 372.5 c 128,-1,69
 485 371 485 371 488 369.5 c 128,-1,70
 491 368 491 368 494 366 c 0,71,72
 540 339 540 339 562 296.5 c 128,-1,73
 584 254 584 254 584 207 c 0,74,75
 584 156 584 156 567.5 115.5 c 128,-1,76
 551 75 551 75 517 46.5 c 128,-1,77
 483 18 483 18 431 3 c 128,-1,78
 379 -12 379 -12 308 -12 c 0,0,1
39 474 m 1,79,-1
 39 551 l 1,80,-1
 373 551 l 2,81,82
 427 551 427 551 449 556 c 128,-1,83
 471 561 471 561 481 569 c 0,84,85
 495 579 495 579 499 591.5 c 128,-1,86
 503 604 503 604 503 618 c 0,87,88
 503 651 503 651 487 682.5 c 128,-1,89
 471 714 471 714 438 747 c 1,90,-1
 503 790 l 1,91,92
 550 738 550 738 567 696.5 c 128,-1,93
 584 655 584 655 584 612 c 0,94,95
 584 593 584 593 576.5 565.5 c 128,-1,96
 569 538 569 538 543 516 c 0,97,98
 518 494 518 494 483.5 484 c 128,-1,99
 449 474 449 474 391 474 c 2,100,-1
 39 474 l 1,79,-1
EndSplineSet
Substitution2: "Single Substitution lookup 20 subtable" tanocrestknda
Substitution2: "'aalt' Access All Alternates lookup 0 subtable" tanocrestknda
EndChar

StartChar: thaknda
Encoding: 3237 3237 39
Width: 765
GlyphClass: 2
Flags: W
AnchorPoint: "Anchor-0" 382 -24 basechar 0
LayerCount: 2
Fore
SplineSet
216 -12 m 0,0,1
 138 -12 138 -12 90 46 c 128,-1,2
 42 104 42 104 42 220 c 0,3,4
 42 282 42 282 59.5 334 c 128,-1,5
 77 386 77 386 112 425.5 c 128,-1,6
 147 465 147 465 197 487 c 1,7,-1
 212 474 l 1,8,-1
 42 474 l 1,9,-1
 42 551 l 1,10,-1
 512 551 l 2,11,12
 565 551 565 551 587.5 556 c 128,-1,13
 610 561 610 561 620 569 c 0,14,15
 634 579 634 579 638 591.5 c 128,-1,16
 642 604 642 604 642 618 c 0,17,18
 642 651 642 651 626 682.5 c 128,-1,19
 610 714 610 714 577 747 c 1,20,-1
 642 790 l 1,21,22
 689 738 689 738 706 696.5 c 128,-1,23
 723 655 723 655 723 612 c 0,24,25
 723 593 723 593 715 565.5 c 128,-1,26
 707 538 707 538 682 516 c 0,27,28
 672 507 672 507 657.5 499 c 128,-1,29
 643 491 643 491 625 485.5 c 128,-1,30
 607 480 607 480 583 477 c 1,31,-1
 584 483 l 1,32,33
 627 460 627 460 658 421 c 128,-1,34
 689 382 689 382 706 331 c 128,-1,35
 723 280 723 280 723 220 c 0,36,37
 723 104 723 104 674.5 46 c 128,-1,38
 626 -12 626 -12 545 -12 c 0,39,40
 502 -12 502 -12 470.5 -0.5 c 128,-1,41
 439 11 439 11 414 36.5 c 128,-1,42
 389 62 389 62 366 104 c 1,43,-1
 398 109 l 1,44,45
 375 58 375 58 346.5 32 c 128,-1,46
 318 6 318 6 285 -3 c 128,-1,47
 252 -12 252 -12 216 -12 c 0,0,1
227 67 m 0,48,49
 277 67 277 67 306 100.5 c 128,-1,50
 335 134 335 134 344 184 c 1,51,-1
 420 184 l 1,52,53
 430 123 430 123 463 95 c 128,-1,54
 496 67 496 67 537 67 c 0,55,56
 585 67 585 67 613 101 c 128,-1,57
 641 135 641 135 641 217 c 0,58,59
 641 269 641 269 625.5 316 c 128,-1,60
 610 363 610 363 579 399 c 128,-1,61
 548 435 548 435 501.5 455.5 c 128,-1,62
 455 476 455 476 393 476 c 2,63,-1
 376 476 l 2,64,65
 314 476 314 476 267 457 c 128,-1,66
 220 438 220 438 188 403 c 128,-1,67
 156 368 156 368 140 321.5 c 128,-1,68
 124 275 124 275 124 219 c 0,69,70
 124 137 124 137 151 102 c 128,-1,71
 178 67 178 67 227 67 c 0,48,49
382 247 m 0,72,73
 358 247 358 247 341 264 c 128,-1,74
 324 281 324 281 324 306 c 256,75,76
 324 331 324 331 341 348 c 128,-1,77
 358 365 358 365 382 365 c 0,78,79
 407 365 407 365 423.5 348 c 128,-1,80
 440 331 440 331 440 306 c 256,81,82
 440 281 440 281 423.5 264 c 128,-1,83
 407 247 407 247 382 247 c 0,72,73
336 -144 m 1,84,-1
 344 15 l 1,85,-1
 421 15 l 1,86,-1
 429 -144 l 1,87,-1
 336 -144 l 1,84,-1
EndSplineSet
Substitution2: "Single Substitution lookup 20 subtable" thanocrestknda
Substitution2: "'aalt' Access All Alternates lookup 0 subtable" thanocrestknda
EndChar

StartChar: daknda
Encoding: 3238 3238 40
Width: 765
GlyphClass: 2
Flags: W
AnchorPoint: "Anchor-0" 382 -24 basechar 0
LayerCount: 2
Fore
SplineSet
216 -12 m 0,0,1
 138 -12 138 -12 90 46 c 128,-1,2
 42 104 42 104 42 220 c 0,3,4
 42 282 42 282 59.5 334 c 128,-1,5
 77 386 77 386 112 425.5 c 128,-1,6
 147 465 147 465 197 487 c 1,7,-1
 212 474 l 1,8,-1
 42 474 l 1,9,-1
 42 551 l 1,10,-1
 512 551 l 2,11,12
 565 551 565 551 587.5 556 c 128,-1,13
 610 561 610 561 620 569 c 0,14,15
 634 579 634 579 638 591.5 c 128,-1,16
 642 604 642 604 642 618 c 0,17,18
 642 651 642 651 626 682.5 c 128,-1,19
 610 714 610 714 577 747 c 1,20,-1
 642 790 l 1,21,22
 689 738 689 738 706 696.5 c 128,-1,23
 723 655 723 655 723 612 c 0,24,25
 723 593 723 593 715 565.5 c 128,-1,26
 707 538 707 538 682 516 c 0,27,28
 672 507 672 507 657.5 499 c 128,-1,29
 643 491 643 491 625 485.5 c 128,-1,30
 607 480 607 480 583 477 c 1,31,-1
 584 483 l 1,32,33
 627 460 627 460 658 421 c 128,-1,34
 689 382 689 382 706 331 c 128,-1,35
 723 280 723 280 723 220 c 0,36,37
 723 104 723 104 674.5 46 c 128,-1,38
 626 -12 626 -12 545 -12 c 0,39,40
 502 -12 502 -12 470.5 -0.5 c 128,-1,41
 439 11 439 11 414 36.5 c 128,-1,42
 389 62 389 62 366 104 c 1,43,-1
 398 109 l 1,44,45
 375 58 375 58 346.5 32 c 128,-1,46
 318 6 318 6 285 -3 c 128,-1,47
 252 -12 252 -12 216 -12 c 0,0,1
227 67 m 0,48,49
 277 67 277 67 308 102 c 128,-1,50
 339 137 339 137 344 195 c 1,51,-1
 420 195 l 1,52,53
 425 128 425 128 460.5 97.5 c 128,-1,54
 496 67 496 67 537 67 c 0,55,56
 585 67 585 67 613 101 c 128,-1,57
 641 135 641 135 641 217 c 0,58,59
 641 269 641 269 625.5 316 c 128,-1,60
 610 363 610 363 579 399 c 128,-1,61
 548 435 548 435 501.5 455.5 c 128,-1,62
 455 476 455 476 393 476 c 2,63,-1
 376 476 l 2,64,65
 314 476 314 476 267 457 c 128,-1,66
 220 438 220 438 188 403 c 128,-1,67
 156 368 156 368 140 321.5 c 128,-1,68
 124 275 124 275 124 219 c 0,69,70
 124 137 124 137 151 102 c 128,-1,71
 178 67 178 67 227 67 c 0,48,49
EndSplineSet
Substitution2: "Single Substitution lookup 20 subtable" danocrestknda
Substitution2: "'aalt' Access All Alternates lookup 0 subtable" danocrestknda
EndChar

StartChar: dhaknda
Encoding: 3239 3239 41
Width: 765
GlyphClass: 2
Flags: W
AnchorPoint: "Anchor-0" 382 -24 basechar 0
LayerCount: 2
Fore
SplineSet
216 -12 m 0,0,1
 138 -12 138 -12 90 46 c 128,-1,2
 42 104 42 104 42 220 c 0,3,4
 42 282 42 282 59.5 334 c 128,-1,5
 77 386 77 386 112 425.5 c 128,-1,6
 147 465 147 465 197 487 c 1,7,-1
 212 474 l 1,8,-1
 42 474 l 1,9,-1
 42 551 l 1,10,-1
 512 551 l 2,11,12
 565 551 565 551 587.5 556 c 128,-1,13
 610 561 610 561 620 569 c 0,14,15
 634 579 634 579 638 591.5 c 128,-1,16
 642 604 642 604 642 618 c 0,17,18
 642 651 642 651 626 682.5 c 128,-1,19
 610 714 610 714 577 747 c 1,20,-1
 642 790 l 1,21,22
 689 738 689 738 706 696.5 c 128,-1,23
 723 655 723 655 723 612 c 0,24,25
 723 593 723 593 715 565.5 c 128,-1,26
 707 538 707 538 682 516 c 0,27,28
 672 507 672 507 657.5 499 c 128,-1,29
 643 491 643 491 625 485.5 c 128,-1,30
 607 480 607 480 583 477 c 1,31,-1
 584 483 l 1,32,33
 627 460 627 460 658 421 c 128,-1,34
 689 382 689 382 706 331 c 128,-1,35
 723 280 723 280 723 220 c 0,36,37
 723 104 723 104 674.5 46 c 128,-1,38
 626 -12 626 -12 545 -12 c 0,39,40
 502 -12 502 -12 470.5 -0.5 c 128,-1,41
 439 11 439 11 414 36.5 c 128,-1,42
 389 62 389 62 366 104 c 1,43,-1
 398 109 l 1,44,45
 375 58 375 58 346.5 32 c 128,-1,46
 318 6 318 6 285 -3 c 128,-1,47
 252 -12 252 -12 216 -12 c 0,0,1
227 67 m 0,48,49
 277 67 277 67 308 102 c 128,-1,50
 339 137 339 137 344 195 c 1,51,-1
 420 195 l 1,52,53
 425 128 425 128 460.5 97.5 c 128,-1,54
 496 67 496 67 537 67 c 0,55,56
 585 67 585 67 613 101 c 128,-1,57
 641 135 641 135 641 217 c 0,58,59
 641 269 641 269 625.5 316 c 128,-1,60
 610 363 610 363 579 399 c 128,-1,61
 548 435 548 435 501.5 455.5 c 128,-1,62
 455 476 455 476 393 476 c 2,63,-1
 376 476 l 2,64,65
 314 476 314 476 267 457 c 128,-1,66
 220 438 220 438 188 403 c 128,-1,67
 156 368 156 368 140 321.5 c 128,-1,68
 124 275 124 275 124 219 c 0,69,70
 124 137 124 137 151 102 c 128,-1,71
 178 67 178 67 227 67 c 0,48,49
336 -144 m 1,72,-1
 344 15 l 1,73,-1
 421 15 l 1,74,-1
 429 -144 l 1,75,-1
 336 -144 l 1,72,-1
EndSplineSet
Substitution2: "Single Substitution lookup 20 subtable" dhanocrestknda
Substitution2: "'aalt' Access All Alternates lookup 0 subtable" dhanocrestknda
EndChar

StartChar: naknda
Encoding: 3240 3240 42
Width: 711
GlyphClass: 2
Flags: W
AnchorPoint: "Anchor-0" 355 -24 basechar 0
LayerCount: 2
Fore
SplineSet
483 -12 m 0,0,1
 430 -12 430 -12 395.5 8 c 128,-1,2
 361 28 361 28 337.5 59.5 c 128,-1,3
 314 91 314 91 294 125 c 0,4,5
 269 169 269 169 251 191 c 128,-1,6
 233 213 233 213 217.5 221 c 128,-1,7
 202 229 202 229 182 229 c 0,8,9
 148 229 148 229 129.5 207.5 c 128,-1,10
 111 186 111 186 111 148 c 0,11,12
 111 116 111 116 125 82.5 c 128,-1,13
 139 49 139 49 162 17 c 1,14,-1
 84 -14 l 1,15,16
 61 18 61 18 46 60 c 128,-1,17
 31 102 31 102 31 145 c 0,18,19
 31 192 31 192 51 228 c 128,-1,20
 71 264 71 264 105 284.5 c 128,-1,21
 139 305 139 305 181 305 c 0,22,23
 243 305 243 305 279 276 c 128,-1,24
 315 247 315 247 349 187 c 0,25,26
 372 148 372 148 391 121 c 128,-1,27
 410 94 410 94 433.5 80.5 c 128,-1,28
 457 67 457 67 492 67 c 0,29,30
 544 67 544 67 565.5 103.5 c 128,-1,31
 587 140 587 140 587 190 c 0,32,33
 587 260 587 260 557.5 320 c 128,-1,34
 528 380 528 380 478.5 420.5 c 128,-1,35
 429 461 429 461 367 474 c 1,36,-1
 33 474 l 1,37,-1
 33 551 l 1,38,-1
 458 551 l 2,39,40
 512 551 512 551 533.5 556 c 128,-1,41
 555 561 555 561 566 569 c 0,42,43
 579 579 579 579 583.5 591.5 c 128,-1,44
 588 604 588 604 588 618 c 0,45,46
 588 651 588 651 572 682.5 c 128,-1,47
 556 714 556 714 523 747 c 1,48,-1
 588 790 l 1,49,50
 635 738 635 738 652 696.5 c 128,-1,51
 669 655 669 655 669 612 c 0,52,53
 669 593 669 593 661 565.5 c 128,-1,54
 653 538 653 538 628 516 c 256,55,56
 603 494 603 494 568 484 c 128,-1,57
 533 474 533 474 475 474 c 2,58,-1
 451 474 l 1,59,-1
 508 483 l 1,60,61
 559 451 559 451 595 407 c 128,-1,62
 631 363 631 363 650 310.5 c 128,-1,63
 669 258 669 258 669 198 c 0,64,65
 669 100 669 100 620.5 44 c 128,-1,66
 572 -12 572 -12 483 -12 c 0,0,1
EndSplineSet
Substitution2: "Single Substitution lookup 20 subtable" nanocrestknda
Substitution2: "'aalt' Access All Alternates lookup 0 subtable" nanocrestknda
EndChar

StartChar: paknda
Encoding: 3242 3242 43
Width: 792
GlyphClass: 2
Flags: W
AnchorPoint: "Anchor-0" 410 -24 basechar 0
LayerCount: 2
Fore
SplineSet
226 -12 m 0,0,1
 170 -12 170 -12 125.5 10 c 128,-1,2
 81 32 81 32 56 72 c 128,-1,3
 31 112 31 112 31 167 c 0,4,5
 31 211 31 211 49 246.5 c 128,-1,6
 67 282 67 282 101 303 c 128,-1,7
 135 324 135 324 183 324 c 0,8,9
 236 324 236 324 268 299 c 128,-1,10
 300 274 300 274 300 231 c 0,11,12
 300 215 300 215 297 199 c 128,-1,13
 294 183 294 183 287 172 c 1,14,-1
 219 178 l 1,15,16
 221 186 221 186 223 194.5 c 128,-1,17
 225 203 225 203 225 210 c 0,18,19
 225 232 225 232 213 243 c 128,-1,20
 201 254 201 254 180 254 c 0,21,22
 149 254 149 254 128.5 232.5 c 128,-1,23
 108 211 108 211 108 170 c 0,24,25
 108 125 108 125 139 96 c 128,-1,26
 170 67 170 67 234 67 c 0,27,28
 303 67 303 67 335 102 c 128,-1,29
 367 137 367 137 372 195 c 1,30,-1
 448 195 l 1,31,32
 453 128 453 128 487.5 97.5 c 128,-1,33
 522 67 522 67 570 67 c 0,34,35
 606 67 606 67 628 83 c 128,-1,36
 650 99 650 99 660 127.5 c 128,-1,37
 670 156 670 156 670 191 c 0,38,39
 670 237 670 237 652 284.5 c 128,-1,40
 634 332 634 332 586 387 c 1,41,-1
 657 435 l 1,42,43
 703 384 703 384 727.5 326.5 c 128,-1,44
 752 269 752 269 752 198 c 0,45,46
 752 126 752 126 727.5 79.5 c 128,-1,47
 703 33 703 33 663 10.5 c 128,-1,48
 623 -12 623 -12 577 -12 c 0,49,50
 526 -12 526 -12 494 1 c 128,-1,51
 462 14 462 14 440 39.5 c 128,-1,52
 418 65 418 65 396 101 c 1,53,-1
 427 105 l 1,54,55
 401 57 401 57 371.5 32 c 128,-1,56
 342 7 342 7 306.5 -2.5 c 128,-1,57
 271 -12 271 -12 226 -12 c 0,0,1
401 297 m 0,58,59
 377 297 377 297 360.5 314 c 128,-1,60
 344 331 344 331 344 355 c 0,61,62
 344 381 344 381 360.5 398 c 128,-1,63
 377 415 377 415 401 415 c 0,64,65
 426 415 426 415 443 398 c 128,-1,66
 460 381 460 381 460 355 c 0,67,68
 460 331 460 331 443 314 c 128,-1,69
 426 297 426 297 401 297 c 0,58,59
31 474 m 1,70,-1
 31 551 l 1,71,-1
 541 551 l 2,72,73
 595 551 595 551 617 556 c 128,-1,74
 639 561 639 561 649 569 c 0,75,76
 663 579 663 579 667 591.5 c 128,-1,77
 671 604 671 604 671 618 c 0,78,79
 671 651 671 651 655 682.5 c 128,-1,80
 639 714 639 714 606 747 c 1,81,-1
 671 790 l 1,82,83
 718 738 718 738 735 696.5 c 128,-1,84
 752 655 752 655 752 612 c 0,85,86
 752 593 752 593 744.5 565.5 c 128,-1,87
 737 538 737 538 711 516 c 0,88,89
 686 494 686 494 651.5 484 c 128,-1,90
 617 474 617 474 559 474 c 2,91,-1
 31 474 l 1,70,-1
EndSplineSet
Substitution2: "Single Substitution lookup 20 subtable" panocrestknda
Substitution2: "Single Substitution lookup 5 subtable" pasubscriptknda
AlternateSubs2: "'aalt' Access All Alternates lookup 1 subtable" pasubscriptknda panocrestknda
EndChar

StartChar: phaknda
Encoding: 3243 3243 44
Width: 792
GlyphClass: 2
Flags: W
AnchorPoint: "Anchor-0" 410 -24 basechar 0
LayerCount: 2
Fore
SplineSet
226 -12 m 0,0,1
 170 -12 170 -12 125.5 10 c 128,-1,2
 81 32 81 32 56 72 c 128,-1,3
 31 112 31 112 31 167 c 0,4,5
 31 211 31 211 49 246.5 c 128,-1,6
 67 282 67 282 101 303 c 128,-1,7
 135 324 135 324 183 324 c 0,8,9
 236 324 236 324 268 299 c 128,-1,10
 300 274 300 274 300 231 c 0,11,12
 300 215 300 215 297 199 c 128,-1,13
 294 183 294 183 287 172 c 1,14,-1
 219 178 l 1,15,16
 221 186 221 186 223 194.5 c 128,-1,17
 225 203 225 203 225 210 c 0,18,19
 225 232 225 232 213 243 c 128,-1,20
 201 254 201 254 180 254 c 0,21,22
 149 254 149 254 128.5 232.5 c 128,-1,23
 108 211 108 211 108 170 c 0,24,25
 108 125 108 125 139 96 c 128,-1,26
 170 67 170 67 234 67 c 0,27,28
 303 67 303 67 335 102 c 128,-1,29
 367 137 367 137 372 195 c 1,30,-1
 448 195 l 1,31,32
 453 128 453 128 487.5 97.5 c 128,-1,33
 522 67 522 67 570 67 c 0,34,35
 606 67 606 67 628 83 c 128,-1,36
 650 99 650 99 660 127.5 c 128,-1,37
 670 156 670 156 670 191 c 0,38,39
 670 237 670 237 652 284.5 c 128,-1,40
 634 332 634 332 586 387 c 1,41,-1
 657 435 l 1,42,43
 703 384 703 384 727.5 326.5 c 128,-1,44
 752 269 752 269 752 198 c 0,45,46
 752 126 752 126 727.5 79.5 c 128,-1,47
 703 33 703 33 663 10.5 c 128,-1,48
 623 -12 623 -12 577 -12 c 0,49,50
 526 -12 526 -12 494 1 c 128,-1,51
 462 14 462 14 440 39.5 c 128,-1,52
 418 65 418 65 396 101 c 1,53,-1
 427 105 l 1,54,55
 401 57 401 57 371.5 32 c 128,-1,56
 342 7 342 7 306.5 -2.5 c 128,-1,57
 271 -12 271 -12 226 -12 c 0,0,1
364 -144 m 1,58,-1
 372 15 l 1,59,-1
 449 15 l 1,60,-1
 457 -144 l 1,61,-1
 364 -144 l 1,58,-1
401 297 m 0,62,63
 377 297 377 297 360.5 314 c 128,-1,64
 344 331 344 331 344 355 c 0,65,66
 344 381 344 381 360.5 398 c 128,-1,67
 377 415 377 415 401 415 c 0,68,69
 426 415 426 415 443 398 c 128,-1,70
 460 381 460 381 460 355 c 0,71,72
 460 331 460 331 443 314 c 128,-1,73
 426 297 426 297 401 297 c 0,62,63
31 474 m 1,74,-1
 31 551 l 1,75,-1
 541 551 l 2,76,77
 595 551 595 551 617 556 c 128,-1,78
 639 561 639 561 649 569 c 0,79,80
 663 579 663 579 667 591.5 c 128,-1,81
 671 604 671 604 671 618 c 0,82,83
 671 651 671 651 655 682.5 c 128,-1,84
 639 714 639 714 606 747 c 1,85,-1
 671 790 l 1,86,87
 718 738 718 738 735 696.5 c 128,-1,88
 752 655 752 655 752 612 c 0,89,90
 752 593 752 593 744.5 565.5 c 128,-1,91
 737 538 737 538 711 516 c 0,92,93
 686 494 686 494 651.5 484 c 128,-1,94
 617 474 617 474 559 474 c 2,95,-1
 31 474 l 1,74,-1
EndSplineSet
Substitution2: "Single Substitution lookup 20 subtable" phanocrestknda
Substitution2: "Single Substitution lookup 5 subtable" phasubscriptknda
AlternateSubs2: "'aalt' Access All Alternates lookup 1 subtable" phasubscriptknda phanocrestknda
EndChar

StartChar: baknda
Encoding: 3244 3244 45
Width: 800
GlyphClass: 2
Flags: W
AnchorPoint: "Anchor-0" 395 -24 basechar 0
LayerCount: 2
Fore
SplineSet
557 -12 m 0,0,1
 518 -12 518 -12 486.5 -0.5 c 128,-1,2
 455 11 455 11 429 37 c 128,-1,3
 403 63 403 63 379 105 c 1,4,-1
 411 104 l 1,5,6
 388 59 388 59 360.5 34 c 128,-1,7
 333 9 333 9 298.5 -1.5 c 128,-1,8
 264 -12 264 -12 218 -12 c 0,9,10
 162 -12 162 -12 124 9.5 c 128,-1,11
 86 31 86 31 67.5 65 c 128,-1,12
 49 99 49 99 49 136 c 0,13,14
 49 179 49 179 65.5 210 c 128,-1,15
 82 241 82 241 113 267.5 c 128,-1,16
 144 294 144 294 187 321 c 0,17,18
 225 346 225 346 248 368 c 128,-1,19
 271 390 271 390 271 422 c 0,20,21
 271 443 271 443 263 458.5 c 128,-1,22
 255 474 255 474 237.5 482 c 128,-1,23
 220 490 220 490 190 490 c 0,24,25
 147 490 147 490 127 471.5 c 128,-1,26
 107 453 107 453 107 422 c 0,27,28
 107 406 107 406 112 391.5 c 128,-1,29
 117 377 117 377 127 363 c 1,30,-1
 57 332 l 1,31,32
 41 357 41 357 33.5 381.5 c 128,-1,33
 26 406 26 406 26 431 c 0,34,35
 26 466 26 466 44 496 c 128,-1,36
 62 526 62 526 98.5 544.5 c 128,-1,37
 135 563 135 563 191 563 c 0,38,39
 253 563 253 563 288 541.5 c 128,-1,40
 323 520 323 520 337.5 488 c 128,-1,41
 352 456 352 456 352 423 c 0,42,43
 352 387 352 387 336.5 358.5 c 128,-1,44
 321 330 321 330 292.5 305 c 128,-1,45
 264 280 264 280 224 254 c 0,46,47
 178 224 178 224 154.5 201 c 128,-1,48
 131 178 131 178 131 141 c 0,49,50
 131 102 131 102 157 84.5 c 128,-1,51
 183 67 183 67 223 67 c 0,52,53
 290 67 290 67 322 102 c 128,-1,54
 354 137 354 137 358 195 c 1,55,-1
 434 195 l 1,56,57
 439 128 439 128 475.5 97.5 c 128,-1,58
 512 67 512 67 561 67 c 0,59,60
 616 67 616 67 648.5 106 c 128,-1,61
 681 145 681 145 681 210 c 0,62,63
 681 280 681 280 656.5 333 c 128,-1,64
 632 386 632 386 588 424.5 c 128,-1,65
 544 463 544 463 485 488 c 1,66,-1
 528 565 l 1,67,68
 596 532 596 532 649 482 c 128,-1,69
 702 432 702 432 732.5 365 c 128,-1,70
 763 298 763 298 763 215 c 0,71,72
 763 147 763 147 739 96 c 128,-1,73
 715 45 715 45 669 16.5 c 128,-1,74
 623 -12 623 -12 557 -12 c 0,0,1
EndSplineSet
Substitution2: "Single Substitution lookup 20 subtable" banocrestknda
Substitution2: "'aalt' Access All Alternates lookup 0 subtable" banocrestknda
EndChar

StartChar: bhaknda
Encoding: 3245 3245 46
Width: 805
GlyphClass: 2
Flags: W
AnchorPoint: "Anchor-0" 395 -24 basechar 0
LayerCount: 2
Fore
SplineSet
218 -12 m 0,0,1
 162 -12 162 -12 124 9.5 c 128,-1,2
 86 31 86 31 67.5 65 c 128,-1,3
 49 99 49 99 49 136 c 0,4,5
 49 179 49 179 65.5 210 c 128,-1,6
 82 241 82 241 113 267.5 c 128,-1,7
 144 294 144 294 187 321 c 0,8,9
 225 346 225 346 248 368 c 128,-1,10
 271 390 271 390 271 422 c 0,11,12
 271 443 271 443 263 458.5 c 128,-1,13
 255 474 255 474 237.5 482 c 128,-1,14
 220 490 220 490 190 490 c 0,15,16
 147 490 147 490 127 471.5 c 128,-1,17
 107 453 107 453 107 422 c 0,18,19
 107 406 107 406 112 391.5 c 128,-1,20
 117 377 117 377 127 363 c 1,21,-1
 57 332 l 1,22,23
 41 357 41 357 33.5 381.5 c 128,-1,24
 26 406 26 406 26 431 c 0,25,26
 26 466 26 466 44 496 c 128,-1,27
 62 526 62 526 98.5 544.5 c 128,-1,28
 135 563 135 563 191 563 c 0,29,30
 253 563 253 563 288 541.5 c 128,-1,31
 323 520 323 520 337.5 488 c 128,-1,32
 352 456 352 456 352 423 c 0,33,34
 352 387 352 387 336.5 358.5 c 128,-1,35
 321 330 321 330 292.5 305 c 128,-1,36
 264 280 264 280 224 254 c 0,37,38
 178 224 178 224 154.5 201 c 128,-1,39
 131 178 131 178 131 141 c 0,40,41
 131 102 131 102 157 84.5 c 128,-1,42
 183 67 183 67 223 67 c 0,43,44
 290 67 290 67 321.5 102 c 128,-1,45
 353 137 353 137 357 195 c 1,46,-1
 434 195 l 1,47,48
 439 128 439 128 475.5 97.5 c 128,-1,49
 512 67 512 67 561 67 c 0,50,51
 616 67 616 67 649 106 c 128,-1,52
 682 145 682 145 682 210 c 0,53,54
 682 276 682 276 656.5 329.5 c 128,-1,55
 631 383 631 383 584.5 421 c 128,-1,56
 538 459 538 459 476 477 c 1,57,-1
 614 483 l 1,58,59
 661 453 661 453 694.5 413.5 c 128,-1,60
 728 374 728 374 746 325 c 128,-1,61
 764 276 764 276 764 215 c 0,62,63
 764 147 764 147 739.5 96 c 128,-1,64
 715 45 715 45 669 16.5 c 128,-1,65
 623 -12 623 -12 557 -12 c 0,66,67
 499 -12 499 -12 456.5 14.5 c 128,-1,68
 414 41 414 41 379 105 c 1,69,-1
 411 104 l 1,70,71
 388 59 388 59 360.5 34 c 128,-1,72
 333 9 333 9 298.5 -1.5 c 128,-1,73
 264 -12 264 -12 218 -12 c 0,0,1
349 -144 m 1,74,-1
 357 15 l 1,75,-1
 434 15 l 1,76,-1
 442 -144 l 1,77,-1
 349 -144 l 1,74,-1
431 474 m 1,78,-1
 431 551 l 1,79,-1
 543 551 l 2,80,81
 597 551 597 551 619 556 c 128,-1,82
 641 561 641 561 652 569 c 0,83,84
 665 579 665 579 669.5 591.5 c 128,-1,85
 674 604 674 604 674 618 c 0,86,87
 674 651 674 651 658 682.5 c 128,-1,88
 642 714 642 714 609 747 c 1,89,-1
 674 790 l 1,90,91
 721 738 721 738 738 696.5 c 128,-1,92
 755 655 755 655 755 612 c 0,93,94
 755 593 755 593 747 565.5 c 128,-1,95
 739 538 739 538 714 516 c 0,96,97
 688 494 688 494 653.5 484 c 128,-1,98
 619 474 619 474 562 474 c 2,99,-1
 431 474 l 1,78,-1
EndSplineSet
Substitution2: "Single Substitution lookup 20 subtable" bhanocrestknda
Substitution2: "'aalt' Access All Alternates lookup 0 subtable" bhanocrestknda
EndChar

StartChar: maknda
Encoding: 3246 3246 47
Width: 1156
GlyphClass: 2
Flags: W
AnchorPoint: "Anchor-0" 578 -24 basechar 0
LayerCount: 2
Fore
SplineSet
226 -12 m 0,0,1
 170 -12 170 -12 125.5 10 c 128,-1,2
 81 32 81 32 56 72 c 128,-1,3
 31 112 31 112 31 167 c 0,4,5
 31 211 31 211 49 246.5 c 128,-1,6
 67 282 67 282 101 303 c 128,-1,7
 135 324 135 324 183 324 c 0,8,9
 236 324 236 324 268 299 c 128,-1,10
 300 274 300 274 300 231 c 0,11,12
 300 215 300 215 297 199 c 128,-1,13
 294 183 294 183 287 172 c 1,14,-1
 219 178 l 1,15,16
 221 184 221 184 223 193.5 c 128,-1,17
 225 203 225 203 225 210 c 0,18,19
 225 232 225 232 213 243 c 128,-1,20
 201 254 201 254 180 254 c 0,21,22
 149 254 149 254 128 232.5 c 128,-1,23
 107 211 107 211 107 170 c 0,24,25
 107 125 107 125 138.5 96 c 128,-1,26
 170 67 170 67 234 67 c 0,27,28
 303 67 303 67 335 102 c 128,-1,29
 367 137 367 137 372 195 c 1,30,-1
 448 195 l 1,31,32
 453 128 453 128 487.5 97.5 c 128,-1,33
 522 67 522 67 570 67 c 0,34,35
 626 67 626 67 648 103.5 c 128,-1,36
 670 140 670 140 670 191 c 0,37,38
 670 250 670 250 649.5 299.5 c 128,-1,39
 629 349 629 349 595 387 c 128,-1,40
 561 425 561 425 520 448 c 128,-1,41
 479 471 479 471 438 477 c 1,42,-1
 591 483 l 1,43,44
 642 451 642 451 678 407 c 128,-1,45
 714 363 714 363 733 310.5 c 128,-1,46
 752 258 752 258 752 198 c 0,47,48
 752 126 752 126 727.5 79.5 c 128,-1,49
 703 33 703 33 663 10.5 c 128,-1,50
 623 -12 623 -12 577 -12 c 0,51,52
 526 -12 526 -12 494 1 c 128,-1,53
 462 14 462 14 440 39.5 c 128,-1,54
 418 65 418 65 396 101 c 1,55,-1
 427 105 l 1,56,57
 401 57 401 57 371.5 32 c 128,-1,58
 342 7 342 7 306.5 -2.5 c 128,-1,59
 271 -12 271 -12 226 -12 c 0,0,1
31 474 m 1,60,-1
 31 551 l 1,61,-1
 541 551 l 2,62,63
 595 551 595 551 617 556 c 128,-1,64
 639 561 639 561 649 569 c 0,65,66
 663 579 663 579 667 591.5 c 128,-1,67
 671 604 671 604 671 618 c 0,68,69
 671 651 671 651 655 682.5 c 128,-1,70
 639 714 639 714 606 747 c 1,71,-1
 671 790 l 1,72,73
 718 738 718 738 735 696.5 c 128,-1,74
 752 655 752 655 752 612 c 0,75,76
 752 593 752 593 744.5 565.5 c 128,-1,77
 737 538 737 538 711 516 c 0,78,79
 686 494 686 494 651.5 484 c 128,-1,80
 617 474 617 474 559 474 c 2,81,-1
 31 474 l 1,60,-1
908 -12 m 0,82,83
 832 -12 832 -12 775 26.5 c 128,-1,84
 718 65 718 65 673 123 c 1,85,-1
 724 177 l 1,86,87
 766 124 766 124 809.5 95.5 c 128,-1,88
 853 67 853 67 911 67 c 0,89,90
 971 67 971 67 1004 106 c 128,-1,91
 1037 145 1037 145 1037 210 c 0,92,93
 1037 280 1037 280 1012 333 c 128,-1,94
 987 386 987 386 943 424.5 c 128,-1,95
 899 463 899 463 841 488 c 1,96,-1
 884 565 l 1,97,98
 952 532 952 532 1005 482 c 128,-1,99
 1058 432 1058 432 1088.5 365 c 128,-1,100
 1119 298 1119 298 1119 215 c 0,101,102
 1119 150 1119 150 1096 98.5 c 128,-1,103
 1073 47 1073 47 1026 17.5 c 128,-1,104
 979 -12 979 -12 908 -12 c 0,82,83
EndSplineSet
Substitution2: "Single Substitution lookup 20 subtable" manocrestknda
Substitution2: "'aalt' Access All Alternates lookup 0 subtable" manocrestknda
EndChar

StartChar: yaknda
Encoding: 3247 3247 48
Width: 1336
GlyphClass: 2
Flags: W
AnchorPoint: "Anchor-0" 669 -24 basechar 0
LayerCount: 2
Fore
SplineSet
308 -12 m 0,0,1
 234 -12 234 -12 183 14 c 128,-1,2
 132 40 132 40 100.5 83 c 128,-1,3
 69 126 69 126 54.5 177 c 128,-1,4
 40 228 40 228 40 279 c 0,5,6
 40 360 40 360 73 424.5 c 128,-1,7
 106 489 106 489 166 526 c 128,-1,8
 226 563 226 563 306 563 c 0,9,10
 381 563 381 563 432 536.5 c 128,-1,11
 483 510 483 510 514 467 c 128,-1,12
 545 424 545 424 558.5 373.5 c 128,-1,13
 572 323 572 323 572 276 c 0,14,15
 572 191 572 191 539 126 c 128,-1,16
 506 61 506 61 447 24.5 c 128,-1,17
 388 -12 388 -12 308 -12 c 0,0,1
306 67 m 0,18,19
 362 67 362 67 403 91.5 c 128,-1,20
 444 116 444 116 467 163.5 c 128,-1,21
 490 211 490 211 490 279 c 0,22,23
 490 340 490 340 469 386 c 128,-1,24
 448 432 448 432 407 458 c 128,-1,25
 366 484 366 484 305 484 c 0,26,27
 253 484 253 484 211.5 461 c 128,-1,28
 170 438 170 438 146 392 c 128,-1,29
 122 346 122 346 122 277 c 0,30,31
 122 209 122 209 144 162 c 128,-1,32
 166 115 166 115 207.5 91 c 128,-1,33
 249 67 249 67 306 67 c 0,18,19
721 -12 m 0,34,35
 645 -12 645 -12 588 26.5 c 128,-1,36
 531 65 531 65 486 123 c 1,37,-1
 538 177 l 1,38,39
 579 124 579 124 623 95.5 c 128,-1,40
 667 67 667 67 722 67 c 0,41,42
 784 67 784 67 817 106 c 128,-1,43
 850 145 850 145 850 210 c 0,44,45
 850 276 850 276 824.5 329.5 c 128,-1,46
 799 383 799 383 752.5 421 c 128,-1,47
 706 459 706 459 644 477 c 1,48,-1
 782 481 l 1,49,50
 830 451 830 451 863.5 412.5 c 128,-1,51
 897 374 897 374 914.5 325 c 128,-1,52
 932 276 932 276 932 215 c 0,53,54
 932 175 932 175 921.5 134.5 c 128,-1,55
 911 94 911 94 887 61 c 128,-1,56
 863 28 863 28 822 8 c 128,-1,57
 781 -12 781 -12 721 -12 c 0,34,35
1088 -12 m 0,58,59
 1012 -12 1012 -12 955.5 26.5 c 128,-1,60
 899 65 899 65 853 123 c 1,61,-1
 904 177 l 1,62,63
 946 124 946 124 990 95.5 c 128,-1,64
 1034 67 1034 67 1091 67 c 0,65,66
 1151 67 1151 67 1184 106 c 128,-1,67
 1217 145 1217 145 1217 210 c 0,68,69
 1217 280 1217 280 1192 333 c 128,-1,70
 1167 386 1167 386 1123 424.5 c 128,-1,71
 1079 463 1079 463 1021 488 c 1,72,-1
 1064 565 l 1,73,74
 1132 532 1132 532 1185 482 c 128,-1,75
 1238 432 1238 432 1268.5 365 c 128,-1,76
 1299 298 1299 298 1299 215 c 0,77,78
 1299 150 1299 150 1276 98.5 c 128,-1,79
 1253 47 1253 47 1206.5 17.5 c 128,-1,80
 1160 -12 1160 -12 1088 -12 c 0,58,59
923 612 m 0,81,82
 923 593 923 593 915.5 565.5 c 128,-1,83
 908 538 908 538 882 516 c 0,84,85
 857 494 857 494 822.5 484 c 128,-1,86
 788 474 788 474 730 474 c 2,87,-1
 600 474 l 1,88,-1
 600 551 l 1,89,-1
 712 551 l 2,90,91
 766 551 766 551 788 556 c 128,-1,92
 810 561 810 561 820 569 c 0,93,94
 833 579 833 579 837.5 591.5 c 128,-1,95
 842 604 842 604 842 618 c 0,96,97
 842 651 842 651 826 682.5 c 128,-1,98
 810 714 810 714 777 747 c 1,99,-1
 842 790 l 1,100,101
 889 738 889 738 906 696.5 c 128,-1,102
 923 655 923 655 923 612 c 0,81,82
EndSplineSet
Substitution2: "Single Substitution lookup 20 subtable" yanocrestknda
Substitution2: "'aalt' Access All Alternates lookup 0 subtable" yanocrestknda
EndChar

StartChar: raknda
Encoding: 3248 3248 49
Width: 651
GlyphClass: 2
Flags: W
AnchorPoint: "Anchor-0" 326 -24 basechar 0
LayerCount: 2
Fore
SplineSet
326 -12 m 0,0,1
 245 -12 245 -12 180.5 19 c 128,-1,2
 116 50 116 50 79 109.5 c 128,-1,3
 42 169 42 169 42 255 c 0,4,5
 42 312 42 312 57.5 356 c 128,-1,6
 73 400 73 400 101 433 c 128,-1,7
 129 466 129 466 168 488 c 1,8,-1
 186 474 l 1,9,-1
 42 474 l 1,10,-1
 42 551 l 1,11,-1
 398 551 l 2,12,13
 452 551 452 551 474 556 c 128,-1,14
 496 561 496 561 507 569 c 0,15,16
 520 579 520 579 524.5 591.5 c 128,-1,17
 529 604 529 604 529 618 c 0,18,19
 529 651 529 651 513 682.5 c 128,-1,20
 497 714 497 714 464 747 c 1,21,-1
 529 790 l 1,22,23
 576 738 576 738 593 696.5 c 128,-1,24
 610 655 610 655 610 612 c 0,25,26
 610 593 610 593 602 565.5 c 128,-1,27
 594 538 594 538 569 516 c 0,28,29
 556 504 556 504 538 494.5 c 128,-1,30
 520 485 520 485 496 480 c 1,31,-1
 491 488 l 1,32,33
 529 464 529 464 555.5 431.5 c 128,-1,34
 582 399 582 399 596 356 c 128,-1,35
 610 313 610 313 610 255 c 0,36,37
 610 177 610 177 576 117 c 128,-1,38
 542 57 542 57 478.5 22.5 c 128,-1,39
 415 -12 415 -12 326 -12 c 0,0,1
327 69 m 0,40,41
 395 69 395 69 439.5 96 c 128,-1,42
 484 123 484 123 506 169.5 c 128,-1,43
 528 216 528 216 528 272 c 0,44,45
 528 337 528 337 501.5 382.5 c 128,-1,46
 475 428 475 428 430 452 c 128,-1,47
 385 476 385 476 328 476 c 0,48,49
 266 476 266 476 220 450.5 c 128,-1,50
 174 425 174 425 149 379.5 c 128,-1,51
 124 334 124 334 124 272 c 0,52,53
 124 175 124 175 179.5 122 c 128,-1,54
 235 69 235 69 327 69 c 0,40,41
EndSplineSet
Substitution2: "Single Substitution lookup 20 subtable" ranocrestknda
Substitution2: "Single Substitution lookup 5 subtable" rvocalicknda
AlternateSubs2: "'aalt' Access All Alternates lookup 1 subtable" rvocalicknda ranocrestknda
EndChar

StartChar: rraknda
Encoding: 3249 3249 50
Width: 893
GlyphClass: 2
Flags: W
AnchorPoint: "Anchor-0" 446 -24 basechar 0
LayerCount: 2
Fore
SplineSet
259 -12 m 0,0,1
 212 -12 212 -12 172.5 5 c 128,-1,2
 133 22 133 22 103.5 55.5 c 128,-1,3
 74 89 74 89 58 139 c 128,-1,4
 42 189 42 189 42 255 c 0,5,6
 42 354 42 354 72 423 c 128,-1,7
 102 492 102 492 152.5 527.5 c 128,-1,8
 203 563 203 563 264 563 c 0,9,10
 329 563 329 563 367 527 c 128,-1,11
 405 491 405 491 405 429 c 0,12,13
 405 398 405 398 393 371 c 128,-1,14
 381 344 381 344 358 324 c 0,15,16
 335 302 335 302 307.5 290 c 128,-1,17
 280 278 280 278 242 278 c 0,18,19
 178 278 178 278 140.5 301 c 128,-1,20
 103 324 103 324 83 348 c 1,21,-1
 107 414 l 1,22,23
 116 402 116 402 132 386.5 c 128,-1,24
 148 371 148 371 171.5 359.5 c 128,-1,25
 195 348 195 348 226 348 c 0,26,27
 282 348 282 348 304.5 370 c 128,-1,28
 327 392 327 392 327 426 c 0,29,30
 327 458 327 458 309 475.5 c 128,-1,31
 291 493 291 493 262 493 c 0,32,33
 231 493 231 493 199 471 c 128,-1,34
 167 449 167 449 145.5 396.5 c 128,-1,35
 124 344 124 344 124 252 c 0,36,37
 124 199 124 199 135 163.5 c 128,-1,38
 146 128 146 128 165.5 106.5 c 128,-1,39
 185 85 185 85 209 76 c 128,-1,40
 233 67 233 67 258 67 c 0,41,42
 307 67 307 67 338.5 84 c 128,-1,43
 370 101 370 101 387 130.5 c 128,-1,44
 404 160 404 160 408 195 c 1,45,-1
 485 195 l 1,46,47
 490 160 490 160 506.5 130.5 c 128,-1,48
 523 101 523 101 554.5 84 c 128,-1,49
 586 67 586 67 635 67 c 0,50,51
 661 67 661 67 684.5 76 c 128,-1,52
 708 85 708 85 727.5 106.5 c 128,-1,53
 747 128 747 128 758 163.5 c 128,-1,54
 769 199 769 199 769 252 c 0,55,56
 769 344 769 344 747.5 396.5 c 128,-1,57
 726 449 726 449 694 471 c 128,-1,58
 662 493 662 493 631 493 c 0,59,60
 603 493 603 493 584.5 475.5 c 128,-1,61
 566 458 566 458 566 426 c 0,62,63
 566 392 566 392 589 370 c 128,-1,64
 612 348 612 348 667 348 c 0,65,66
 699 348 699 348 722.5 359.5 c 128,-1,67
 746 371 746 371 761.5 386.5 c 128,-1,68
 777 402 777 402 786 414 c 1,69,-1
 811 348 l 1,70,71
 791 324 791 324 752 301 c 128,-1,72
 713 278 713 278 651 278 c 0,73,74
 616 278 616 278 590.5 288.5 c 128,-1,75
 565 299 565 299 542 317 c 0,76,77
 517 338 517 338 502.5 366.5 c 128,-1,78
 488 395 488 395 488 429 c 0,79,80
 488 490 488 490 526.5 526.5 c 128,-1,81
 565 563 565 563 630 563 c 0,82,83
 691 563 691 563 741 527.5 c 128,-1,84
 791 492 791 492 821 423 c 128,-1,85
 851 354 851 354 851 255 c 0,86,87
 851 189 851 189 835 139 c 128,-1,88
 819 89 819 89 789.5 55.5 c 128,-1,89
 760 22 760 22 720.5 5 c 128,-1,90
 681 -12 681 -12 634 -12 c 256,91,92
 587 -12 587 -12 551 -1.5 c 128,-1,93
 515 9 515 9 486 34 c 128,-1,94
 457 59 457 59 430 103 c 1,95,-1
 463 103 l 1,96,97
 436 59 436 59 407 34 c 128,-1,98
 378 9 378 9 342.5 -1.5 c 128,-1,99
 307 -12 307 -12 259 -12 c 0,0,1
242 278 m 1,100,-1
 306 348 l 1,101,102
 320 350 320 350 338 351 c 128,-1,103
 356 352 356 352 375.5 353 c 128,-1,104
 395 354 395 354 412 354 c 2,105,-1
 481 354 l 2,106,107
 497 354 497 354 515 353 c 128,-1,108
 533 352 533 352 551 350 c 128,-1,109
 569 348 569 348 584 345 c 1,110,-1
 651 278 l 1,111,-1
 242 278 l 1,100,-1
EndSplineSet
EndChar

StartChar: laknda
Encoding: 3250 3250 51
Width: 759
GlyphClass: 2
Flags: W
AnchorPoint: "Anchor-0" 379 -24 basechar 0
LayerCount: 2
Fore
SplineSet
375 -12 m 0,0,1
 267 -12 267 -12 191.5 29 c 128,-1,2
 116 70 116 70 76.5 142.5 c 128,-1,3
 37 215 37 215 37 308 c 0,4,5
 37 387 37 387 62.5 444 c 128,-1,6
 88 501 88 501 134.5 532 c 128,-1,7
 181 563 181 563 242 563 c 0,8,9
 287 563 287 563 319 547 c 128,-1,10
 351 531 351 531 368 501 c 128,-1,11
 385 471 385 471 385 429 c 0,12,13
 385 386 385 386 365.5 352 c 128,-1,14
 346 318 346 318 307.5 298 c 128,-1,15
 269 278 269 278 212 278 c 0,16,17
 190 278 190 278 171 282 c 128,-1,18
 152 286 152 286 136.5 293.5 c 128,-1,19
 121 301 121 301 108 309 c 1,20,-1
 118 380 l 1,21,22
 128 373 128 373 141.5 365.5 c 128,-1,23
 155 358 155 358 171 353 c 128,-1,24
 187 348 187 348 206 348 c 0,25,26
 259 348 259 348 283 370.5 c 128,-1,27
 307 393 307 393 307 427 c 0,28,29
 307 459 307 459 289 476 c 128,-1,30
 271 493 271 493 242 493 c 0,31,32
 209 493 209 493 180 475 c 128,-1,33
 151 457 151 457 133 416 c 128,-1,34
 115 375 115 375 115 306 c 0,35,36
 115 241 115 241 145 187 c 128,-1,37
 175 133 175 133 233.5 101 c 128,-1,38
 292 69 292 69 378 69 c 0,39,40
 462 69 462 69 520.5 94 c 128,-1,41
 579 119 579 119 609.5 166.5 c 128,-1,42
 640 214 640 214 640 281 c 0,43,44
 640 352 640 352 600 403.5 c 128,-1,45
 560 455 560 455 492 491 c 1,46,-1
 538 565 l 1,47,48
 625 518 625 518 673.5 448 c 128,-1,49
 722 378 722 378 722 281 c 0,50,51
 722 201 722 201 686.5 134.5 c 128,-1,52
 651 68 651 68 574.5 28 c 128,-1,53
 498 -12 498 -12 375 -12 c 0,0,1
EndSplineSet
Substitution2: "Single Substitution lookup 20 subtable" lanocrestknda
Substitution2: "'aalt' Access All Alternates lookup 0 subtable" lanocrestknda
EndChar

StartChar: llaknda
Encoding: 3251 3251 52
Width: 710
GlyphClass: 2
Flags: W
AnchorPoint: "Anchor-0" 363 -24 basechar 0
LayerCount: 2
Fore
SplineSet
362 -12 m 0,0,1
 324 -12 324 -12 288.5 -0.5 c 128,-1,2
 253 11 253 11 230.5 36.5 c 128,-1,3
 208 62 208 62 208 104 c 0,4,5
 208 128 208 128 221.5 151 c 128,-1,6
 235 174 235 174 260 189 c 1,7,-1
 254 169 l 1,8,9
 189 179 189 179 138 208.5 c 128,-1,10
 87 238 87 238 58.5 283 c 128,-1,11
 30 328 30 328 30 385 c 0,12,13
 30 438 30 438 51 478 c 128,-1,14
 72 518 72 518 111.5 540.5 c 128,-1,15
 151 563 151 563 206 563 c 0,16,17
 245 563 245 563 276 549.5 c 128,-1,18
 307 536 307 536 325.5 509.5 c 128,-1,19
 344 483 344 483 344 443 c 0,20,21
 344 408 344 408 328 378 c 128,-1,22
 312 348 312 348 276 329.5 c 128,-1,23
 240 311 240 311 178 311 c 0,24,25
 155 311 155 311 126 318.5 c 128,-1,26
 97 326 97 326 78 337 c 1,27,-1
 85 400 l 1,28,29
 105 389 105 389 126.5 384 c 128,-1,30
 148 379 148 379 169 379 c 0,31,32
 222 379 222 379 244 397 c 128,-1,33
 266 415 266 415 266 440 c 0,34,35
 266 466 266 466 247.5 479.5 c 128,-1,36
 229 493 229 493 200 493 c 0,37,38
 155 493 155 493 129 465.5 c 128,-1,39
 103 438 103 438 103 394 c 0,40,41
 103 361 103 361 116 332.5 c 128,-1,42
 129 304 129 304 159 283 c 128,-1,43
 189 262 189 262 239.5 249 c 128,-1,44
 290 236 290 236 365 233 c 1,45,46
 480 236 480 236 536 270.5 c 128,-1,47
 592 305 592 305 592 366 c 0,48,49
 592 410 592 410 567.5 436 c 128,-1,50
 543 462 543 462 512 474 c 1,51,-1
 416 474 l 1,52,-1
 416 551 l 1,53,-1
 465 551 l 2,54,55
 519 551 519 551 541 556 c 128,-1,56
 563 561 563 561 574 569 c 0,57,58
 587 579 587 579 591.5 591.5 c 128,-1,59
 596 604 596 604 596 618 c 0,60,61
 596 651 596 651 580 682.5 c 128,-1,62
 564 714 564 714 531 747 c 1,63,-1
 596 790 l 1,64,65
 643 738 643 738 660 696.5 c 128,-1,66
 677 655 677 655 677 612 c 0,67,68
 677 566 677 566 652 533.5 c 128,-1,69
 627 501 627 501 585 487 c 1,70,-1
 571 516 l 1,71,72
 602 499 602 499 625 477.5 c 128,-1,73
 648 456 648 456 660.5 428.5 c 128,-1,74
 673 401 673 401 673 365 c 0,75,76
 673 317 673 317 655 282.5 c 128,-1,77
 637 248 637 248 608 225 c 128,-1,78
 579 202 579 202 544.5 188 c 128,-1,79
 510 174 510 174 477 168 c 1,80,-1
 469 194 l 1,81,82
 494 178 494 178 506.5 157 c 128,-1,83
 519 136 519 136 519 105 c 0,84,85
 519 53 519 53 479 20.5 c 128,-1,86
 439 -12 439 -12 362 -12 c 0,0,1
364 59 m 0,87,88
 400 59 400 59 421 71.5 c 128,-1,89
 442 84 442 84 442 112 c 0,90,91
 442 139 442 139 420 155 c 128,-1,92
 398 171 398 171 363 172 c 0,93,94
 324 170 324 170 304.5 154 c 128,-1,95
 285 138 285 138 285 112 c 0,96,97
 285 89 285 89 304.5 74 c 128,-1,98
 324 59 324 59 364 59 c 0,87,88
EndSplineSet
Substitution2: "Single Substitution lookup 20 subtable" llanocrestknda
Substitution2: "'aalt' Access All Alternates lookup 0 subtable" llanocrestknda
EndChar

StartChar: vaknda
Encoding: 3253 3253 53
Width: 794
GlyphClass: 2
Flags: W
AnchorPoint: "Anchor-0" 410 -24 basechar 0
LayerCount: 2
Fore
SplineSet
226 -12 m 0,0,1
 170 -12 170 -12 125.5 10 c 128,-1,2
 81 32 81 32 56 72 c 128,-1,3
 31 112 31 112 31 167 c 0,4,5
 31 211 31 211 49 246.5 c 128,-1,6
 67 282 67 282 101 303 c 128,-1,7
 135 324 135 324 183 324 c 0,8,9
 236 324 236 324 268 299 c 128,-1,10
 300 274 300 274 300 231 c 0,11,12
 300 215 300 215 297 199 c 128,-1,13
 294 183 294 183 287 172 c 1,14,-1
 219 178 l 1,15,16
 221 184 221 184 223 193.5 c 128,-1,17
 225 203 225 203 225 210 c 0,18,19
 225 232 225 232 213 243 c 128,-1,20
 201 254 201 254 180 254 c 0,21,22
 149 254 149 254 128.5 232.5 c 128,-1,23
 108 211 108 211 108 170 c 0,24,25
 108 125 108 125 139 96 c 128,-1,26
 170 67 170 67 234 67 c 0,27,28
 303 67 303 67 335 102 c 128,-1,29
 367 137 367 137 372 195 c 1,30,-1
 448 195 l 1,31,32
 453 128 453 128 487.5 97.5 c 128,-1,33
 522 67 522 67 570 67 c 0,34,35
 626 67 626 67 648 103.5 c 128,-1,36
 670 140 670 140 670 191 c 0,37,38
 670 250 670 250 649.5 299.5 c 128,-1,39
 629 349 629 349 595 387 c 128,-1,40
 561 425 561 425 520 448 c 128,-1,41
 479 471 479 471 438 477 c 1,42,-1
 591 483 l 1,43,44
 642 451 642 451 678 407 c 128,-1,45
 714 363 714 363 733 310.5 c 128,-1,46
 752 258 752 258 752 198 c 0,47,48
 752 126 752 126 727.5 79.5 c 128,-1,49
 703 33 703 33 663 10.5 c 128,-1,50
 623 -12 623 -12 577 -12 c 0,51,52
 526 -12 526 -12 494 1 c 128,-1,53
 462 14 462 14 440 39.5 c 128,-1,54
 418 65 418 65 396 101 c 1,55,-1
 427 105 l 1,56,57
 401 57 401 57 371.5 32 c 128,-1,58
 342 7 342 7 306.5 -2.5 c 128,-1,59
 271 -12 271 -12 226 -12 c 0,0,1
31 474 m 1,60,-1
 31 551 l 1,61,-1
 541 551 l 2,62,63
 595 551 595 551 617 556 c 128,-1,64
 639 561 639 561 649 569 c 0,65,66
 663 579 663 579 667 591.5 c 128,-1,67
 671 604 671 604 671 618 c 0,68,69
 671 651 671 651 655 682.5 c 128,-1,70
 639 714 639 714 606 747 c 1,71,-1
 671 790 l 1,72,73
 718 738 718 738 735 696.5 c 128,-1,74
 752 655 752 655 752 612 c 0,75,76
 752 593 752 593 744.5 565.5 c 128,-1,77
 737 538 737 538 711 516 c 0,78,79
 686 494 686 494 651.5 484 c 128,-1,80
 617 474 617 474 559 474 c 2,81,-1
 31 474 l 1,60,-1
EndSplineSet
Substitution2: "Single Substitution lookup 20 subtable" vanocrestknda
Substitution2: "'aalt' Access All Alternates lookup 0 subtable" vanocrestknda
EndChar

StartChar: shaknda
Encoding: 3254 3254 54
Width: 630
GlyphClass: 2
Flags: W
AnchorPoint: "Anchor-0" 315 -24 basechar 0
LayerCount: 2
Fore
SplineSet
269 -12 m 0,0,1
 196 -12 196 -12 142.5 7 c 128,-1,2
 89 26 89 26 60 63.5 c 128,-1,3
 31 101 31 101 31 158 c 0,4,5
 31 212 31 212 57 243 c 128,-1,6
 83 274 83 274 126.5 289.5 c 128,-1,7
 170 305 170 305 222 312 c 0,8,9
 269 319 269 319 297 327.5 c 128,-1,10
 325 336 325 336 337.5 354 c 128,-1,11
 350 372 350 372 350 404 c 0,12,13
 350 430 350 430 338 445.5 c 128,-1,14
 326 461 326 461 306 468.5 c 128,-1,15
 286 476 286 476 260 476 c 0,16,17
 225 476 225 476 204.5 467.5 c 128,-1,18
 184 459 184 459 175.5 444.5 c 128,-1,19
 167 430 167 430 167 411 c 0,20,21
 167 401 167 401 170 389 c 128,-1,22
 173 377 173 377 180 367 c 1,23,-1
 105 336 l 1,24,25
 93 359 93 359 88 377 c 128,-1,26
 83 395 83 395 83 417 c 0,27,28
 83 444 83 444 101.5 468.5 c 128,-1,29
 120 493 120 493 160.5 508 c 128,-1,30
 201 523 201 523 267 523 c 0,31,32
 307 523 307 523 342.5 507.5 c 128,-1,33
 378 492 378 492 400 463 c 128,-1,34
 422 434 422 434 422 393 c 0,35,36
 422 344 422 344 400.5 312.5 c 128,-1,37
 379 281 379 281 340 264.5 c 128,-1,38
 301 248 301 248 250 242 c 0,39,40
 203 236 203 236 172.5 226.5 c 128,-1,41
 142 217 142 217 127.5 201 c 128,-1,42
 113 185 113 185 113 158 c 256,43,44
 113 131 113 131 128 110.5 c 128,-1,45
 143 90 143 90 177.5 78.5 c 128,-1,46
 212 67 212 67 269 67 c 0,47,48
 344 67 344 67 397.5 89.5 c 128,-1,49
 451 112 451 112 480 156.5 c 128,-1,50
 509 201 509 201 509 266 c 0,51,52
 509 328 509 328 489.5 370 c 128,-1,53
 470 412 470 412 442 438.5 c 128,-1,54
 414 465 414 465 389 479 c 1,55,-1
 393 501 l 1,56,-1
 459 501 l 1,57,58
 505 473 505 473 534 435.5 c 128,-1,59
 563 398 563 398 577 355 c 128,-1,60
 591 312 591 312 591 265 c 0,61,62
 591 178 591 178 553.5 116 c 128,-1,63
 516 54 516 54 444.5 21 c 128,-1,64
 373 -12 373 -12 269 -12 c 0,0,1
31 474 m 1,65,-1
 31 551 l 1,66,-1
 383 551 l 2,67,68
 437 551 437 551 457 556 c 128,-1,69
 477 561 477 561 488 569 c 0,70,71
 501 579 501 579 505.5 591.5 c 128,-1,72
 510 604 510 604 510 618 c 0,73,74
 510 651 510 651 494 682.5 c 128,-1,75
 478 714 478 714 445 747 c 1,76,-1
 510 790 l 1,77,78
 557 738 557 738 574 696.5 c 128,-1,79
 591 655 591 655 591 612 c 0,80,81
 591 593 591 593 583 565 c 128,-1,82
 575 537 575 537 550 516 c 0,83,84
 537 505 537 505 519 495.5 c 128,-1,85
 501 486 501 486 470.5 480 c 128,-1,86
 440 474 440 474 390 474 c 2,87,-1
 358 474 l 1,88,-1
 249 487 l 1,89,-1
 150 474 l 1,90,-1
 31 474 l 1,65,-1
EndSplineSet
Substitution2: "Single Substitution lookup 20 subtable" shanocrestknda
Substitution2: "'aalt' Access All Alternates lookup 0 subtable" shanocrestknda
EndChar

StartChar: ssaknda
Encoding: 3255 3255 55
Width: 801
GlyphClass: 2
Flags: W
AnchorPoint: "Anchor-0" 410 -24 basechar 0
LayerCount: 2
Fore
SplineSet
226 -12 m 0,0,1
 170 -12 170 -12 125.5 10 c 128,-1,2
 81 32 81 32 56 72 c 128,-1,3
 31 112 31 112 31 167 c 0,4,5
 31 211 31 211 49 246.5 c 128,-1,6
 67 282 67 282 101 303 c 128,-1,7
 135 324 135 324 183 324 c 0,8,9
 236 324 236 324 268 299 c 128,-1,10
 300 274 300 274 300 231 c 0,11,12
 300 215 300 215 297 199 c 128,-1,13
 294 183 294 183 287 172 c 1,14,-1
 219 178 l 1,15,16
 221 186 221 186 223 194.5 c 128,-1,17
 225 203 225 203 225 210 c 0,18,19
 225 232 225 232 213 243 c 128,-1,20
 201 254 201 254 180 254 c 0,21,22
 149 254 149 254 128.5 232.5 c 128,-1,23
 108 211 108 211 108 170 c 0,24,25
 108 125 108 125 139 96 c 128,-1,26
 170 67 170 67 234 67 c 0,27,28
 303 67 303 67 335 102 c 128,-1,29
 367 137 367 137 372 195 c 1,30,-1
 448 195 l 1,31,32
 453 128 453 128 488 97 c 128,-1,33
 523 66 523 66 575 66 c 0,34,35
 615 66 615 66 638 81 c 128,-1,36
 661 96 661 96 671 124 c 128,-1,37
 681 152 681 152 681 191 c 0,38,39
 681 237 681 237 662 285 c 128,-1,40
 643 333 643 333 595 387 c 1,41,-1
 666 435 l 1,42,43
 712 384 712 384 736.5 326.5 c 128,-1,44
 761 269 761 269 761 198 c 0,45,46
 761 131 761 131 739 86.5 c 128,-1,47
 717 42 717 42 682 19 c 0,48,49
 667 9 667 9 650.5 2 c 128,-1,50
 634 -5 634 -5 617 -8.5 c 128,-1,51
 600 -12 600 -12 582 -12 c 0,52,53
 529 -12 529 -12 496.5 1 c 128,-1,54
 464 14 464 14 441.5 39 c 128,-1,55
 419 64 419 64 396 100 c 1,56,-1
 427 105 l 1,57,58
 401 57 401 57 371.5 32 c 128,-1,59
 342 7 342 7 306.5 -2.5 c 128,-1,60
 271 -12 271 -12 226 -12 c 0,0,1
401 297 m 0,61,62
 377 297 377 297 360.5 314 c 128,-1,63
 344 331 344 331 344 355 c 0,64,65
 344 381 344 381 360.5 398 c 128,-1,66
 377 415 377 415 401 415 c 0,67,68
 426 415 426 415 443 398 c 128,-1,69
 460 381 460 381 460 355 c 0,70,71
 460 331 460 331 443 314 c 128,-1,72
 426 297 426 297 401 297 c 0,61,62
692 -55 m 1,73,-1
 637 26 l 1,74,-1
 626 44 l 1,75,-1
 474 264 l 1,76,-1
 541 306 l 1,77,-1
 693 80 l 1,78,-1
 707 65 l 1,79,-1
 760 -12 l 1,80,-1
 692 -55 l 1,73,-1
31 474 m 1,81,-1
 31 551 l 1,82,-1
 551 551 l 2,83,84
 605 551 605 551 627 556 c 128,-1,85
 649 561 649 561 659 569 c 0,86,87
 672 579 672 579 676.5 591.5 c 128,-1,88
 681 604 681 604 681 618 c 0,89,90
 681 651 681 651 665 682.5 c 128,-1,91
 649 714 649 714 616 747 c 1,92,-1
 681 790 l 1,93,94
 728 738 728 738 745 696.5 c 128,-1,95
 762 655 762 655 762 612 c 0,96,97
 762 593 762 593 754 565.5 c 128,-1,98
 746 538 746 538 721 516 c 256,99,100
 696 494 696 494 661.5 484 c 128,-1,101
 627 474 627 474 569 474 c 2,102,-1
 31 474 l 1,81,-1
EndSplineSet
Substitution2: "Single Substitution lookup 20 subtable" ssanocrestknda
Substitution2: "'aalt' Access All Alternates lookup 0 subtable" ssanocrestknda
EndChar

StartChar: saknda
Encoding: 3256 3256 56
Width: 709
GlyphClass: 2
Flags: W
AnchorPoint: "Anchor-0" 354 -24 basechar 0
LayerCount: 2
Fore
SplineSet
483 -12 m 0,0,1
 430 -12 430 -12 395.5 8 c 128,-1,2
 361 28 361 28 337.5 59.5 c 128,-1,3
 314 91 314 91 294 125 c 0,4,5
 269 169 269 169 251 191 c 128,-1,6
 233 213 233 213 217.5 221 c 128,-1,7
 202 229 202 229 182 229 c 0,8,9
 148 229 148 229 129.5 207.5 c 128,-1,10
 111 186 111 186 111 148 c 0,11,12
 111 116 111 116 125 82.5 c 128,-1,13
 139 49 139 49 162 17 c 1,14,-1
 84 -14 l 1,15,16
 61 18 61 18 46 60.5 c 128,-1,17
 31 103 31 103 31 146 c 0,18,19
 31 192 31 192 51 228 c 128,-1,20
 71 264 71 264 105 284.5 c 128,-1,21
 139 305 139 305 181 305 c 256,22,23
 223 305 223 305 252 292 c 128,-1,24
 281 279 281 279 303.5 253 c 128,-1,25
 326 227 326 227 349 187 c 0,26,27
 372 148 372 148 391.5 121 c 128,-1,28
 411 94 411 94 434 80.5 c 128,-1,29
 457 67 457 67 490 67 c 0,30,31
 540 67 540 67 564 103 c 128,-1,32
 588 139 588 139 588 194 c 0,33,34
 588 239 588 239 570 286 c 128,-1,35
 552 333 552 333 504 387 c 1,36,-1
 572 435 l 1,37,38
 619 384 619 384 644.5 327 c 128,-1,39
 670 270 670 270 670 203 c 0,40,41
 670 101 670 101 621 44.5 c 128,-1,42
 572 -12 572 -12 483 -12 c 0,0,1
341 315 m 0,43,44
 317 315 317 315 300 332 c 128,-1,45
 283 349 283 349 283 374 c 256,46,47
 283 399 283 399 300 416 c 128,-1,48
 317 433 317 433 341 433 c 0,49,50
 366 433 366 433 382.5 416 c 128,-1,51
 399 399 399 399 399 374 c 256,52,53
 399 349 399 349 382.5 332 c 128,-1,54
 366 315 366 315 341 315 c 0,43,44
32 474 m 1,55,-1
 32 551 l 1,56,-1
 458 551 l 2,57,58
 512 551 512 551 534 556 c 128,-1,59
 556 561 556 561 567 569 c 0,60,61
 580 579 580 579 584.5 591.5 c 128,-1,62
 589 604 589 604 589 618 c 0,63,64
 589 651 589 651 573 682.5 c 128,-1,65
 557 714 557 714 524 747 c 1,66,-1
 589 790 l 1,67,68
 636 738 636 738 653 696.5 c 128,-1,69
 670 655 670 655 670 612 c 0,70,71
 670 593 670 593 662 565.5 c 128,-1,72
 654 538 654 538 629 516 c 0,73,74
 603 494 603 494 568.5 484 c 128,-1,75
 534 474 534 474 477 474 c 2,76,-1
 32 474 l 1,55,-1
EndSplineSet
Substitution2: "Single Substitution lookup 20 subtable" sanocrestknda
Substitution2: "'aalt' Access All Alternates lookup 0 subtable" sanocrestknda
EndChar

StartChar: haknda
Encoding: 3257 3257 57
Width: 801
GlyphClass: 2
Flags: W
AnchorPoint: "Anchor-0" 400 -24 basechar 0
LayerCount: 2
Fore
SplineSet
231 -12 m 0,0,1
 140 -12 140 -12 86.5 39 c 128,-1,2
 33 90 33 90 33 181 c 0,3,4
 33 267 33 267 86 321 c 128,-1,5
 139 375 139 375 236 375 c 0,6,7
 265 375 265 375 289.5 368 c 128,-1,8
 314 361 314 361 333.5 348 c 128,-1,9
 353 335 353 335 367 316 c 1,10,-1
 363 315 l 1,11,12
 364 317 364 317 364.5 324.5 c 128,-1,13
 365 332 365 332 365 335 c 0,14,15
 365 364 365 364 353 389.5 c 128,-1,16
 341 415 341 415 319 434.5 c 128,-1,17
 297 454 297 454 268.5 466 c 128,-1,18
 240 478 240 478 207 481 c 1,19,-1
 361 486 l 1,20,21
 384 474 384 474 402 454 c 128,-1,22
 420 434 420 434 430.5 406.5 c 128,-1,23
 441 379 441 379 441 343 c 0,24,25
 441 336 441 336 440 327.5 c 128,-1,26
 439 319 439 319 438 315 c 1,27,-1
 436 316 l 1,28,29
 453 335 453 335 473.5 348 c 128,-1,30
 494 361 494 361 519.5 368 c 128,-1,31
 545 375 545 375 576 375 c 0,32,33
 670 375 670 375 719 320 c 128,-1,34
 768 265 768 265 768 181 c 256,35,36
 768 97 768 97 715.5 42.5 c 128,-1,37
 663 -12 663 -12 566 -12 c 0,38,39
 521 -12 521 -12 486 1.5 c 128,-1,40
 451 15 451 15 427 41 c 128,-1,41
 403 67 403 67 390 102 c 1,42,-1
 409 101 l 1,43,44
 396 68 396 68 371.5 42.5 c 128,-1,45
 347 17 347 17 312 2.5 c 128,-1,46
 277 -12 277 -12 231 -12 c 0,0,1
237 63 m 0,47,48
 302 63 302 63 332 96.5 c 128,-1,49
 362 130 362 130 362 181 c 0,50,51
 362 236 362 236 330 268 c 128,-1,52
 298 300 298 300 241 300 c 0,53,54
 197 300 197 300 169 284.5 c 128,-1,55
 141 269 141 269 128 242.5 c 128,-1,56
 115 216 115 216 115 183 c 0,57,58
 115 128 115 128 148 95.5 c 128,-1,59
 181 63 181 63 237 63 c 0,47,48
561 63 m 0,60,61
 625 63 625 63 655.5 96.5 c 128,-1,62
 686 130 686 130 686 181 c 0,63,64
 686 218 686 218 671.5 244.5 c 128,-1,65
 657 271 657 271 630 285.5 c 128,-1,66
 603 300 603 300 564 300 c 0,67,68
 501 300 501 300 470 266.5 c 128,-1,69
 439 233 439 233 439 183 c 0,70,71
 439 128 439 128 471.5 95.5 c 128,-1,72
 504 63 504 63 561 63 c 0,60,61
34 474 m 1,73,-1
 34 551 l 1,74,-1
 557 551 l 2,75,76
 610 551 610 551 632 556 c 128,-1,77
 654 561 654 561 665 569 c 0,78,79
 678 579 678 579 682.5 591.5 c 128,-1,80
 687 604 687 604 687 618 c 0,81,82
 687 651 687 651 671 682.5 c 128,-1,83
 655 714 655 714 622 747 c 1,84,-1
 687 790 l 1,85,86
 734 738 734 738 751 696.5 c 128,-1,87
 768 655 768 655 768 612 c 0,88,89
 768 593 768 593 760 565.5 c 128,-1,90
 752 538 752 538 727 516 c 0,91,92
 701 494 701 494 666.5 484 c 128,-1,93
 632 474 632 474 575 474 c 2,94,-1
 34 474 l 1,73,-1
EndSplineSet
Substitution2: "Single Substitution lookup 20 subtable" hanocrestknda
Substitution2: "'aalt' Access All Alternates lookup 0 subtable" hanocrestknda
EndChar

StartChar: nuktaknda
Encoding: 3260 3260 58
Width: 0
GlyphClass: 4
Flags: W
AnchorPoint: "Anchor-1" -279 -24 mark 0
AnchorPoint: "Anchor-0" -279 -24 mark 0
LayerCount: 2
Fore
SplineSet
-169 -182 m 0,0,1
 -193 -182 -193 -182 -209.5 -164.5 c 128,-1,2
 -226 -147 -226 -147 -226 -123 c 0,3,4
 -226 -98 -226 -98 -209.5 -81 c 128,-1,5
 -193 -64 -193 -64 -169 -64 c 0,6,7
 -144 -64 -144 -64 -127 -81 c 128,-1,8
 -110 -98 -110 -98 -110 -123 c 0,9,10
 -110 -147 -110 -147 -127 -164.5 c 128,-1,11
 -144 -182 -144 -182 -169 -182 c 0,0,1
-391 -182 m 0,12,13
 -415 -182 -415 -182 -431.5 -164.5 c 128,-1,14
 -448 -147 -448 -147 -448 -123 c 0,15,16
 -448 -98 -448 -98 -431.5 -81 c 128,-1,17
 -415 -64 -415 -64 -391 -64 c 0,18,19
 -366 -64 -366 -64 -349 -81 c 128,-1,20
 -332 -98 -332 -98 -332 -123 c 0,21,22
 -332 -147 -332 -147 -349 -164.5 c 128,-1,23
 -366 -182 -366 -182 -391 -182 c 0,12,13
EndSplineSet
Position2: "Single Positioning lookup 1 subtable" dx=0 dy=-98 dh=0 dv=0
EndChar

StartChar: avagrahaknda
Encoding: 3261 3261 59
Width: 446
Flags: W
LayerCount: 2
Fore
SplineSet
229 -12 m 0,0,1
 170 -12 170 -12 124.5 12 c 128,-1,2
 79 36 79 36 51.5 80.5 c 128,-1,3
 24 125 24 125 16 189 c 1,4,-1
 99 195 l 1,5,6
 104 128 104 128 140.5 97.5 c 128,-1,7
 177 67 177 67 229 67 c 0,8,9
 284 67 284 67 308 89 c 128,-1,10
 332 111 332 111 332 144 c 0,11,12
 332 173 332 173 317 192 c 128,-1,13
 302 211 302 211 270 228 c 128,-1,14
 238 245 238 245 187 267 c 0,15,16
 126 293 126 293 93.5 319 c 128,-1,17
 61 345 61 345 48.5 372.5 c 128,-1,18
 36 400 36 400 36 430 c 0,19,20
 36 456 36 456 46 477 c 128,-1,21
 56 498 56 498 73 514 c 0,22,23
 87 526 87 526 105 534.5 c 128,-1,24
 123 543 123 543 149 547 c 128,-1,25
 175 551 175 551 212 551 c 2,26,-1
 389 551 l 1,27,-1
 389 474 l 1,28,-1
 206 474 l 2,29,30
 164 474 164 474 141 465.5 c 128,-1,31
 118 457 118 457 118 429 c 0,32,33
 118 411 118 411 129.5 396 c 128,-1,34
 141 381 141 381 170.5 365 c 128,-1,35
 200 349 200 349 252 326 c 0,36,37
 298 307 298 307 334.5 284.5 c 128,-1,38
 371 262 371 262 392.5 229 c 128,-1,39
 414 196 414 196 414 144 c 0,40,41
 414 100 414 100 393 64.5 c 128,-1,42
 372 29 372 29 331 8.5 c 128,-1,43
 290 -12 290 -12 229 -12 c 0,0,1
EndSplineSet
EndChar

StartChar: aavowelsignknda
Encoding: 3262 3262 60
Width: 449
GlyphClass: 4
Flags: W
LayerCount: 2
Fore
SplineSet
407 241 m 0,0,1
 407 161 407 161 382.5 104 c 128,-1,2
 358 47 358 47 310.5 17.5 c 128,-1,3
 263 -12 263 -12 195 -12 c 0,4,5
 140 -12 140 -12 101.5 9.5 c 128,-1,6
 63 31 63 31 43.5 67.5 c 128,-1,7
 24 104 24 104 24 148 c 256,8,9
 24 192 24 192 39 221 c 128,-1,10
 54 250 54 250 79.5 264.5 c 128,-1,11
 105 279 105 279 135 279 c 0,12,13
 172 279 172 279 191.5 260.5 c 128,-1,14
 211 242 211 242 211 212 c 0,15,16
 211 184 211 184 195.5 167 c 128,-1,17
 180 150 180 150 156 150 c 0,18,19
 129 150 129 150 114.5 165 c 128,-1,20
 100 180 100 180 100 210 c 1,21,-1
 108 212 l 1,22,23
 101 197 101 197 98.5 184 c 128,-1,24
 96 171 96 171 96 155 c 0,25,26
 96 119 96 119 118.5 90.5 c 128,-1,27
 141 62 141 62 196 62 c 0,28,29
 236 62 236 62 264.5 81.5 c 128,-1,30
 293 101 293 101 309 141 c 128,-1,31
 325 181 325 181 325 241 c 0,32,33
 325 297 325 297 311 339 c 128,-1,34
 297 381 297 381 269 410 c 0,35,36
 249 432 249 432 224 446 c 128,-1,37
 199 460 199 460 160 467 c 128,-1,38
 121 474 121 474 60 474 c 2,39,-1
 -250 474 l 1,40,-1
 -250 551 l 1,41,-1
 79 551 l 2,42,43
 146 551 146 551 194 541 c 128,-1,44
 242 531 242 531 276.5 510.5 c 128,-1,45
 311 490 311 490 337 460 c 0,46,47
 371 423 371 423 389 367.5 c 128,-1,48
 407 312 407 312 407 241 c 0,0,1
EndSplineSet
Substitution2: "Single Substitution lookup 18 subtable" aavowelsignaltknda
Substitution2: "Single Substitution lookup 12 subtable" januktasubscriptknda
Substitution2: "Single Substitution lookup 6 subtable" phanuktasubscriptknda
AlternateSubs2: "'aalt' Access All Alternates lookup 1 subtable" januktasubscriptknda phanuktasubscriptknda aavowelsignaltknda
EndChar

StartChar: ivowelsignknda
Encoding: 3263 3263 61
Width: 327
GlyphClass: 4
Flags: W
LayerCount: 2
Fore
SplineSet
119 311 m 0,0,1
 62 311 62 311 19.5 329.5 c 128,-1,2
 -23 348 -23 348 -52.5 377 c 128,-1,3
 -82 406 -82 406 -101 436 c 1,4,-1
 -59 480 l 1,5,6
 -29 444 -29 444 0.5 423 c 128,-1,7
 30 402 30 402 58 393.5 c 128,-1,8
 86 385 86 385 112 385 c 0,9,10
 150 385 150 385 175.5 396.5 c 128,-1,11
 201 408 201 408 214 432.5 c 128,-1,12
 227 457 227 457 227 497 c 2,13,-1
 227 507 l 2,14,15
 227 548 227 548 211.5 579 c 128,-1,16
 196 610 196 610 171 627.5 c 128,-1,17
 146 645 146 645 117 645 c 0,18,19
 84 645 84 645 67 631.5 c 128,-1,20
 50 618 50 618 50 595 c 0,21,22
 50 575 50 575 60 564 c 128,-1,23
 70 553 70 553 83.5 549 c 128,-1,24
 97 545 97 545 108 545 c 0,25,26
 154 545 154 545 182.5 564 c 128,-1,27
 211 583 211 583 233 615 c 1,28,-1
 264 569 l 1,29,30
 251 550 251 550 231 528.5 c 128,-1,31
 211 507 211 507 181 492.5 c 128,-1,32
 151 478 151 478 108 478 c 0,33,34
 74 478 74 478 43 490 c 128,-1,35
 12 502 12 502 -7 526.5 c 128,-1,36
 -26 551 -26 551 -26 590 c 0,37,38
 -26 641 -26 641 12.5 676.5 c 128,-1,39
 51 712 51 712 117 712 c 0,40,41
 173 712 173 712 215.5 685 c 128,-1,42
 258 658 258 658 281.5 611 c 128,-1,43
 305 564 305 564 305 504 c 0,44,45
 305 437 305 437 281.5 394 c 128,-1,46
 258 351 258 351 216.5 331 c 128,-1,47
 175 311 175 311 119 311 c 0,0,1
EndSplineSet
Substitution2: "Single Substitution lookup 12 subtable" januktasubscriptknda
Substitution2: "Single Substitution lookup 6 subtable" phanuktasubscriptknda
AlternateSubs2: "'aalt' Access All Alternates lookup 1 subtable" januktasubscriptknda phanuktasubscriptknda
PairPos2: "'kern' Horizontal Kerning in Latin lookup 9 subtable" mayasubscriptknda dx=0 dy=0 dh=-78 dv=0 dx=0 dy=0 dh=0 dv=0
PairPos2: "'kern' Horizontal Kerning in Latin lookup 9 subtable" tayasubscriptknda dx=0 dy=0 dh=-78 dv=0 dx=0 dy=0 dh=0 dv=0
PairPos2: "'kern' Horizontal Kerning in Latin lookup 9 subtable" bharasubscriptknda dx=0 dy=0 dh=-78 dv=0 dx=0 dy=0 dh=0 dv=0
PairPos2: "'kern' Horizontal Kerning in Latin lookup 9 subtable" parasubscriptknda dx=0 dy=0 dh=-78 dv=0 dx=0 dy=0 dh=0 dv=0
PairPos2: "'kern' Horizontal Kerning in Latin lookup 9 subtable" darasubscriptknda dx=0 dy=0 dh=-78 dv=0 dx=0 dy=0 dh=0 dv=0
PairPos2: "'kern' Horizontal Kerning in Latin lookup 9 subtable" tarasubscriptknda dx=0 dy=0 dh=-78 dv=0 dx=0 dy=0 dh=0 dv=0
PairPos2: "'kern' Horizontal Kerning in Latin lookup 9 subtable" ddarasubscriptknda dx=0 dy=0 dh=-78 dv=0 dx=0 dy=0 dh=0 dv=0
PairPos2: "'kern' Horizontal Kerning in Latin lookup 9 subtable" ttarasubscriptknda dx=0 dy=0 dh=-78 dv=0 dx=0 dy=0 dh=0 dv=0
PairPos2: "'kern' Horizontal Kerning in Latin lookup 9 subtable" garasubscriptknda dx=0 dy=0 dh=-78 dv=0 dx=0 dy=0 dh=0 dv=0
PairPos2: "'kern' Horizontal Kerning in Latin lookup 9 subtable" karasubscriptknda dx=0 dy=0 dh=-78 dv=0 dx=0 dy=0 dh=0 dv=0
PairPos2: "'kern' Horizontal Kerning in Latin lookup 9 subtable" phanuktasubscriptknda dx=0 dy=0 dh=-78 dv=0 dx=0 dy=0 dh=0 dv=0
PairPos2: "'kern' Horizontal Kerning in Latin lookup 9 subtable" januktasubscriptknda dx=0 dy=0 dh=-78 dv=0 dx=0 dy=0 dh=0 dv=0
PairPos2: "'kern' Horizontal Kerning in Latin lookup 9 subtable" fasubscriptknda dx=0 dy=0 dh=-78 dv=0 dx=0 dy=0 dh=0 dv=0
PairPos2: "'kern' Horizontal Kerning in Latin lookup 9 subtable" hasubscriptknda dx=0 dy=0 dh=-78 dv=0 dx=0 dy=0 dh=0 dv=0
PairPos2: "'kern' Horizontal Kerning in Latin lookup 9 subtable" sasubscriptknda dx=0 dy=0 dh=-78 dv=0 dx=0 dy=0 dh=0 dv=0
PairPos2: "'kern' Horizontal Kerning in Latin lookup 9 subtable" ssasubscriptknda dx=0 dy=0 dh=-78 dv=0 dx=0 dy=0 dh=0 dv=0
PairPos2: "'kern' Horizontal Kerning in Latin lookup 9 subtable" shasubscriptknda dx=0 dy=0 dh=-78 dv=0 dx=0 dy=0 dh=0 dv=0
PairPos2: "'kern' Horizontal Kerning in Latin lookup 9 subtable" vasubscriptknda dx=0 dy=0 dh=-78 dv=0 dx=0 dy=0 dh=0 dv=0
PairPos2: "'kern' Horizontal Kerning in Latin lookup 9 subtable" llasubscriptknda dx=0 dy=0 dh=-78 dv=0 dx=0 dy=0 dh=0 dv=0
PairPos2: "'kern' Horizontal Kerning in Latin lookup 9 subtable" lasubscriptknda dx=0 dy=0 dh=-63 dv=0 dx=0 dy=0 dh=0 dv=0
PairPos2: "'kern' Horizontal Kerning in Latin lookup 9 subtable" rrasubscriptknda dx=0 dy=0 dh=-78 dv=0 dx=0 dy=0 dh=0 dv=0
PairPos2: "'kern' Horizontal Kerning in Latin lookup 9 subtable" rasubscriptknda dx=0 dy=0 dh=-78 dv=0 dx=0 dy=0 dh=0 dv=0
PairPos2: "'kern' Horizontal Kerning in Latin lookup 9 subtable" yasubscriptknda dx=0 dy=0 dh=-78 dv=0 dx=0 dy=0 dh=0 dv=0
PairPos2: "'kern' Horizontal Kerning in Latin lookup 9 subtable" masubscriptknda dx=0 dy=0 dh=-78 dv=0 dx=0 dy=0 dh=0 dv=0
PairPos2: "'kern' Horizontal Kerning in Latin lookup 9 subtable" bhasubscriptknda dx=0 dy=0 dh=-78 dv=0 dx=0 dy=0 dh=0 dv=0
PairPos2: "'kern' Horizontal Kerning in Latin lookup 9 subtable" basubscriptknda dx=0 dy=0 dh=-78 dv=0 dx=0 dy=0 dh=0 dv=0
PairPos2: "'kern' Horizontal Kerning in Latin lookup 9 subtable" phasubscriptknda dx=0 dy=0 dh=-78 dv=0 dx=0 dy=0 dh=0 dv=0
PairPos2: "'kern' Horizontal Kerning in Latin lookup 9 subtable" pasubscriptknda dx=0 dy=0 dh=-78 dv=0 dx=0 dy=0 dh=0 dv=0
PairPos2: "'kern' Horizontal Kerning in Latin lookup 9 subtable" nasubscriptknda dx=0 dy=0 dh=-78 dv=0 dx=0 dy=0 dh=0 dv=0
PairPos2: "'kern' Horizontal Kerning in Latin lookup 9 subtable" dhasubscriptknda dx=0 dy=0 dh=-63 dv=0 dx=0 dy=0 dh=0 dv=0
PairPos2: "'kern' Horizontal Kerning in Latin lookup 9 subtable" dasubscriptknda dx=0 dy=0 dh=-63 dv=0 dx=0 dy=0 dh=0 dv=0
PairPos2: "'kern' Horizontal Kerning in Latin lookup 9 subtable" thasubscriptknda dx=0 dy=0 dh=-63 dv=0 dx=0 dy=0 dh=0 dv=0
PairPos2: "'kern' Horizontal Kerning in Latin lookup 9 subtable" tasubscriptknda dx=0 dy=0 dh=-63 dv=0 dx=0 dy=0 dh=0 dv=0
PairPos2: "'kern' Horizontal Kerning in Latin lookup 9 subtable" nnasubscriptknda dx=0 dy=0 dh=-78 dv=0 dx=0 dy=0 dh=0 dv=0
PairPos2: "'kern' Horizontal Kerning in Latin lookup 9 subtable" ddhasubscriptknda dx=0 dy=0 dh=-63 dv=0 dx=0 dy=0 dh=0 dv=0
PairPos2: "'kern' Horizontal Kerning in Latin lookup 9 subtable" ddasubscriptknda dx=0 dy=0 dh=-63 dv=0 dx=0 dy=0 dh=0 dv=0
PairPos2: "'kern' Horizontal Kerning in Latin lookup 9 subtable" tthasubscriptknda dx=0 dy=0 dh=-15 dv=0 dx=0 dy=0 dh=0 dv=0
PairPos2: "'kern' Horizontal Kerning in Latin lookup 9 subtable" ttasubscriptknda dx=0 dy=0 dh=-78 dv=0 dx=0 dy=0 dh=0 dv=0
PairPos2: "'kern' Horizontal Kerning in Latin lookup 9 subtable" nyasubscriptknda dx=0 dy=0 dh=-78 dv=0 dx=0 dy=0 dh=0 dv=0
PairPos2: "'kern' Horizontal Kerning in Latin lookup 9 subtable" jhasubscriptknda dx=0 dy=0 dh=-78 dv=0 dx=0 dy=0 dh=0 dv=0
PairPos2: "'kern' Horizontal Kerning in Latin lookup 9 subtable" jasubscriptknda dx=0 dy=0 dh=-78 dv=0 dx=0 dy=0 dh=0 dv=0
PairPos2: "'kern' Horizontal Kerning in Latin lookup 9 subtable" chasubscriptknda dx=0 dy=0 dh=-78 dv=0 dx=0 dy=0 dh=0 dv=0
PairPos2: "'kern' Horizontal Kerning in Latin lookup 9 subtable" casubscriptknda dx=0 dy=0 dh=-78 dv=0 dx=0 dy=0 dh=0 dv=0
PairPos2: "'kern' Horizontal Kerning in Latin lookup 9 subtable" ngasubscriptknda dx=0 dy=0 dh=-78 dv=0 dx=0 dy=0 dh=0 dv=0
PairPos2: "'kern' Horizontal Kerning in Latin lookup 9 subtable" ghasubscriptknda dx=0 dy=0 dh=-78 dv=0 dx=0 dy=0 dh=0 dv=0
PairPos2: "'kern' Horizontal Kerning in Latin lookup 9 subtable" gasubscriptknda dx=0 dy=0 dh=-15 dv=0 dx=0 dy=0 dh=0 dv=0
PairPos2: "'kern' Horizontal Kerning in Latin lookup 9 subtable" khasubscriptknda dx=0 dy=0 dh=-78 dv=0 dx=0 dy=0 dh=0 dv=0
PairPos2: "'kern' Horizontal Kerning in Latin lookup 9 subtable" kasubscriptknda dx=0 dy=0 dh=-78 dv=0 dx=0 dy=0 dh=0 dv=0
PairPos2: "'kern' Horizontal Kerning in Latin lookup 9 subtable" anusvaraknda dx=0 dy=0 dh=-34 dv=0 dx=0 dy=0 dh=0 dv=0
PairPos2: "'dist' Distance lookup 7 subtable" mayasubscriptknda dx=0 dy=0 dh=-78 dv=0 dx=0 dy=0 dh=0 dv=0
PairPos2: "'dist' Distance lookup 7 subtable" tayasubscriptknda dx=0 dy=0 dh=-78 dv=0 dx=0 dy=0 dh=0 dv=0
PairPos2: "'dist' Distance lookup 7 subtable" bharasubscriptknda dx=0 dy=0 dh=-78 dv=0 dx=0 dy=0 dh=0 dv=0
PairPos2: "'dist' Distance lookup 7 subtable" parasubscriptknda dx=0 dy=0 dh=-78 dv=0 dx=0 dy=0 dh=0 dv=0
PairPos2: "'dist' Distance lookup 7 subtable" darasubscriptknda dx=0 dy=0 dh=-78 dv=0 dx=0 dy=0 dh=0 dv=0
PairPos2: "'dist' Distance lookup 7 subtable" tarasubscriptknda dx=0 dy=0 dh=-78 dv=0 dx=0 dy=0 dh=0 dv=0
PairPos2: "'dist' Distance lookup 7 subtable" ddarasubscriptknda dx=0 dy=0 dh=-78 dv=0 dx=0 dy=0 dh=0 dv=0
PairPos2: "'dist' Distance lookup 7 subtable" ttarasubscriptknda dx=0 dy=0 dh=-78 dv=0 dx=0 dy=0 dh=0 dv=0
PairPos2: "'dist' Distance lookup 7 subtable" garasubscriptknda dx=0 dy=0 dh=-78 dv=0 dx=0 dy=0 dh=0 dv=0
PairPos2: "'dist' Distance lookup 7 subtable" karasubscriptknda dx=0 dy=0 dh=-78 dv=0 dx=0 dy=0 dh=0 dv=0
PairPos2: "'dist' Distance lookup 7 subtable" phanuktasubscriptknda dx=0 dy=0 dh=-78 dv=0 dx=0 dy=0 dh=0 dv=0
PairPos2: "'dist' Distance lookup 7 subtable" januktasubscriptknda dx=0 dy=0 dh=-78 dv=0 dx=0 dy=0 dh=0 dv=0
PairPos2: "'dist' Distance lookup 7 subtable" fasubscriptknda dx=0 dy=0 dh=-78 dv=0 dx=0 dy=0 dh=0 dv=0
PairPos2: "'dist' Distance lookup 7 subtable" hasubscriptknda dx=0 dy=0 dh=-78 dv=0 dx=0 dy=0 dh=0 dv=0
PairPos2: "'dist' Distance lookup 7 subtable" sasubscriptknda dx=0 dy=0 dh=-78 dv=0 dx=0 dy=0 dh=0 dv=0
PairPos2: "'dist' Distance lookup 7 subtable" ssasubscriptknda dx=0 dy=0 dh=-78 dv=0 dx=0 dy=0 dh=0 dv=0
PairPos2: "'dist' Distance lookup 7 subtable" shasubscriptknda dx=0 dy=0 dh=-78 dv=0 dx=0 dy=0 dh=0 dv=0
PairPos2: "'dist' Distance lookup 7 subtable" vasubscriptknda dx=0 dy=0 dh=-78 dv=0 dx=0 dy=0 dh=0 dv=0
PairPos2: "'dist' Distance lookup 7 subtable" llasubscriptknda dx=0 dy=0 dh=-78 dv=0 dx=0 dy=0 dh=0 dv=0
PairPos2: "'dist' Distance lookup 7 subtable" lasubscriptknda dx=0 dy=0 dh=-63 dv=0 dx=0 dy=0 dh=0 dv=0
PairPos2: "'dist' Distance lookup 7 subtable" rrasubscriptknda dx=0 dy=0 dh=-78 dv=0 dx=0 dy=0 dh=0 dv=0
PairPos2: "'dist' Distance lookup 7 subtable" rasubscriptknda dx=0 dy=0 dh=-78 dv=0 dx=0 dy=0 dh=0 dv=0
PairPos2: "'dist' Distance lookup 7 subtable" yasubscriptknda dx=0 dy=0 dh=-78 dv=0 dx=0 dy=0 dh=0 dv=0
PairPos2: "'dist' Distance lookup 7 subtable" masubscriptknda dx=0 dy=0 dh=-78 dv=0 dx=0 dy=0 dh=0 dv=0
PairPos2: "'dist' Distance lookup 7 subtable" bhasubscriptknda dx=0 dy=0 dh=-78 dv=0 dx=0 dy=0 dh=0 dv=0
PairPos2: "'dist' Distance lookup 7 subtable" basubscriptknda dx=0 dy=0 dh=-78 dv=0 dx=0 dy=0 dh=0 dv=0
PairPos2: "'dist' Distance lookup 7 subtable" phasubscriptknda dx=0 dy=0 dh=-78 dv=0 dx=0 dy=0 dh=0 dv=0
PairPos2: "'dist' Distance lookup 7 subtable" pasubscriptknda dx=0 dy=0 dh=-78 dv=0 dx=0 dy=0 dh=0 dv=0
PairPos2: "'dist' Distance lookup 7 subtable" nasubscriptknda dx=0 dy=0 dh=-78 dv=0 dx=0 dy=0 dh=0 dv=0
PairPos2: "'dist' Distance lookup 7 subtable" dhasubscriptknda dx=0 dy=0 dh=-63 dv=0 dx=0 dy=0 dh=0 dv=0
PairPos2: "'dist' Distance lookup 7 subtable" dasubscriptknda dx=0 dy=0 dh=-63 dv=0 dx=0 dy=0 dh=0 dv=0
PairPos2: "'dist' Distance lookup 7 subtable" thasubscriptknda dx=0 dy=0 dh=-63 dv=0 dx=0 dy=0 dh=0 dv=0
PairPos2: "'dist' Distance lookup 7 subtable" tasubscriptknda dx=0 dy=0 dh=-63 dv=0 dx=0 dy=0 dh=0 dv=0
PairPos2: "'dist' Distance lookup 7 subtable" nnasubscriptknda dx=0 dy=0 dh=-78 dv=0 dx=0 dy=0 dh=0 dv=0
PairPos2: "'dist' Distance lookup 7 subtable" ddhasubscriptknda dx=0 dy=0 dh=-63 dv=0 dx=0 dy=0 dh=0 dv=0
PairPos2: "'dist' Distance lookup 7 subtable" ddasubscriptknda dx=0 dy=0 dh=-63 dv=0 dx=0 dy=0 dh=0 dv=0
PairPos2: "'dist' Distance lookup 7 subtable" tthasubscriptknda dx=0 dy=0 dh=-15 dv=0 dx=0 dy=0 dh=0 dv=0
PairPos2: "'dist' Distance lookup 7 subtable" ttasubscriptknda dx=0 dy=0 dh=-78 dv=0 dx=0 dy=0 dh=0 dv=0
PairPos2: "'dist' Distance lookup 7 subtable" nyasubscriptknda dx=0 dy=0 dh=-78 dv=0 dx=0 dy=0 dh=0 dv=0
PairPos2: "'dist' Distance lookup 7 subtable" jhasubscriptknda dx=0 dy=0 dh=-78 dv=0 dx=0 dy=0 dh=0 dv=0
PairPos2: "'dist' Distance lookup 7 subtable" jasubscriptknda dx=0 dy=0 dh=-78 dv=0 dx=0 dy=0 dh=0 dv=0
PairPos2: "'dist' Distance lookup 7 subtable" chasubscriptknda dx=0 dy=0 dh=-78 dv=0 dx=0 dy=0 dh=0 dv=0
PairPos2: "'dist' Distance lookup 7 subtable" casubscriptknda dx=0 dy=0 dh=-78 dv=0 dx=0 dy=0 dh=0 dv=0
PairPos2: "'dist' Distance lookup 7 subtable" ngasubscriptknda dx=0 dy=0 dh=-78 dv=0 dx=0 dy=0 dh=0 dv=0
PairPos2: "'dist' Distance lookup 7 subtable" ghasubscriptknda dx=0 dy=0 dh=-78 dv=0 dx=0 dy=0 dh=0 dv=0
PairPos2: "'dist' Distance lookup 7 subtable" gasubscriptknda dx=0 dy=0 dh=-15 dv=0 dx=0 dy=0 dh=0 dv=0
PairPos2: "'dist' Distance lookup 7 subtable" khasubscriptknda dx=0 dy=0 dh=-78 dv=0 dx=0 dy=0 dh=0 dv=0
PairPos2: "'dist' Distance lookup 7 subtable" kasubscriptknda dx=0 dy=0 dh=-78 dv=0 dx=0 dy=0 dh=0 dv=0
PairPos2: "'dist' Distance lookup 7 subtable" anusvaraknda dx=0 dy=0 dh=-34 dv=0 dx=0 dy=0 dh=0 dv=0
EndChar

StartChar: uvowelsignknda
Encoding: 3265 3265 63
Width: 364
GlyphClass: 4
Flags: W
LayerCount: 2
Fore
SplineSet
116 -12 m 0,0,1
 40 -12 40 -12 -17 26.5 c 128,-1,2
 -74 65 -74 65 -119 123 c 1,3,-1
 -68 177 l 1,4,5
 -26 124 -26 124 17.5 95.5 c 128,-1,6
 61 67 61 67 119 67 c 0,7,8
 179 67 179 67 212 106 c 128,-1,9
 245 145 245 145 245 210 c 0,10,11
 245 280 245 280 220 333 c 128,-1,12
 195 386 195 386 151 424.5 c 128,-1,13
 107 463 107 463 49 488 c 1,14,-1
 92 565 l 1,15,16
 160 532 160 532 213 482 c 128,-1,17
 266 432 266 432 296.5 365 c 128,-1,18
 327 298 327 298 327 215 c 0,19,20
 327 150 327 150 304 98.5 c 128,-1,21
 281 47 281 47 234 17.5 c 128,-1,22
 187 -12 187 -12 116 -12 c 0,0,1
EndSplineSet
Substitution2: "Single Substitution lookup 173 subtable" uvowelsignlaknda
Substitution2: "Single Substitution lookup 172 subtable" uvowelsignalt2knda
Substitution2: "Single Substitution lookup 171 subtable" uvowelsignaltknda
Substitution2: "Single Substitution lookup 12 subtable" januktasubscriptknda
Substitution2: "Single Substitution lookup 6 subtable" phanuktasubscriptknda
AlternateSubs2: "'aalt' Access All Alternates lookup 1 subtable" januktasubscriptknda phanuktasubscriptknda uvowelsignaltknda uvowelsignalt2knda uvowelsignlaknda
EndChar

StartChar: uuvowelsignknda
Encoding: 3266 3266 64
Width: 746
GlyphClass: 4
Flags: W
LayerCount: 2
Fore
SplineSet
90 -12 m 0,0,1
 25 -12 25 -12 -25 23 c 128,-1,2
 -75 58 -75 58 -119 113 c 1,3,-1
 -68 168 l 1,4,5
 -27 116 -27 116 9.5 91.5 c 128,-1,6
 46 67 46 67 90 67 c 0,7,8
 135 67 135 67 154.5 91.5 c 128,-1,9
 174 116 174 116 174 156 c 0,10,11
 174 194 174 194 172 220.5 c 128,-1,12
 170 247 170 247 168 271 c 128,-1,13
 166 295 166 295 166 324 c 0,14,15
 166 399 166 399 198.5 452.5 c 128,-1,16
 231 506 231 506 287.5 534.5 c 128,-1,17
 344 563 344 563 417 563 c 0,18,19
 491 563 491 563 545.5 537.5 c 128,-1,20
 600 512 600 512 636 467.5 c 128,-1,21
 672 423 672 423 690 364 c 128,-1,22
 708 305 708 305 708 238 c 0,23,24
 708 159 708 159 683 103 c 128,-1,25
 658 47 658 47 611 17.5 c 128,-1,26
 564 -12 564 -12 497 -12 c 0,27,28
 441 -12 441 -12 402.5 9.5 c 128,-1,29
 364 31 364 31 344.5 67.5 c 128,-1,30
 325 104 325 104 325 148 c 256,31,32
 325 192 325 192 340 221 c 128,-1,33
 355 250 355 250 380.5 264.5 c 128,-1,34
 406 279 406 279 436 279 c 0,35,36
 473 279 473 279 492.5 260.5 c 128,-1,37
 512 242 512 242 512 212 c 0,38,39
 512 184 512 184 496.5 167 c 128,-1,40
 481 150 481 150 457 150 c 0,41,42
 430 150 430 150 415.5 165 c 128,-1,43
 401 180 401 180 401 210 c 1,44,-1
 409 212 l 1,45,46
 402 197 402 197 399.5 184 c 128,-1,47
 397 171 397 171 397 155 c 0,48,49
 397 119 397 119 419.5 90.5 c 128,-1,50
 442 62 442 62 497 62 c 0,51,52
 537 62 537 62 566 82 c 128,-1,53
 595 102 595 102 610.5 141 c 128,-1,54
 626 180 626 180 626 236 c 0,55,56
 626 302 626 302 604 358.5 c 128,-1,57
 582 415 582 415 536.5 450 c 128,-1,58
 491 485 491 485 419 485 c 0,59,60
 366 485 366 485 327.5 465 c 128,-1,61
 289 445 289 445 268.5 407 c 128,-1,62
 248 369 248 369 248 314 c 0,63,64
 248 282 248 282 250 258.5 c 128,-1,65
 252 235 252 235 254 211.5 c 128,-1,66
 256 188 256 188 256 155 c 0,67,68
 256 95 256 95 232 58.5 c 128,-1,69
 208 22 208 22 170 5 c 128,-1,70
 132 -12 132 -12 90 -12 c 0,0,1
EndSplineSet
Substitution2: "Single Substitution lookup 173 subtable" uuvowelsignlaknda
Substitution2: "Single Substitution lookup 172 subtable" uuvowelsignalt2knda
Substitution2: "Single Substitution lookup 171 subtable" uuvowelsignaltknda
Substitution2: "Single Substitution lookup 17 subtable" lengthmarkknda
Substitution2: "Single Substitution lookup 12 subtable" januktasubscriptknda
Substitution2: "Single Substitution lookup 6 subtable" phanuktasubscriptknda
AlternateSubs2: "'aalt' Access All Alternates lookup 1 subtable" lengthmarkknda januktasubscriptknda phanuktasubscriptknda uuvowelsignaltknda uuvowelsignalt2knda uuvowelsignlaknda
EndChar

StartChar: rvocalicvowelsignknda
Encoding: 3267 3267 65
Width: 123
Flags: W
LayerCount: 2
Fore
SplineSet
-107 -415 m 0,0,1
 -173 -415 -173 -415 -219.5 -390 c 128,-1,2
 -266 -365 -266 -365 -291 -321 c 128,-1,3
 -316 -277 -316 -277 -316 -222 c 0,4,5
 -316 -176 -316 -176 -297 -139.5 c 128,-1,6
 -278 -103 -278 -103 -243.5 -81.5 c 128,-1,7
 -209 -60 -209 -60 -165 -60 c 0,8,9
 -124 -60 -124 -60 -98 -74 c 128,-1,10
 -72 -88 -72 -88 -60 -112 c 128,-1,11
 -48 -136 -48 -136 -48 -166 c 0,12,13
 -48 -213 -48 -213 -78.5 -242.5 c 128,-1,14
 -109 -272 -109 -272 -177 -272 c 0,15,16
 -202 -272 -202 -272 -223.5 -267 c 128,-1,17
 -245 -262 -245 -262 -265 -250 c 1,18,-1
 -277 -177 l 1,19,20
 -256 -195 -256 -195 -235 -202.5 c 128,-1,21
 -214 -210 -214 -210 -189 -210 c 0,22,23
 -152 -210 -152 -210 -135.5 -198 c 128,-1,24
 -119 -186 -119 -186 -119 -164 c 0,25,26
 -119 -144 -119 -144 -132.5 -133 c 128,-1,27
 -146 -122 -146 -122 -167 -122 c 0,28,29
 -191 -122 -191 -122 -209 -134 c 128,-1,30
 -227 -146 -227 -146 -236.5 -168 c 128,-1,31
 -246 -190 -246 -190 -246 -220 c 2,32,-1
 -246 -224 l 2,33,34
 -246 -282 -246 -282 -211 -314.5 c 128,-1,35
 -176 -347 -176 -347 -108 -347 c 0,36,37
 -57 -347 -57 -347 -17 -329 c 128,-1,38
 23 -311 23 -311 46.5 -268.5 c 128,-1,39
 70 -226 70 -226 70 -154 c 0,40,41
 70 -106 70 -106 53.5 -53 c 128,-1,42
 37 0 37 0 14 36 c 1,43,-1
 83 70 l 1,44,45
 101 39 101 39 115 3.5 c 128,-1,46
 129 -32 129 -32 137.5 -71.5 c 128,-1,47
 146 -111 146 -111 146 -155 c 0,48,49
 146 -283 146 -283 80 -349 c 128,-1,50
 14 -415 14 -415 -107 -415 c 0,0,1
EndSplineSet
Substitution2: "Single Substitution lookup 155 subtable" rasubscriptknda
Substitution2: "Single Substitution lookup 33 subtable" candrabinduknda
Substitution2: "Single Substitution lookup 32 subtable" uni0951
Substitution2: "Single Substitution lookup 31 subtable" uni0952
Substitution2: "Single Substitution lookup 30 subtable" uni1CDA
Substitution2: "Single Substitution lookup 29 subtable" candrabindu_0951knda
Substitution2: "Single Substitution lookup 28 subtable" candrabindu_0952knda
Substitution2: "Single Substitution lookup 27 subtable" candrabindu_1CDAknda
Substitution2: "Single Substitution lookup 26 subtable" uni1CD0
Substitution2: "Single Substitution lookup 25 subtable" uni1CD2
Substitution2: "Single Substitution lookup 24 subtable" uni1CF4
Substitution2: "Single Substitution lookup 22 subtable" rvocalicvowelsignaltknda
Substitution2: "Single Substitution lookup 5 subtable" rephknda
AlternateSubs2: "'aalt' Access All Alternates lookup 1 subtable" candrabinduknda rephknda rasubscriptknda rvocalicvowelsignaltknda uni0951 uni0952 uni1CD0 uni1CD2 uni1CDA uni1CF4 candrabindu_0951knda candrabindu_0952knda candrabindu_1CDAknda
Position2: "Single Positioning lookup 3 subtable" dx=160 dy=0 dh=0 dv=0
Position2: "Single Positioning lookup 2 subtable" dx=0 dy=0 dh=160 dv=0
EndChar

StartChar: rrvocalicvowelsignknda
Encoding: 3268 3268 66
Width: 494
Flags: W
LayerCount: 2
Fore
SplineSet
-107 -415 m 0,0,1
 -173 -415 -173 -415 -219.5 -390 c 128,-1,2
 -266 -365 -266 -365 -291 -321 c 128,-1,3
 -316 -277 -316 -277 -316 -222 c 0,4,5
 -316 -176 -316 -176 -297 -139.5 c 128,-1,6
 -278 -103 -278 -103 -243.5 -81.5 c 128,-1,7
 -209 -60 -209 -60 -165 -60 c 0,8,9
 -124 -60 -124 -60 -98 -74 c 128,-1,10
 -72 -88 -72 -88 -60 -112 c 128,-1,11
 -48 -136 -48 -136 -48 -166 c 0,12,13
 -48 -213 -48 -213 -78.5 -242.5 c 128,-1,14
 -109 -272 -109 -272 -177 -272 c 0,15,16
 -202 -272 -202 -272 -223.5 -267 c 128,-1,17
 -245 -262 -245 -262 -265 -250 c 1,18,-1
 -277 -177 l 1,19,20
 -256 -195 -256 -195 -235 -202.5 c 128,-1,21
 -214 -210 -214 -210 -189 -210 c 0,22,23
 -152 -210 -152 -210 -135.5 -198 c 128,-1,24
 -119 -186 -119 -186 -119 -164 c 0,25,26
 -119 -144 -119 -144 -132.5 -133 c 128,-1,27
 -146 -122 -146 -122 -167 -122 c 0,28,29
 -191 -122 -191 -122 -209 -134 c 128,-1,30
 -227 -146 -227 -146 -236.5 -168 c 128,-1,31
 -246 -190 -246 -190 -246 -220 c 2,32,-1
 -246 -224 l 2,33,34
 -246 -282 -246 -282 -211 -314.5 c 128,-1,35
 -176 -347 -176 -347 -108 -347 c 0,36,37
 -57 -347 -57 -347 -17 -329 c 128,-1,38
 23 -311 23 -311 46.5 -268.5 c 128,-1,39
 70 -226 70 -226 70 -154 c 0,40,41
 70 -108 70 -108 55 -57.5 c 128,-1,42
 40 -7 40 -7 18 29 c 1,43,-1
 59 79 l 1,44,-1
 98 38 l 1,45,46
 118 -4 118 -4 132 -52.5 c 128,-1,47
 146 -101 146 -101 146 -155 c 0,48,49
 146 -283 146 -283 80 -349 c 128,-1,50
 14 -415 14 -415 -107 -415 c 0,0,1
348 -345 m 0,51,52
 300 -345 300 -345 267.5 -327.5 c 128,-1,53
 235 -310 235 -310 218 -280.5 c 128,-1,54
 201 -251 201 -251 201 -216 c 0,55,56
 201 -163 201 -163 230 -136 c 128,-1,57
 259 -109 259 -109 299 -109 c 0,58,59
 333 -109 333 -109 350.5 -124.5 c 128,-1,60
 368 -140 368 -140 368 -168 c 0,61,62
 368 -190 368 -190 354.5 -203.5 c 128,-1,63
 341 -217 341 -217 321 -217 c 0,64,65
 303 -217 303 -217 289.5 -207 c 128,-1,66
 276 -197 276 -197 272 -175 c 1,67,-1
 279 -172 l 1,68,69
 274 -182 274 -182 271.5 -190.5 c 128,-1,70
 269 -199 269 -199 269 -208 c 0,71,72
 269 -237 269 -237 287 -257 c 128,-1,73
 305 -277 305 -277 349 -277 c 0,74,75
 381 -277 381 -277 404 -264.5 c 128,-1,76
 427 -252 427 -252 439.5 -224.5 c 128,-1,77
 452 -197 452 -197 452 -153 c 0,78,79
 452 -114 452 -114 440.5 -85 c 128,-1,80
 429 -56 429 -56 406 -36 c 0,81,82
 389 -21 389 -21 368 -11.5 c 128,-1,83
 347 -2 347 -2 315 3 c 128,-1,84
 283 8 283 8 232 8 c 2,85,-1
 50 8 l 1,86,-1
 59 79 l 1,87,-1
 244 79 l 2,88,89
 307 79 307 79 348.5 71.5 c 128,-1,90
 390 64 390 64 418.5 49 c 128,-1,91
 447 34 447 34 469 11 c 0,92,93
 498 -17 498 -17 513 -58 c 128,-1,94
 528 -99 528 -99 528 -155 c 0,95,96
 528 -213 528 -213 507.5 -255.5 c 128,-1,97
 487 -298 487 -298 447 -321.5 c 128,-1,98
 407 -345 407 -345 348 -345 c 0,51,52
EndSplineSet
Substitution2: "Single Substitution lookup 155 subtable" rasubscriptknda
Substitution2: "Single Substitution lookup 33 subtable" candrabinduknda
Substitution2: "Single Substitution lookup 32 subtable" uni0951
Substitution2: "Single Substitution lookup 31 subtable" uni0952
Substitution2: "Single Substitution lookup 30 subtable" uni1CDA
Substitution2: "Single Substitution lookup 29 subtable" candrabindu_0951knda
Substitution2: "Single Substitution lookup 28 subtable" candrabindu_0952knda
Substitution2: "Single Substitution lookup 27 subtable" candrabindu_1CDAknda
Substitution2: "Single Substitution lookup 26 subtable" uni1CD0
Substitution2: "Single Substitution lookup 25 subtable" uni1CD2
Substitution2: "Single Substitution lookup 24 subtable" uni1CF4
Substitution2: "Single Substitution lookup 22 subtable" rrvocalicvowelsignaltknda
AlternateSubs2: "'aalt' Access All Alternates lookup 1 subtable" candrabinduknda rasubscriptknda rrvocalicvowelsignaltknda uni0951 uni0952 uni1CD0 uni1CD2 uni1CDA uni1CF4 candrabindu_0951knda candrabindu_0952knda candrabindu_1CDAknda
Position2: "Single Positioning lookup 3 subtable" dx=160 dy=0 dh=0 dv=0
Position2: "Single Positioning lookup 2 subtable" dx=0 dy=0 dh=160 dv=0
EndChar

StartChar: evowelsignknda
Encoding: 3270 3270 67
Width: 0
GlyphClass: 4
Flags: W
LayerCount: 2
Fore
SplineSet
-509 474 m 1,0,-1
 -509 551 l 1,1,-1
 -273 551 l 2,2,3
 -205 551 -205 551 -175.5 559.5 c 128,-1,4
 -146 568 -146 568 -132 583 c 0,5,6
 -120 597 -120 597 -115.5 614.5 c 128,-1,7
 -111 632 -111 632 -111 651 c 0,8,9
 -111 693 -111 693 -137 716.5 c 128,-1,10
 -163 740 -163 740 -204 740 c 0,11,12
 -243 740 -243 740 -269.5 718 c 128,-1,13
 -296 696 -296 696 -296 667 c 0,14,15
 -296 662 -296 662 -296 656.5 c 128,-1,16
 -296 651 -296 651 -295 646 c 1,17,-1
 -324 688 l 1,18,19
 -314 690 -314 690 -305 691.5 c 128,-1,20
 -296 693 -296 693 -289 693 c 0,21,22
 -264 693 -264 693 -250 681.5 c 128,-1,23
 -236 670 -236 670 -236 650 c 0,24,25
 -236 627 -236 627 -251.5 614.5 c 128,-1,26
 -267 602 -267 602 -292 602 c 0,27,28
 -328 602 -328 602 -343.5 626.5 c 128,-1,29
 -359 651 -359 651 -359 681 c 0,30,31
 -359 712 -359 712 -340.5 741.5 c 128,-1,32
 -322 771 -322 771 -286.5 790 c 128,-1,33
 -251 809 -251 809 -199 809 c 0,34,35
 -146 809 -146 809 -108.5 787.5 c 128,-1,36
 -71 766 -71 766 -50.5 728 c 128,-1,37
 -30 690 -30 690 -30 640 c 0,38,39
 -30 603 -30 603 -41 573 c 128,-1,40
 -52 543 -52 543 -76 521 c 0,41,42
 -95 504 -95 504 -120.5 493.5 c 128,-1,43
 -146 483 -146 483 -179 478.5 c 128,-1,44
 -212 474 -212 474 -253 474 c 2,45,-1
 -509 474 l 1,0,-1
EndSplineSet
Substitution2: "Single Substitution lookup 18 subtable" evowelsignaltknda
Substitution2: "Single Substitution lookup 12 subtable" januktasubscriptknda
Substitution2: "Single Substitution lookup 6 subtable" phanuktasubscriptknda
AlternateSubs2: "'aalt' Access All Alternates lookup 1 subtable" januktasubscriptknda phanuktasubscriptknda evowelsignaltknda
EndChar

StartChar: auvowelsignknda
Encoding: 3276 3276 72
Width: 430
GlyphClass: 4
Flags: W
LayerCount: 2
Fore
SplineSet
29 607 m 0,0,1
 29 574 29 574 20 551 c 128,-1,2
 11 528 11 528 -6 512 c 0,3,4
 -26 493 -26 493 -59.5 483.5 c 128,-1,5
 -93 474 -93 474 -140 474 c 2,6,-1
 -250 474 l 1,7,-1
 -250 551 l 1,8,-1
 -163 551 l 2,9,10
 -128 551 -128 551 -107 554.5 c 128,-1,11
 -86 558 -86 558 -74 567 c 0,12,13
 -63 575 -63 575 -57.5 586.5 c 128,-1,14
 -52 598 -52 598 -52 617 c 0,15,16
 -52 631 -52 631 -59 656 c 128,-1,17
 -66 681 -66 681 -89 709 c 1,18,-1
 -5 716 l 1,19,20
 9 697 9 697 19 669.5 c 128,-1,21
 29 642 29 642 29 607 c 0,0,1
404 471 m 0,22,23
 404 393 404 393 378 336.5 c 128,-1,24
 352 280 352 280 304.5 249.5 c 128,-1,25
 257 219 257 219 192 219 c 0,26,27
 136 219 136 219 98 240.5 c 128,-1,28
 60 262 60 262 40.5 298.5 c 128,-1,29
 21 335 21 335 21 378 c 0,30,31
 21 422 21 422 36 451 c 128,-1,32
 51 480 51 480 76.5 494.5 c 128,-1,33
 102 509 102 509 132 509 c 0,34,35
 168 509 168 509 188 491 c 128,-1,36
 208 473 208 473 208 442 c 0,37,38
 208 414 208 414 192.5 397 c 128,-1,39
 177 380 177 380 153 380 c 0,40,41
 126 380 126 380 111.5 395 c 128,-1,42
 97 410 97 410 97 440 c 1,43,-1
 105 442 l 1,44,45
 98 427 98 427 95.5 414 c 128,-1,46
 93 401 93 401 93 386 c 0,47,48
 93 349 93 349 115.5 321.5 c 128,-1,49
 138 294 138 294 192 294 c 0,50,51
 233 294 233 294 262 314 c 128,-1,52
 291 334 291 334 306.5 373.5 c 128,-1,53
 322 413 322 413 322 471 c 0,54,55
 322 527 322 527 308 569 c 128,-1,56
 294 611 294 611 266 640 c 0,57,58
 246 662 246 662 220.5 676 c 128,-1,59
 195 690 195 690 156 697.5 c 128,-1,60
 117 705 117 705 55 705 c 2,61,-1
 -269 705 l 1,62,-1
 -269 782 l 1,63,-1
 75 782 l 2,64,65
 140 782 140 782 188 772 c 128,-1,66
 236 762 236 762 271 742 c 128,-1,67
 306 722 306 722 333 692 c 0,68,69
 367 655 367 655 385.5 598.5 c 128,-1,70
 404 542 404 542 404 471 c 0,22,23
EndSplineSet
Substitution2: "Single Substitution lookup 12 subtable" januktasubscriptknda
Substitution2: "Single Substitution lookup 6 subtable" phanuktasubscriptknda
AlternateSubs2: "'aalt' Access All Alternates lookup 1 subtable" januktasubscriptknda phanuktasubscriptknda
PairPos2: "'kern' Horizontal Kerning in Latin lookup 9 subtable" mayasubscriptknda dx=0 dy=0 dh=-78 dv=0 dx=0 dy=0 dh=0 dv=0
PairPos2: "'kern' Horizontal Kerning in Latin lookup 9 subtable" tayasubscriptknda dx=0 dy=0 dh=-78 dv=0 dx=0 dy=0 dh=0 dv=0
PairPos2: "'kern' Horizontal Kerning in Latin lookup 9 subtable" bharasubscriptknda dx=0 dy=0 dh=-78 dv=0 dx=0 dy=0 dh=0 dv=0
PairPos2: "'kern' Horizontal Kerning in Latin lookup 9 subtable" parasubscriptknda dx=0 dy=0 dh=-78 dv=0 dx=0 dy=0 dh=0 dv=0
PairPos2: "'kern' Horizontal Kerning in Latin lookup 9 subtable" darasubscriptknda dx=0 dy=0 dh=-78 dv=0 dx=0 dy=0 dh=0 dv=0
PairPos2: "'kern' Horizontal Kerning in Latin lookup 9 subtable" tarasubscriptknda dx=0 dy=0 dh=-78 dv=0 dx=0 dy=0 dh=0 dv=0
PairPos2: "'kern' Horizontal Kerning in Latin lookup 9 subtable" ddarasubscriptknda dx=0 dy=0 dh=-78 dv=0 dx=0 dy=0 dh=0 dv=0
PairPos2: "'kern' Horizontal Kerning in Latin lookup 9 subtable" ttarasubscriptknda dx=0 dy=0 dh=-78 dv=0 dx=0 dy=0 dh=0 dv=0
PairPos2: "'kern' Horizontal Kerning in Latin lookup 9 subtable" garasubscriptknda dx=0 dy=0 dh=-78 dv=0 dx=0 dy=0 dh=0 dv=0
PairPos2: "'kern' Horizontal Kerning in Latin lookup 9 subtable" karasubscriptknda dx=0 dy=0 dh=-78 dv=0 dx=0 dy=0 dh=0 dv=0
PairPos2: "'kern' Horizontal Kerning in Latin lookup 9 subtable" phanuktasubscriptknda dx=0 dy=0 dh=-78 dv=0 dx=0 dy=0 dh=0 dv=0
PairPos2: "'kern' Horizontal Kerning in Latin lookup 9 subtable" januktasubscriptknda dx=0 dy=0 dh=-78 dv=0 dx=0 dy=0 dh=0 dv=0
PairPos2: "'kern' Horizontal Kerning in Latin lookup 9 subtable" fasubscriptknda dx=0 dy=0 dh=-78 dv=0 dx=0 dy=0 dh=0 dv=0
PairPos2: "'kern' Horizontal Kerning in Latin lookup 9 subtable" hasubscriptknda dx=0 dy=0 dh=-78 dv=0 dx=0 dy=0 dh=0 dv=0
PairPos2: "'kern' Horizontal Kerning in Latin lookup 9 subtable" sasubscriptknda dx=0 dy=0 dh=-78 dv=0 dx=0 dy=0 dh=0 dv=0
PairPos2: "'kern' Horizontal Kerning in Latin lookup 9 subtable" ssasubscriptknda dx=0 dy=0 dh=-78 dv=0 dx=0 dy=0 dh=0 dv=0
PairPos2: "'kern' Horizontal Kerning in Latin lookup 9 subtable" shasubscriptknda dx=0 dy=0 dh=-78 dv=0 dx=0 dy=0 dh=0 dv=0
PairPos2: "'kern' Horizontal Kerning in Latin lookup 9 subtable" vasubscriptknda dx=0 dy=0 dh=-78 dv=0 dx=0 dy=0 dh=0 dv=0
PairPos2: "'kern' Horizontal Kerning in Latin lookup 9 subtable" llasubscriptknda dx=0 dy=0 dh=-78 dv=0 dx=0 dy=0 dh=0 dv=0
PairPos2: "'kern' Horizontal Kerning in Latin lookup 9 subtable" lasubscriptknda dx=0 dy=0 dh=-63 dv=0 dx=0 dy=0 dh=0 dv=0
PairPos2: "'kern' Horizontal Kerning in Latin lookup 9 subtable" rrasubscriptknda dx=0 dy=0 dh=-78 dv=0 dx=0 dy=0 dh=0 dv=0
PairPos2: "'kern' Horizontal Kerning in Latin lookup 9 subtable" rasubscriptknda dx=0 dy=0 dh=-78 dv=0 dx=0 dy=0 dh=0 dv=0
PairPos2: "'kern' Horizontal Kerning in Latin lookup 9 subtable" yasubscriptknda dx=0 dy=0 dh=-78 dv=0 dx=0 dy=0 dh=0 dv=0
PairPos2: "'kern' Horizontal Kerning in Latin lookup 9 subtable" masubscriptknda dx=0 dy=0 dh=-78 dv=0 dx=0 dy=0 dh=0 dv=0
PairPos2: "'kern' Horizontal Kerning in Latin lookup 9 subtable" bhasubscriptknda dx=0 dy=0 dh=-78 dv=0 dx=0 dy=0 dh=0 dv=0
PairPos2: "'kern' Horizontal Kerning in Latin lookup 9 subtable" basubscriptknda dx=0 dy=0 dh=-78 dv=0 dx=0 dy=0 dh=0 dv=0
PairPos2: "'kern' Horizontal Kerning in Latin lookup 9 subtable" phasubscriptknda dx=0 dy=0 dh=-78 dv=0 dx=0 dy=0 dh=0 dv=0
PairPos2: "'kern' Horizontal Kerning in Latin lookup 9 subtable" pasubscriptknda dx=0 dy=0 dh=-78 dv=0 dx=0 dy=0 dh=0 dv=0
PairPos2: "'kern' Horizontal Kerning in Latin lookup 9 subtable" nasubscriptknda dx=0 dy=0 dh=-78 dv=0 dx=0 dy=0 dh=0 dv=0
PairPos2: "'kern' Horizontal Kerning in Latin lookup 9 subtable" dhasubscriptknda dx=0 dy=0 dh=-63 dv=0 dx=0 dy=0 dh=0 dv=0
PairPos2: "'kern' Horizontal Kerning in Latin lookup 9 subtable" dasubscriptknda dx=0 dy=0 dh=-63 dv=0 dx=0 dy=0 dh=0 dv=0
PairPos2: "'kern' Horizontal Kerning in Latin lookup 9 subtable" thasubscriptknda dx=0 dy=0 dh=-63 dv=0 dx=0 dy=0 dh=0 dv=0
PairPos2: "'kern' Horizontal Kerning in Latin lookup 9 subtable" tasubscriptknda dx=0 dy=0 dh=-63 dv=0 dx=0 dy=0 dh=0 dv=0
PairPos2: "'kern' Horizontal Kerning in Latin lookup 9 subtable" nnasubscriptknda dx=0 dy=0 dh=-78 dv=0 dx=0 dy=0 dh=0 dv=0
PairPos2: "'kern' Horizontal Kerning in Latin lookup 9 subtable" ddhasubscriptknda dx=0 dy=0 dh=-63 dv=0 dx=0 dy=0 dh=0 dv=0
PairPos2: "'kern' Horizontal Kerning in Latin lookup 9 subtable" ddasubscriptknda dx=0 dy=0 dh=-63 dv=0 dx=0 dy=0 dh=0 dv=0
PairPos2: "'kern' Horizontal Kerning in Latin lookup 9 subtable" tthasubscriptknda dx=0 dy=0 dh=-15 dv=0 dx=0 dy=0 dh=0 dv=0
PairPos2: "'kern' Horizontal Kerning in Latin lookup 9 subtable" ttasubscriptknda dx=0 dy=0 dh=-78 dv=0 dx=0 dy=0 dh=0 dv=0
PairPos2: "'kern' Horizontal Kerning in Latin lookup 9 subtable" nyasubscriptknda dx=0 dy=0 dh=-78 dv=0 dx=0 dy=0 dh=0 dv=0
PairPos2: "'kern' Horizontal Kerning in Latin lookup 9 subtable" jhasubscriptknda dx=0 dy=0 dh=-78 dv=0 dx=0 dy=0 dh=0 dv=0
PairPos2: "'kern' Horizontal Kerning in Latin lookup 9 subtable" jasubscriptknda dx=0 dy=0 dh=-78 dv=0 dx=0 dy=0 dh=0 dv=0
PairPos2: "'kern' Horizontal Kerning in Latin lookup 9 subtable" chasubscriptknda dx=0 dy=0 dh=-78 dv=0 dx=0 dy=0 dh=0 dv=0
PairPos2: "'kern' Horizontal Kerning in Latin lookup 9 subtable" casubscriptknda dx=0 dy=0 dh=-78 dv=0 dx=0 dy=0 dh=0 dv=0
PairPos2: "'kern' Horizontal Kerning in Latin lookup 9 subtable" ngasubscriptknda dx=0 dy=0 dh=-78 dv=0 dx=0 dy=0 dh=0 dv=0
PairPos2: "'kern' Horizontal Kerning in Latin lookup 9 subtable" ghasubscriptknda dx=0 dy=0 dh=-78 dv=0 dx=0 dy=0 dh=0 dv=0
PairPos2: "'kern' Horizontal Kerning in Latin lookup 9 subtable" gasubscriptknda dx=0 dy=0 dh=-15 dv=0 dx=0 dy=0 dh=0 dv=0
PairPos2: "'kern' Horizontal Kerning in Latin lookup 9 subtable" khasubscriptknda dx=0 dy=0 dh=-78 dv=0 dx=0 dy=0 dh=0 dv=0
PairPos2: "'kern' Horizontal Kerning in Latin lookup 9 subtable" kasubscriptknda dx=0 dy=0 dh=-78 dv=0 dx=0 dy=0 dh=0 dv=0
PairPos2: "'kern' Horizontal Kerning in Latin lookup 9 subtable" anusvaraknda dx=0 dy=0 dh=-10 dv=0 dx=0 dy=0 dh=0 dv=0
PairPos2: "'dist' Distance lookup 7 subtable" mayasubscriptknda dx=0 dy=0 dh=-78 dv=0 dx=0 dy=0 dh=0 dv=0
PairPos2: "'dist' Distance lookup 7 subtable" tayasubscriptknda dx=0 dy=0 dh=-78 dv=0 dx=0 dy=0 dh=0 dv=0
PairPos2: "'dist' Distance lookup 7 subtable" bharasubscriptknda dx=0 dy=0 dh=-78 dv=0 dx=0 dy=0 dh=0 dv=0
PairPos2: "'dist' Distance lookup 7 subtable" parasubscriptknda dx=0 dy=0 dh=-78 dv=0 dx=0 dy=0 dh=0 dv=0
PairPos2: "'dist' Distance lookup 7 subtable" darasubscriptknda dx=0 dy=0 dh=-78 dv=0 dx=0 dy=0 dh=0 dv=0
PairPos2: "'dist' Distance lookup 7 subtable" tarasubscriptknda dx=0 dy=0 dh=-78 dv=0 dx=0 dy=0 dh=0 dv=0
PairPos2: "'dist' Distance lookup 7 subtable" ddarasubscriptknda dx=0 dy=0 dh=-78 dv=0 dx=0 dy=0 dh=0 dv=0
PairPos2: "'dist' Distance lookup 7 subtable" ttarasubscriptknda dx=0 dy=0 dh=-78 dv=0 dx=0 dy=0 dh=0 dv=0
PairPos2: "'dist' Distance lookup 7 subtable" garasubscriptknda dx=0 dy=0 dh=-78 dv=0 dx=0 dy=0 dh=0 dv=0
PairPos2: "'dist' Distance lookup 7 subtable" karasubscriptknda dx=0 dy=0 dh=-78 dv=0 dx=0 dy=0 dh=0 dv=0
PairPos2: "'dist' Distance lookup 7 subtable" phanuktasubscriptknda dx=0 dy=0 dh=-78 dv=0 dx=0 dy=0 dh=0 dv=0
PairPos2: "'dist' Distance lookup 7 subtable" januktasubscriptknda dx=0 dy=0 dh=-78 dv=0 dx=0 dy=0 dh=0 dv=0
PairPos2: "'dist' Distance lookup 7 subtable" fasubscriptknda dx=0 dy=0 dh=-78 dv=0 dx=0 dy=0 dh=0 dv=0
PairPos2: "'dist' Distance lookup 7 subtable" hasubscriptknda dx=0 dy=0 dh=-78 dv=0 dx=0 dy=0 dh=0 dv=0
PairPos2: "'dist' Distance lookup 7 subtable" sasubscriptknda dx=0 dy=0 dh=-78 dv=0 dx=0 dy=0 dh=0 dv=0
PairPos2: "'dist' Distance lookup 7 subtable" ssasubscriptknda dx=0 dy=0 dh=-78 dv=0 dx=0 dy=0 dh=0 dv=0
PairPos2: "'dist' Distance lookup 7 subtable" shasubscriptknda dx=0 dy=0 dh=-78 dv=0 dx=0 dy=0 dh=0 dv=0
PairPos2: "'dist' Distance lookup 7 subtable" vasubscriptknda dx=0 dy=0 dh=-78 dv=0 dx=0 dy=0 dh=0 dv=0
PairPos2: "'dist' Distance lookup 7 subtable" llasubscriptknda dx=0 dy=0 dh=-78 dv=0 dx=0 dy=0 dh=0 dv=0
PairPos2: "'dist' Distance lookup 7 subtable" lasubscriptknda dx=0 dy=0 dh=-63 dv=0 dx=0 dy=0 dh=0 dv=0
PairPos2: "'dist' Distance lookup 7 subtable" rrasubscriptknda dx=0 dy=0 dh=-78 dv=0 dx=0 dy=0 dh=0 dv=0
PairPos2: "'dist' Distance lookup 7 subtable" rasubscriptknda dx=0 dy=0 dh=-78 dv=0 dx=0 dy=0 dh=0 dv=0
PairPos2: "'dist' Distance lookup 7 subtable" yasubscriptknda dx=0 dy=0 dh=-78 dv=0 dx=0 dy=0 dh=0 dv=0
PairPos2: "'dist' Distance lookup 7 subtable" masubscriptknda dx=0 dy=0 dh=-78 dv=0 dx=0 dy=0 dh=0 dv=0
PairPos2: "'dist' Distance lookup 7 subtable" bhasubscriptknda dx=0 dy=0 dh=-78 dv=0 dx=0 dy=0 dh=0 dv=0
PairPos2: "'dist' Distance lookup 7 subtable" basubscriptknda dx=0 dy=0 dh=-78 dv=0 dx=0 dy=0 dh=0 dv=0
PairPos2: "'dist' Distance lookup 7 subtable" phasubscriptknda dx=0 dy=0 dh=-78 dv=0 dx=0 dy=0 dh=0 dv=0
PairPos2: "'dist' Distance lookup 7 subtable" pasubscriptknda dx=0 dy=0 dh=-78 dv=0 dx=0 dy=0 dh=0 dv=0
PairPos2: "'dist' Distance lookup 7 subtable" nasubscriptknda dx=0 dy=0 dh=-78 dv=0 dx=0 dy=0 dh=0 dv=0
PairPos2: "'dist' Distance lookup 7 subtable" dhasubscriptknda dx=0 dy=0 dh=-63 dv=0 dx=0 dy=0 dh=0 dv=0
PairPos2: "'dist' Distance lookup 7 subtable" dasubscriptknda dx=0 dy=0 dh=-63 dv=0 dx=0 dy=0 dh=0 dv=0
PairPos2: "'dist' Distance lookup 7 subtable" thasubscriptknda dx=0 dy=0 dh=-63 dv=0 dx=0 dy=0 dh=0 dv=0
PairPos2: "'dist' Distance lookup 7 subtable" tasubscriptknda dx=0 dy=0 dh=-63 dv=0 dx=0 dy=0 dh=0 dv=0
PairPos2: "'dist' Distance lookup 7 subtable" nnasubscriptknda dx=0 dy=0 dh=-78 dv=0 dx=0 dy=0 dh=0 dv=0
PairPos2: "'dist' Distance lookup 7 subtable" ddhasubscriptknda dx=0 dy=0 dh=-63 dv=0 dx=0 dy=0 dh=0 dv=0
PairPos2: "'dist' Distance lookup 7 subtable" ddasubscriptknda dx=0 dy=0 dh=-63 dv=0 dx=0 dy=0 dh=0 dv=0
PairPos2: "'dist' Distance lookup 7 subtable" tthasubscriptknda dx=0 dy=0 dh=-15 dv=0 dx=0 dy=0 dh=0 dv=0
PairPos2: "'dist' Distance lookup 7 subtable" ttasubscriptknda dx=0 dy=0 dh=-78 dv=0 dx=0 dy=0 dh=0 dv=0
PairPos2: "'dist' Distance lookup 7 subtable" nyasubscriptknda dx=0 dy=0 dh=-78 dv=0 dx=0 dy=0 dh=0 dv=0
PairPos2: "'dist' Distance lookup 7 subtable" jhasubscriptknda dx=0 dy=0 dh=-78 dv=0 dx=0 dy=0 dh=0 dv=0
PairPos2: "'dist' Distance lookup 7 subtable" jasubscriptknda dx=0 dy=0 dh=-78 dv=0 dx=0 dy=0 dh=0 dv=0
PairPos2: "'dist' Distance lookup 7 subtable" chasubscriptknda dx=0 dy=0 dh=-78 dv=0 dx=0 dy=0 dh=0 dv=0
PairPos2: "'dist' Distance lookup 7 subtable" casubscriptknda dx=0 dy=0 dh=-78 dv=0 dx=0 dy=0 dh=0 dv=0
PairPos2: "'dist' Distance lookup 7 subtable" ngasubscriptknda dx=0 dy=0 dh=-78 dv=0 dx=0 dy=0 dh=0 dv=0
PairPos2: "'dist' Distance lookup 7 subtable" ghasubscriptknda dx=0 dy=0 dh=-78 dv=0 dx=0 dy=0 dh=0 dv=0
PairPos2: "'dist' Distance lookup 7 subtable" gasubscriptknda dx=0 dy=0 dh=-15 dv=0 dx=0 dy=0 dh=0 dv=0
PairPos2: "'dist' Distance lookup 7 subtable" khasubscriptknda dx=0 dy=0 dh=-78 dv=0 dx=0 dy=0 dh=0 dv=0
PairPos2: "'dist' Distance lookup 7 subtable" kasubscriptknda dx=0 dy=0 dh=-78 dv=0 dx=0 dy=0 dh=0 dv=0
PairPos2: "'dist' Distance lookup 7 subtable" anusvaraknda dx=0 dy=0 dh=-10 dv=0 dx=0 dy=0 dh=0 dv=0
EndChar

StartChar: viramaknda
Encoding: 3277 3277 73
Width: 313
Flags: W
LayerCount: 2
Fore
SplineSet
153 295 m 0,0,1
 83 295 83 295 41 341 c 128,-1,2
 -1 387 -1 387 -1 471 c 2,3,-1
 -1 479 l 2,4,5
 -1 549 -1 549 24.5 597 c 128,-1,6
 50 645 50 645 95.5 670.5 c 128,-1,7
 141 696 141 696 202 696 c 0,8,9
 241 696 241 696 271.5 687 c 128,-1,10
 302 678 302 678 324 665 c 1,11,-1
 281 602 l 1,12,13
 259 614 259 614 237.5 619.5 c 128,-1,14
 216 625 216 625 193 625 c 0,15,16
 161 625 161 625 133.5 611.5 c 128,-1,17
 106 598 106 598 90 566 c 128,-1,18
 74 534 74 534 74 478 c 2,19,-1
 74 467 l 2,20,21
 74 420 74 420 94.5 391.5 c 128,-1,22
 115 363 115 363 155 363 c 0,23,24
 180 363 180 363 196.5 374.5 c 128,-1,25
 213 386 213 386 213 415 c 0,26,27
 213 429 213 429 208 439.5 c 128,-1,28
 203 450 203 450 195 457 c 0,29,30
 183 467 183 467 167 470.5 c 128,-1,31
 151 474 151 474 122 474 c 2,32,-1
 -164 474 l 1,33,-1
 -164 551 l 1,34,-1
 111 551 l 2,35,36
 158 551 158 551 192.5 542.5 c 128,-1,37
 227 534 227 534 250 512 c 0,38,39
 269 496 269 496 279 471.5 c 128,-1,40
 289 447 289 447 289 417 c 0,41,42
 289 356 289 356 250.5 325.5 c 128,-1,43
 212 295 212 295 153 295 c 0,0,1
EndSplineSet
Substitution2: "Single Substitution lookup 33 subtable" candrabinduknda
Substitution2: "Single Substitution lookup 32 subtable" uni0951
Substitution2: "Single Substitution lookup 31 subtable" uni0952
Substitution2: "Single Substitution lookup 30 subtable" uni1CDA
Substitution2: "Single Substitution lookup 29 subtable" candrabindu_0951knda
Substitution2: "Single Substitution lookup 28 subtable" candrabindu_0952knda
Substitution2: "Single Substitution lookup 26 subtable" uni1CD0
Substitution2: "Single Substitution lookup 25 subtable" uni1CD2
Substitution2: "Single Substitution lookup 24 subtable" uni1CF4
Substitution2: "Single Substitution lookup 4 subtable" jasubscriptknda
Substitution2: "Single Substitution lookup 3 subtable" kasubscriptknda
AlternateSubs2: "'aalt' Access All Alternates lookup 1 subtable" candrabinduknda kasubscriptknda jasubscriptknda uni0951 uni0952 uni1CD0 uni1CD2 uni1CDA uni1CF4 candrabindu_0951knda candrabindu_0952knda
EndChar

